<svg width="2200" height="852" viewBox="0 0 2200 852" fill="none" xmlns="http://www.w3.org/2000/svg">
<path d="M1863.13 210.955C1874.11 215.675 1874.11 215.675 1874.11 228.262C1874.11 231.408 1875.68 234.555 1877.25 237.701C1881.96 243.995 1885.1 251.862 1889.81 258.155C1891.38 259.728 1892.95 261.301 1891.38 262.875C1889.81 272.315 1897.66 277.035 1899.23 286.475C1900.8 294.342 1903.94 302.208 1908.64 308.501C1914.92 317.941 1914.92 328.955 1913.35 339.968C1916.49 343.115 1919.63 346.262 1922.77 350.982C1919.63 354.128 1916.49 355.702 1913.35 357.275C1918.06 357.275 1919.63 357.275 1921.2 357.275C1927.48 368.288 1932.19 379.302 1935.33 390.315C1938.47 401.328 1941.61 410.768 1944.74 421.781C1946.31 428.075 1944.74 435.941 1949.45 442.235C1951.02 443.808 1949.45 446.955 1947.88 450.102C1949.45 451.675 1952.59 453.248 1955.73 454.822C1955.73 457.968 1954.16 462.688 1952.59 467.408C1962.01 468.982 1963.58 475.275 1966.72 483.141C1971.43 492.581 1974.57 502.021 1979.27 511.461C1980.84 516.181 1985.55 520.901 1982.41 527.195C1982.41 528.768 1982.41 530.341 1983.98 531.915C1988.69 536.635 1988.69 544.502 1993.4 549.221C1998.11 553.941 1999.68 560.235 1999.68 566.528C2001.25 580.688 2010.67 593.275 2013.8 605.861C2015.37 610.581 2018.51 613.728 2020.08 616.875C2026.36 627.888 2029.5 638.901 2034.21 649.915C2035.78 654.635 2038.92 659.355 2040.49 664.075C2046.77 673.515 2053.04 684.528 2059.32 693.968C2062.46 698.688 2065.6 704.981 2068.74 711.275C2078.16 731.728 2093.85 747.461 2109.55 761.621C2115.83 766.341 2120.53 769.488 2129.95 769.488C2144.08 769.488 2156.63 771.061 2170.76 772.635C2178.61 774.208 2183.32 778.928 2188.03 785.221C2191.16 789.941 2191.16 797.808 2197.44 800.955C2199.01 800.955 2199.01 804.101 2199.01 805.675C2194.3 821.408 2178.61 835.568 2161.34 837.141C2150.36 838.715 2137.8 840.288 2126.81 841.861C2115.83 843.435 2104.84 841.861 2093.85 841.861C2089.14 841.861 2084.43 840.288 2081.3 845.008C2078.16 848.155 2073.45 845.008 2073.45 840.288C2073.45 838.715 2075.02 835.568 2075.02 832.421C2060.89 833.995 2046.77 826.128 2032.64 832.421C2029.5 833.995 2024.79 830.848 2021.65 830.848C2004.39 830.848 1987.12 832.421 1968.29 832.421C1957.3 832.421 1946.31 832.421 1935.33 832.421C1921.2 832.421 1907.07 833.995 1892.95 833.995C1874.11 835.568 1855.28 837.141 1834.88 837.141C1823.89 837.141 1816.04 830.848 1811.33 821.408C1809.76 818.261 1806.62 813.541 1806.62 810.395C1801.91 796.235 1809.76 783.648 1819.18 774.208C1820.75 772.635 1823.89 772.635 1827.03 772.635C1834.88 772.635 1844.29 775.781 1852.14 771.061C1855.28 769.488 1858.42 767.915 1861.56 767.915C1877.25 767.915 1889.81 763.195 1905.51 760.048C1910.21 758.475 1913.35 756.901 1916.49 756.901C1921.2 734.875 1911.78 717.568 1902.37 700.261C1896.09 687.675 1889.81 676.661 1886.67 662.502C1885.1 657.781 1881.96 653.061 1878.82 648.341C1877.25 646.768 1875.68 645.195 1875.68 643.621C1877.25 629.461 1864.7 618.448 1863.13 605.861C1863.13 599.568 1859.99 593.275 1858.42 588.555C1856.85 580.688 1853.71 574.395 1847.43 568.102C1845.86 566.528 1842.72 563.381 1841.15 563.381C1831.74 561.808 1820.75 560.235 1811.33 558.661C1808.19 558.661 1805.05 558.661 1803.48 557.088C1800.35 555.515 1797.21 553.941 1795.64 558.661C1784.65 558.661 1773.66 563.381 1764.25 555.515C1761.11 553.941 1756.4 553.941 1751.69 553.941C1748.55 553.941 1745.41 553.941 1740.7 553.941C1739.13 555.515 1737.56 557.088 1735.99 560.235C1734.42 557.088 1734.42 555.515 1734.42 552.368C1728.15 552.368 1723.44 552.368 1717.16 552.368C1715.59 552.368 1712.45 552.368 1712.45 553.941C1710.88 561.808 1704.6 560.235 1701.46 557.088C1696.75 553.941 1692.05 555.515 1687.34 557.088C1681.06 558.661 1676.35 560.235 1670.07 558.661C1663.79 557.088 1655.95 560.235 1648.1 560.235C1644.96 560.235 1641.82 560.235 1640.25 560.235C1633.97 563.382 1629.26 568.101 1624.55 566.528C1618.28 564.955 1612 569.675 1604.15 566.528C1601.01 564.955 1596.3 566.528 1593.16 568.102C1586.89 571.248 1582.18 569.675 1579.04 563.381C1571.19 579.115 1564.91 594.848 1561.77 612.155C1560.2 618.448 1557.06 626.315 1555.49 632.608C1549.22 648.341 1541.37 662.502 1536.66 678.235C1533.52 684.528 1535.09 693.968 1535.09 701.835C1535.09 708.128 1538.23 711.275 1542.94 715.995C1547.65 720.715 1552.36 723.861 1555.49 730.155C1564.91 744.315 1580.61 750.608 1596.3 755.328C1604.15 758.475 1615.14 761.621 1619.85 769.488C1621.42 772.635 1627.69 775.781 1632.4 775.781C1638.68 777.355 1640.25 780.501 1640.25 785.221C1638.68 789.941 1637.11 793.088 1630.83 793.088C1629.26 793.088 1627.69 793.088 1626.12 794.661C1627.69 799.381 1629.26 802.528 1630.83 807.248C1630.83 807.248 1632.4 808.821 1630.83 808.821C1624.55 815.115 1627.69 822.981 1627.69 830.848C1627.69 832.421 1621.42 835.568 1618.28 835.568C1610.43 835.568 1602.58 833.995 1594.73 833.995C1582.18 833.995 1569.62 833.995 1557.06 833.995C1549.22 833.995 1539.8 832.421 1531.95 832.421C1530.38 832.421 1528.81 832.421 1527.24 832.421C1517.82 832.421 1506.84 833.995 1497.42 833.995C1483.29 835.568 1469.17 835.568 1455.04 837.141C1440.92 837.141 1428.36 840.288 1414.23 835.568C1409.53 832.421 1401.68 833.995 1395.4 833.995C1379.7 833.995 1365.58 832.421 1351.45 830.848C1338.9 829.275 1324.77 830.848 1312.21 830.848C1299.66 830.848 1296.52 827.701 1299.66 815.115C1301.23 808.821 1302.8 804.101 1302.8 797.808C1302.8 793.088 1304.37 791.515 1309.07 789.941C1327.91 785.221 1346.74 780.501 1362.44 769.488C1364.01 767.915 1367.15 767.915 1370.29 767.915C1375 766.341 1379.7 766.341 1382.84 764.768C1389.12 761.621 1393.83 756.901 1400.11 755.328C1404.82 755.328 1409.53 752.181 1411.1 749.035C1415.8 741.168 1425.22 734.875 1428.36 725.435C1428.36 723.862 1429.93 722.288 1431.5 722.288C1444.06 709.701 1448.76 692.395 1455.04 676.661C1456.61 671.941 1459.75 668.795 1461.32 665.648C1466.03 657.781 1469.17 651.488 1467.6 642.048C1467.6 638.901 1469.17 635.755 1470.74 632.608C1475.45 621.595 1481.73 612.155 1486.43 602.715C1488 599.568 1489.57 596.422 1489.57 593.275C1489.57 583.835 1492.71 575.968 1497.42 568.102C1503.7 557.088 1506.84 544.501 1509.98 531.915C1511.55 525.621 1514.69 520.901 1516.26 514.608C1519.39 505.168 1522.53 495.728 1525.67 486.288C1527.24 483.142 1528.81 479.995 1530.38 478.422C1536.66 472.128 1539.8 464.261 1541.37 456.395C1542.94 446.955 1547.65 437.515 1550.79 429.648C1560.2 409.195 1571.19 388.742 1577.47 366.715C1580.61 357.275 1586.89 349.408 1591.59 341.542C1596.3 330.528 1601.01 319.515 1602.58 308.501C1604.15 299.061 1607.29 289.622 1613.57 281.755C1622.99 267.595 1627.69 251.861 1632.4 236.128C1635.54 225.115 1637.11 214.102 1640.25 204.662C1643.39 196.795 1644.96 187.355 1649.67 181.062C1659.08 166.902 1662.22 149.595 1668.5 135.435C1670.07 132.288 1671.64 129.142 1673.21 125.995C1681.06 116.555 1687.34 103.968 1688.91 92.9548C1692.05 80.3682 1701.46 70.9282 1699.89 56.7682C1699.89 55.1949 1701.46 52.0482 1703.03 50.4749C1707.74 44.1815 1714.02 37.8882 1714.02 28.4482C1714.02 25.3015 1718.73 22.1549 1721.87 20.5815C1728.15 19.0082 1734.42 17.4349 1742.27 15.8615C1754.83 14.2882 1765.81 20.5815 1776.8 19.0082C1778.37 19.0082 1779.94 20.5815 1781.51 22.1549C1783.08 22.1549 1783.08 23.7282 1783.08 25.3015C1795.64 34.7415 1798.78 48.9015 1803.48 61.4882C1805.05 64.6349 1805.05 66.2082 1806.62 69.3549C1808.19 75.6482 1809.76 81.9415 1811.33 88.2348C1811.33 89.8082 1811.33 92.9548 1812.9 92.9548C1822.32 102.395 1825.46 114.982 1830.17 127.568C1833.31 137.008 1836.44 144.875 1839.58 152.742C1839.58 154.315 1842.72 155.888 1841.15 155.888C1838.01 165.328 1845.86 171.622 1849 177.915C1850.57 182.635 1855.28 187.355 1852.14 193.648C1852.14 195.222 1853.71 198.368 1856.85 199.941C1866.27 201.515 1866.27 206.235 1863.13 210.955ZM1714.02 214.102C1710.88 220.395 1709.31 223.542 1707.74 226.688C1704.6 234.555 1701.46 242.421 1698.32 250.288C1698.32 251.861 1696.75 251.861 1696.75 253.435C1699.89 258.155 1695.18 262.875 1693.62 266.022C1688.91 278.608 1684.2 289.622 1679.49 302.208C1676.35 313.221 1673.21 324.235 1670.07 335.248C1668.5 341.542 1662.22 346.262 1665.36 352.555C1665.36 352.555 1663.79 354.128 1663.79 355.702C1660.65 360.422 1655.95 366.715 1652.81 371.435C1651.24 373.008 1651.24 374.581 1651.24 377.728C1651.24 384.021 1652.81 390.315 1651.24 396.608C1649.67 402.901 1648.1 407.621 1646.53 413.915C1643.39 426.501 1637.11 437.515 1638.68 450.102C1638.68 451.675 1637.11 453.248 1637.11 453.248C1633.97 459.542 1629.26 465.835 1629.26 473.701C1629.26 478.421 1627.69 483.141 1626.12 489.435C1629.26 492.581 1633.97 495.728 1638.68 498.875C1640.25 491.008 1640.25 484.715 1640.25 478.422C1649.67 476.848 1655.95 479.995 1659.09 486.288C1662.22 484.715 1663.79 483.141 1666.93 479.995C1668.5 483.141 1670.07 486.288 1671.64 491.008C1676.35 481.568 1682.63 486.288 1685.77 486.288C1690.48 483.142 1696.75 479.995 1696.75 479.995C1701.46 484.715 1706.17 483.141 1712.45 481.568C1718.73 479.995 1726.58 479.995 1732.85 479.995C1743.84 479.995 1754.83 481.568 1764.25 481.568C1764.25 478.421 1764.25 476.848 1764.25 473.701C1783.08 472.128 1800.35 468.982 1819.18 475.275C1819.18 473.701 1820.75 470.555 1819.18 468.982C1812.9 453.248 1805.05 435.941 1798.78 420.208C1792.5 407.621 1787.79 395.035 1781.51 384.022C1778.37 379.302 1775.23 374.581 1772.09 369.861C1767.38 360.421 1762.68 350.982 1757.97 339.968C1753.26 327.382 1746.98 314.795 1743.84 302.208C1737.56 281.755 1734.42 259.728 1723.44 242.421C1723.44 240.848 1721.87 240.848 1721.87 239.275C1728.15 231.408 1721.87 223.542 1714.02 214.102Z" fill="white" fill-opacity="0.05"/>
<path d="M243.281 582.261C251.129 588.554 249.559 594.847 246.42 602.714C241.712 613.727 237.003 624.741 233.864 635.754V637.327C224.447 638.901 226.016 649.914 221.307 654.634C216.599 659.354 216.599 664.074 219.738 668.794C211.89 673.514 210.321 675.087 213.46 682.954C216.599 689.247 216.599 695.541 215.029 701.834C213.46 700.261 211.89 700.261 210.321 700.261C208.751 701.834 208.751 704.981 207.181 706.554C200.903 720.714 200.903 733.301 207.181 747.461C210.321 753.754 211.89 760.047 215.029 766.341C216.599 769.487 219.738 772.634 222.877 772.634C241.712 780.501 260.546 786.794 280.951 785.221C287.229 785.221 291.937 788.367 293.507 794.661C296.646 807.247 298.216 818.261 296.646 830.847C296.646 833.994 291.937 837.141 290.368 837.141C285.659 838.714 277.811 837.141 276.242 840.287C273.103 845.007 266.825 838.714 263.685 845.007C263.685 845.007 263.685 845.007 262.116 845.007C262.116 833.994 252.699 841.861 247.99 838.714C243.281 835.567 237.003 837.141 230.725 837.141C224.447 837.141 218.168 837.141 211.89 837.141C193.055 837.141 174.221 840.287 156.956 838.714C142.83 837.141 130.273 841.861 117.717 837.141C116.147 837.141 113.008 837.141 111.438 837.141C103.591 837.141 95.7429 840.287 87.8951 838.714C84.756 837.141 81.6169 838.714 78.4778 840.287C65.9214 846.581 54.9345 841.861 42.378 841.861C31.3911 840.287 18.8347 840.287 7.84778 840.287C6.27822 840.287 3.13911 838.714 0 838.714C0 822.981 0 805.674 0 789.941C10.9869 786.794 20.4042 783.647 29.8216 780.501C37.6693 777.354 45.5171 772.634 50.2258 764.767C51.7954 761.621 56.504 758.474 59.6431 755.327C64.3518 749.034 70.63 744.314 73.7691 734.874C75.3387 728.581 80.0474 723.861 81.6169 719.141C83.1865 715.994 86.3256 712.847 86.3256 709.701C84.756 703.407 86.3256 700.261 92.6038 700.261C92.6038 693.967 100.452 692.394 103.591 687.674C108.299 679.807 111.438 673.514 114.578 665.647C119.286 654.634 122.425 642.047 125.564 631.034C127.134 626.314 130.273 624.741 134.982 624.741C136.551 621.594 138.121 616.874 136.551 613.727C134.982 604.287 142.83 597.994 144.399 588.554C158.525 577.541 160.095 560.234 167.943 544.501C172.651 535.061 178.929 527.194 183.638 519.327C185.208 517.754 186.777 514.607 185.208 513.034C183.638 508.314 186.777 503.594 186.777 500.447C188.347 487.861 197.764 481.567 205.612 473.701C210.321 467.407 215.029 462.687 216.599 454.821C218.168 446.954 221.307 439.087 224.447 431.221C224.447 428.074 227.586 426.501 227.586 424.927C229.155 421.781 230.725 418.634 232.294 415.487C235.433 406.047 237.003 398.181 240.142 388.741C241.712 385.594 244.851 384.021 246.42 380.874C251.129 374.581 257.407 369.861 255.838 360.421V358.847C265.255 346.261 266.825 330.527 269.964 314.794C271.533 311.647 274.672 308.501 277.811 303.781C280.951 300.634 282.52 295.914 284.09 292.767C287.229 281.754 288.798 269.167 291.937 258.154C295.077 245.567 301.355 232.981 306.063 221.967C307.633 217.247 309.203 212.527 310.772 209.381C312.342 204.661 313.911 199.941 315.481 196.794C317.05 193.647 317.05 190.501 317.05 187.354C317.05 185.781 317.05 182.634 318.62 181.061C324.898 174.767 324.898 165.327 329.607 159.034C332.746 154.314 332.746 148.021 332.746 143.301C331.176 130.714 339.024 122.847 343.733 113.407C346.872 107.114 353.15 100.821 351.581 92.9541C351.581 91.3808 351.581 89.8075 353.15 88.2342C362.567 77.2208 359.428 64.6342 359.428 52.0475C359.428 50.4742 359.428 47.3275 359.428 44.1808C370.415 42.6075 370.415 33.1675 371.985 25.3008C373.554 17.4342 376.693 14.2875 384.541 12.7142C382.972 20.5808 381.402 28.4475 379.833 34.7408H381.402C384.541 26.8742 386.111 19.0075 389.25 9.5675C392.389 0.127498 400.237 -3.01917 409.654 3.27416C411.224 3.27416 411.224 6.42083 412.793 4.8475C423.78 1.70083 433.197 11.1408 445.754 6.42083C445.754 9.5675 447.323 11.1408 447.323 14.2875C448.893 19.0075 448.893 22.1542 450.463 26.8742C453.602 34.7408 458.31 42.6075 453.602 50.4742C456.741 52.0475 461.449 52.0475 463.019 53.6208C467.728 66.2075 472.436 77.2208 477.145 89.8075C481.854 105.541 486.562 121.274 494.41 137.007C495.98 140.154 495.98 144.874 497.549 148.021C503.828 165.327 510.106 181.061 516.384 198.367C517.954 199.941 517.954 203.087 517.954 204.661C516.384 215.674 524.232 225.114 528.94 234.554C533.649 245.567 538.358 256.581 544.636 266.021C552.484 281.754 555.623 297.487 561.901 313.221C565.04 319.514 566.61 325.807 571.318 332.101C574.458 338.394 576.027 343.114 576.027 349.407C576.027 350.981 577.597 352.554 577.597 354.127C585.444 365.141 588.584 377.727 594.862 390.314C599.57 402.901 605.849 413.914 610.557 426.501C621.544 450.101 632.531 473.701 641.948 497.301C646.657 508.314 652.935 519.327 657.644 531.914C662.353 541.354 665.492 550.794 667.061 561.807C668.631 569.674 671.77 577.541 673.34 585.407C674.909 590.127 674.909 593.274 676.479 599.567C690.605 607.434 690.605 624.741 693.744 638.901C701.592 640.474 706.3 646.767 709.439 654.634C712.578 664.074 714.148 671.941 718.857 681.381C720.426 686.101 726.705 689.247 731.413 692.394C729.844 695.541 729.844 698.687 734.552 701.834C736.122 711.274 736.122 719.141 737.691 727.007C740.831 741.167 748.678 752.181 759.665 760.047C767.513 766.341 775.361 764.767 784.778 766.341C798.904 767.914 813.03 767.914 827.156 769.487C849.13 771.061 855.408 789.941 849.13 807.247C845.991 816.687 836.573 821.407 827.156 824.554C813.03 829.274 798.904 830.847 784.778 830.847C762.804 830.847 740.831 830.847 718.857 837.141C712.579 838.714 706.3 838.714 700.022 838.714C689.035 837.141 678.048 837.141 668.631 838.714H667.061C641.948 832.421 616.836 841.861 591.723 843.434C569.749 843.434 549.345 851.301 528.94 851.301C524.232 851.301 517.954 852.874 513.245 851.301C503.828 849.727 499.119 843.434 499.119 833.994C499.119 830.847 500.688 827.701 499.119 826.127C492.841 818.261 492.841 808.821 495.98 799.381C497.549 796.234 495.98 794.661 495.98 791.514C513.245 782.074 530.51 778.927 549.345 774.207C555.623 772.634 563.471 771.061 569.749 769.487C576.027 767.914 577.597 764.767 577.597 758.474C577.597 750.607 576.027 744.314 571.318 738.021C565.04 728.581 560.332 719.141 554.053 708.127C554.053 708.127 552.484 706.554 554.053 706.554C555.623 693.967 549.345 681.381 547.775 668.794C546.206 662.501 543.066 654.634 539.927 648.341C533.649 640.474 528.94 631.034 525.801 621.594C521.093 605.861 514.814 588.554 508.536 572.821C505.397 564.954 500.688 560.234 491.271 560.234C480.284 560.234 470.867 560.234 459.88 560.234C444.184 560.234 426.919 557.087 411.224 557.087C393.959 557.087 378.263 552.367 360.998 557.087C357.859 558.661 354.72 557.087 350.011 557.087C339.024 557.087 326.468 557.087 315.481 557.087C299.785 557.087 284.09 560.234 268.394 564.954C263.685 566.527 258.977 568.101 257.407 572.821C252.699 575.967 247.99 579.114 243.281 582.261ZM291.937 491.007C313.911 487.861 335.885 484.714 357.859 481.567C373.554 479.994 389.25 478.421 404.945 479.994C434.767 483.141 463.019 478.421 494.41 478.421C492.841 472.127 491.271 467.407 489.702 464.261C483.423 453.247 478.715 443.807 472.436 434.367C467.728 424.927 459.88 418.634 455.171 409.194C448.893 393.461 439.476 379.301 437.906 361.994C437.906 357.274 436.337 352.554 434.767 349.407C423.78 336.821 422.211 321.087 415.932 306.927C408.085 292.767 403.376 277.034 392.389 264.447C387.68 258.154 384.541 251.861 386.111 243.994C386.111 237.701 384.541 231.407 381.402 225.114C379.833 226.687 378.263 228.261 378.263 229.834C373.554 242.421 368.846 255.007 364.137 267.594C364.137 269.167 362.567 270.741 362.567 270.741C354.72 277.034 354.72 281.754 360.998 289.621C357.859 305.354 350.011 317.941 348.441 333.674C346.872 341.541 345.302 349.407 342.163 357.274C339.024 363.567 335.885 369.861 337.455 377.727C339.024 385.594 332.746 393.461 326.468 396.607C326.468 399.754 328.037 404.474 326.468 407.621C324.898 413.914 320.189 420.207 317.05 428.074C310.772 443.807 304.494 459.541 298.216 475.274C296.646 476.847 295.077 478.421 293.507 481.567C293.507 483.141 291.937 483.141 291.937 484.714C287.229 484.714 290.368 486.287 291.937 491.007Z" fill="white" fill-opacity="0.05"/>
<path d="M1161.02 385.594C1173.58 388.741 1182.99 391.888 1193.98 387.168C1195.55 385.594 1198.69 385.594 1201.83 385.594C1209.68 384.021 1215.95 384.021 1223.8 382.448C1225.37 382.448 1226.94 380.874 1226.94 380.874C1236.36 385.594 1241.07 379.301 1247.35 374.581C1256.76 369.861 1275.6 374.581 1283.45 382.448C1286.58 385.594 1286.58 390.314 1285.02 395.034C1281.88 402.901 1274.03 410.768 1274.03 420.208C1274.03 423.354 1267.75 426.501 1264.61 431.221C1263.04 432.794 1261.47 434.368 1259.9 435.941C1255.19 451.674 1244.21 464.261 1233.22 476.848C1220.66 492.581 1208.11 508.314 1197.12 524.048L1195.55 525.621C1182.99 535.061 1175.15 549.221 1162.59 560.234C1154.74 566.528 1148.46 575.968 1142.19 582.261C1137.48 586.981 1132.77 591.701 1128.06 594.848C1121.78 599.568 1117.07 605.861 1112.36 613.728C1109.22 618.448 1106.09 623.168 1101.38 626.314C1095.1 632.608 1087.25 638.901 1085.68 648.341C1085.68 648.341 1085.68 649.914 1084.11 649.914C1073.13 651.488 1073.13 664.074 1065.28 670.368C1060.57 673.514 1057.43 676.661 1052.72 679.808C1048.01 681.381 1043.3 687.674 1038.59 692.394C1033.89 689.248 1027.61 686.101 1021.33 682.954C1024.47 675.088 1018.19 662.501 1030.75 659.354C1030.75 657.781 1030.75 656.208 1029.18 656.208C1024.47 651.488 1018.19 646.768 1026.04 638.901C1022.9 634.181 1026.04 634.181 1029.18 631.034C1032.32 626.314 1032.32 620.021 1032.32 613.728C1032.32 605.861 1032.32 597.994 1032.32 590.128C1033.89 590.128 1037.03 591.701 1040.16 591.701C1040.16 590.128 1040.16 586.981 1040.16 585.408C1033.89 580.688 1035.46 575.968 1037.03 571.248C1038.59 563.381 1041.73 557.088 1043.3 549.221C1046.44 539.781 1048.01 530.341 1048.01 520.901C1048.01 513.034 1048.01 505.168 1048.01 498.874C1048.01 494.154 1052.72 491.008 1055.86 487.861C1057.43 486.288 1059 484.714 1059 483.141C1057.43 481.568 1055.86 479.994 1054.29 479.994C1044.87 479.994 1037.03 481.568 1027.61 481.568C1024.47 481.568 1021.33 483.141 1016.62 481.568C1008.77 479.994 999.356 481.568 991.508 481.568C977.382 483.141 963.256 483.141 949.13 483.141C944.422 483.141 939.713 483.141 933.435 481.568C927.156 481.568 922.448 478.421 919.309 472.128C917.739 467.408 913.03 462.688 919.309 456.394C920.878 454.821 917.739 448.528 919.309 448.528C925.587 443.808 924.017 439.088 924.017 432.794C924.017 431.221 927.156 428.074 930.296 426.501C928.726 424.928 928.726 423.354 927.156 420.208C927.156 420.208 927.156 418.634 928.726 418.634C935.004 413.914 938.143 409.194 938.143 401.328C938.143 396.608 941.282 393.461 944.422 388.741C947.561 382.448 949.13 376.154 952.269 369.861C952.269 368.288 953.839 366.714 952.269 365.141C952.269 360.421 952.269 355.701 955.408 350.981C958.548 346.261 956.978 338.394 958.548 333.674C958.548 330.528 960.117 325.808 961.687 324.234C966.395 321.088 966.395 316.368 969.534 313.221C972.674 310.074 972.674 305.354 972.674 302.208C972.674 295.914 974.243 291.194 978.952 284.901C983.66 281.754 985.23 273.888 986.8 267.594C989.939 259.728 991.508 250.288 993.078 242.421C994.647 239.274 993.078 234.554 993.078 228.261C1000.93 221.968 999.356 210.954 1002.5 201.514C1002.5 199.941 1002.5 198.368 1004.06 196.794C1007.2 192.074 1005.63 190.501 1002.5 185.781C997.786 181.061 999.356 176.341 1004.06 173.194C1011.91 170.048 1018.19 162.181 1029.18 165.328C1030.75 165.328 1035.46 162.181 1038.59 159.034C1038.59 162.181 1038.59 165.328 1038.59 168.474C1051.15 168.474 1065.28 168.474 1077.83 168.474C1093.53 170.048 1110.79 171.621 1126.49 173.194C1142.19 174.768 1157.88 173.194 1172.01 174.768C1186.13 176.341 1200.26 173.194 1212.82 171.621C1219.09 170.048 1226.94 173.194 1233.22 173.194C1236.36 173.194 1241.07 174.768 1244.21 174.768C1250.48 176.341 1256.76 177.914 1261.47 181.061C1264.61 182.634 1267.75 188.928 1266.18 190.501C1261.47 198.368 1263.04 209.381 1253.62 215.674C1248.92 218.821 1245.78 223.541 1245.78 229.834C1245.78 234.554 1242.64 239.274 1237.93 242.421C1230.08 247.141 1225.37 255.008 1222.23 264.448C1219.09 273.888 1217.52 283.328 1212.82 289.621C1208.11 294.341 1208.11 300.634 1203.4 305.354C1198.69 308.501 1195.55 313.221 1193.98 317.941C1192.41 324.234 1187.7 327.381 1184.56 330.528C1179.85 333.674 1178.29 338.394 1178.29 344.688C1178.29 346.261 1178.29 350.981 1176.72 350.981C1173.58 352.554 1172.01 354.128 1173.58 357.274C1173.58 358.848 1172.01 360.421 1172.01 360.421C1162.59 371.434 1167.3 380.874 1161.02 385.594Z" fill="white" fill-opacity="0.05"/>
</svg>
