<svg width="1592" height="617" viewBox="0 0 1592 617" fill="none" xmlns="http://www.w3.org/2000/svg">
<path d="M1348.62 152.699C1356.57 156.116 1356.57 156.116 1356.57 165.227C1356.57 167.504 1357.71 169.782 1358.85 172.06C1362.26 176.615 1364.53 182.31 1367.94 186.865C1369.07 188.004 1370.21 189.143 1369.07 190.282C1367.94 197.115 1373.62 200.531 1374.75 207.364C1375.89 213.059 1378.16 218.753 1381.57 223.308C1386.11 230.142 1386.11 238.113 1384.98 246.085C1387.25 248.363 1389.52 250.641 1391.79 254.057C1389.52 256.335 1387.25 257.474 1384.98 258.613C1388.39 258.613 1389.52 258.613 1390.66 258.613C1395.2 266.585 1398.61 274.557 1400.88 282.529C1403.16 290.501 1405.43 297.334 1407.7 305.306C1408.84 309.861 1407.7 315.556 1411.11 320.111C1412.24 321.25 1411.11 323.528 1409.97 325.805C1411.11 326.944 1413.38 328.083 1415.65 329.222C1415.65 331.5 1414.52 334.916 1413.38 338.333C1420.2 339.472 1421.33 344.027 1423.61 349.721C1427.01 356.554 1429.29 363.388 1432.69 370.221C1433.83 373.637 1437.24 377.054 1434.97 381.609C1434.97 382.748 1434.97 383.887 1436.1 385.026C1439.51 388.442 1439.51 394.137 1442.92 397.553C1446.33 400.97 1447.46 405.525 1447.46 410.081C1448.6 420.33 1455.42 429.441 1457.69 438.552C1458.83 441.969 1461.1 444.246 1462.23 446.524C1466.78 454.496 1469.05 462.468 1472.46 470.44C1473.6 473.856 1475.87 477.273 1477 480.69C1481.55 487.523 1486.09 495.495 1490.64 502.328C1492.91 505.744 1495.18 510.3 1497.45 514.855C1504.27 529.66 1515.63 541.049 1526.99 551.299C1531.54 554.715 1534.95 556.993 1541.76 556.993C1551.99 556.993 1561.08 558.132 1571.3 559.271C1576.98 560.409 1580.39 563.826 1583.8 568.381C1586.07 571.798 1586.07 577.492 1590.62 579.77C1591.75 579.77 1591.75 582.048 1591.75 583.187C1588.34 594.575 1576.98 604.825 1564.49 605.964C1556.53 607.102 1547.44 608.241 1539.49 609.38C1531.54 610.519 1523.58 609.38 1515.63 609.38C1512.22 609.38 1508.82 608.241 1506.54 611.658C1504.27 613.936 1500.86 611.658 1500.86 608.241C1500.86 607.102 1502 604.825 1502 602.547C1491.77 603.686 1481.55 597.992 1471.32 602.547C1469.05 603.686 1465.64 601.408 1463.37 601.408C1450.87 601.408 1438.38 602.547 1424.74 602.547C1416.79 602.547 1408.84 602.547 1400.88 602.547C1390.66 602.547 1380.43 603.686 1370.21 603.686C1356.57 604.825 1342.94 605.964 1328.17 605.964C1320.22 605.964 1314.54 601.408 1311.13 594.575C1309.99 592.297 1307.72 588.881 1307.72 586.603C1304.31 576.353 1309.99 567.243 1316.81 560.409C1317.95 559.271 1320.22 559.271 1322.49 559.271C1328.17 559.271 1334.99 561.548 1340.67 558.132C1342.94 556.993 1345.21 555.854 1347.49 555.854C1358.85 555.854 1367.94 552.437 1379.3 550.16C1382.71 549.021 1384.98 547.882 1387.25 547.882C1390.66 531.938 1383.84 519.411 1377.03 506.883C1372.48 497.772 1367.94 489.8 1365.66 479.551C1364.53 476.134 1362.26 472.718 1359.98 469.301C1358.85 468.162 1357.71 467.023 1357.71 465.884C1358.85 455.635 1349.76 447.663 1348.62 438.552C1348.62 433.997 1346.35 429.441 1345.21 426.025C1344.08 420.33 1341.81 415.775 1337.26 411.219C1336.12 410.081 1333.85 407.803 1332.72 407.803C1325.9 406.664 1317.95 405.525 1311.13 404.386C1308.86 404.386 1306.59 404.386 1305.45 403.247C1303.18 402.109 1300.9 400.97 1299.77 404.386C1291.82 404.386 1283.86 407.803 1277.05 402.109C1274.77 400.97 1271.37 400.97 1267.96 400.97C1265.69 400.97 1263.41 400.97 1260 400.97C1258.87 402.109 1257.73 403.247 1256.6 405.525C1255.46 403.247 1255.46 402.109 1255.46 399.831C1250.92 399.831 1247.51 399.831 1242.96 399.831C1241.83 399.831 1239.55 399.831 1239.55 400.97C1238.42 406.664 1233.87 405.525 1231.6 403.247C1228.19 400.97 1224.78 402.109 1221.38 403.247C1216.83 404.386 1213.42 405.525 1208.88 404.386C1204.33 403.247 1198.65 405.525 1192.97 405.525C1190.7 405.525 1188.43 405.525 1187.29 405.525C1182.75 407.803 1179.34 411.219 1175.93 410.081C1171.39 408.942 1166.84 412.358 1161.16 410.081C1158.89 408.942 1155.48 410.081 1153.21 411.219C1148.66 413.497 1145.26 412.358 1142.98 407.803C1137.3 419.191 1132.76 430.58 1130.49 443.107C1129.35 447.663 1127.08 453.357 1125.94 457.912C1121.4 469.301 1115.72 479.551 1112.31 490.939C1110.04 495.495 1111.17 502.328 1111.17 508.022C1111.17 512.578 1113.45 514.855 1116.85 518.272C1120.26 521.688 1123.67 523.966 1125.94 528.522C1132.76 538.771 1144.12 543.327 1155.48 546.743C1161.16 549.021 1169.11 551.299 1172.52 556.993C1173.66 559.271 1178.2 561.548 1181.61 561.548C1186.16 562.687 1187.29 564.965 1187.29 568.381C1186.16 571.798 1185.02 574.076 1180.48 574.076C1179.34 574.076 1178.2 574.076 1177.07 575.215C1178.2 578.631 1179.34 580.909 1180.48 584.325C1180.48 584.325 1181.61 585.464 1180.48 585.464C1175.93 590.02 1178.2 595.714 1178.2 601.408C1178.2 602.547 1173.66 604.825 1171.39 604.825C1165.71 604.825 1160.03 603.686 1154.35 603.686C1145.26 603.686 1136.17 603.686 1127.08 603.686C1121.4 603.686 1114.58 602.547 1108.9 602.547C1107.76 602.547 1106.63 602.547 1105.49 602.547C1098.68 602.547 1090.72 603.686 1083.91 603.686C1073.68 604.825 1063.46 604.825 1053.23 605.964C1043.01 605.964 1033.92 608.241 1023.69 604.825C1020.28 602.547 1014.6 603.686 1010.06 603.686C998.697 603.686 988.472 602.547 978.247 601.408C969.158 600.269 958.933 601.408 949.844 601.408C940.755 601.408 938.482 599.13 940.755 590.02C941.891 585.464 943.027 582.048 943.027 577.492C943.027 574.076 944.163 572.937 947.571 571.798C961.205 568.381 974.838 564.965 986.199 556.993C987.336 555.854 989.608 555.854 991.88 555.854C995.288 554.715 998.697 554.715 1000.97 553.576C1005.51 551.299 1008.92 547.882 1013.47 546.743C1016.87 546.743 1020.28 544.465 1021.42 542.188C1024.83 536.494 1031.64 531.938 1033.92 525.105C1033.92 523.966 1035.05 522.827 1036.19 522.827C1045.28 513.716 1048.69 501.189 1053.23 489.8C1054.37 486.384 1056.64 484.106 1057.78 481.828C1061.18 476.134 1063.46 471.579 1062.32 464.746C1062.32 462.468 1063.46 460.19 1064.59 457.912C1068 449.941 1072.54 443.107 1075.95 436.274C1077.09 433.997 1078.23 431.719 1078.23 429.441C1078.23 422.608 1080.5 416.914 1083.91 411.219C1088.45 403.247 1090.72 394.137 1092.99 385.026C1094.13 380.47 1096.4 377.054 1097.54 372.498C1099.81 365.665 1102.08 358.832 1104.36 351.999C1105.49 349.721 1106.63 347.444 1107.76 346.305C1112.31 341.749 1114.58 336.055 1115.72 330.361C1116.85 323.528 1120.26 316.694 1122.53 311C1129.35 296.195 1137.3 281.39 1141.85 265.446C1144.12 258.613 1148.66 252.919 1152.07 247.224C1155.48 239.252 1158.89 231.28 1160.03 223.308C1161.16 216.475 1163.43 209.642 1167.98 203.948C1174.8 193.698 1178.2 182.31 1181.61 170.921C1183.88 162.949 1185.02 154.977 1187.29 148.144C1189.57 142.45 1190.7 135.617 1194.11 131.061C1200.93 120.811 1203.2 108.284 1207.74 98.0343C1208.88 95.7566 1210.02 93.4789 1211.15 91.2012C1216.83 84.3681 1221.38 75.2572 1222.51 67.2853C1224.78 58.1744 1231.6 51.3413 1230.47 41.0916C1230.47 39.9527 1231.6 37.675 1232.74 36.5362C1236.15 31.9808 1240.69 27.4253 1240.69 20.5922C1240.69 18.3145 1244.1 16.0368 1246.37 14.8979C1250.92 13.7591 1255.46 12.6202 1261.14 11.4814C1270.23 10.3425 1278.18 14.8979 1286.14 13.7591C1287.27 13.7591 1288.41 14.8979 1289.54 16.0368C1290.68 16.0368 1290.68 17.1756 1290.68 18.3145C1299.77 25.1476 1302.04 35.3973 1305.45 44.5082C1306.59 46.7859 1306.59 47.9247 1307.72 50.2024C1308.86 54.7579 1309.99 59.3133 1311.13 63.8687C1311.13 65.0076 1311.13 67.2853 1312.27 67.2853C1319.08 74.1184 1321.36 83.2292 1324.76 92.3401C1327.04 99.1732 1329.31 104.867 1331.58 110.562C1331.58 111.701 1333.85 112.839 1332.72 112.839C1330.44 119.673 1336.12 124.228 1338.4 128.783C1339.53 132.2 1342.94 135.617 1340.67 140.172C1340.67 141.311 1341.81 143.589 1344.08 144.727C1350.89 145.866 1350.89 149.283 1348.62 152.699ZM1240.69 154.977C1238.42 159.533 1237.28 161.81 1236.15 164.088C1233.87 169.782 1231.6 175.476 1229.33 181.171C1229.33 182.31 1228.19 182.31 1228.19 183.448C1230.47 186.865 1227.06 190.282 1225.92 192.559C1222.51 201.67 1219.1 209.642 1215.7 218.753C1213.42 226.725 1211.15 234.697 1208.88 242.669C1207.74 247.224 1203.2 250.641 1205.47 255.196C1205.47 255.196 1204.33 256.335 1204.33 257.474C1202.06 260.891 1198.65 265.446 1196.38 268.863C1195.25 270.001 1195.25 271.14 1195.25 273.418C1195.25 277.973 1196.38 282.529 1195.25 287.084C1194.11 291.64 1192.97 295.056 1191.84 299.612C1189.57 308.723 1185.02 316.694 1186.16 325.805C1186.16 326.944 1185.02 328.083 1185.02 328.083C1182.75 332.638 1179.34 337.194 1179.34 342.888C1179.34 346.305 1178.2 349.721 1177.07 354.277C1179.34 356.554 1182.75 358.832 1186.16 361.11C1187.29 355.416 1187.29 350.86 1187.29 346.305C1194.11 345.166 1198.65 347.444 1200.93 351.999C1203.2 350.86 1204.33 349.721 1206.61 347.444C1207.74 349.721 1208.88 351.999 1210.02 355.416C1213.42 348.582 1217.97 351.999 1220.24 351.999C1223.65 349.721 1228.19 347.444 1228.19 347.444C1231.6 350.86 1235.01 349.721 1239.55 348.582C1244.1 347.444 1249.78 347.444 1254.32 347.444C1262.28 347.444 1270.23 348.582 1277.05 348.582C1277.05 346.305 1277.05 345.166 1277.05 342.888C1290.68 341.749 1303.18 339.472 1316.81 344.027C1316.81 342.888 1317.95 340.61 1316.81 339.472C1312.27 328.083 1306.59 315.556 1302.04 304.167C1297.5 295.056 1294.09 285.945 1289.54 277.973C1287.27 274.557 1285 271.14 1282.73 267.724C1279.32 260.891 1275.91 254.057 1272.5 246.085C1269.09 236.975 1264.55 227.864 1262.28 218.753C1257.73 203.948 1255.46 188.004 1247.51 175.476C1247.51 174.338 1246.37 174.338 1246.37 173.199C1250.92 167.504 1246.37 161.81 1240.69 154.977Z" fill="white" fill-opacity="0.02"/>
<path d="M176.099 421.469C181.779 426.024 180.643 430.579 178.371 436.274C174.963 444.246 171.554 452.218 169.282 460.19V461.329C162.465 462.467 163.601 470.439 160.193 473.856C156.785 477.273 156.785 480.689 159.057 484.106C153.376 487.522 152.24 488.661 154.512 494.355C156.785 498.911 156.785 503.466 155.649 508.022C154.512 506.883 153.376 506.883 152.24 506.883C151.104 508.022 151.104 510.299 149.968 511.438C145.423 521.688 145.423 530.799 149.968 541.048C152.24 545.604 153.376 550.159 155.649 554.715C156.785 556.992 159.057 559.27 161.329 559.27C174.963 564.964 188.596 569.52 203.366 568.381C207.91 568.381 211.318 570.659 212.455 575.214C214.727 584.325 215.863 592.297 214.727 601.408C214.727 603.685 211.319 605.963 210.182 605.963C206.774 607.102 201.093 605.963 199.957 608.241C197.685 611.657 193.141 607.102 190.868 611.657C190.868 611.657 190.868 611.657 189.732 611.657C189.732 603.685 182.915 609.38 179.507 607.102C176.099 604.824 171.554 605.963 167.01 605.963C162.465 605.963 157.921 605.963 153.376 605.963C139.743 605.963 126.109 608.241 113.612 607.102C103.387 605.963 94.298 609.38 85.2091 605.963C84.073 605.963 81.8007 605.963 80.6646 605.963C74.984 605.963 69.3034 608.241 63.6228 607.102C61.3505 605.963 59.0783 607.102 56.806 608.241C47.7171 612.796 39.7642 609.38 30.6753 609.38C22.7224 608.241 13.6335 608.241 5.6806 608.241C4.54448 608.241 2.27224 607.102 0 607.102C0 595.713 0 583.186 0 571.797C7.95285 569.52 14.7696 567.242 21.5863 564.964C27.2669 562.687 32.9475 559.27 36.3559 553.576C37.492 551.298 40.9004 549.02 43.1726 546.743C46.581 542.187 51.1254 538.771 53.3977 531.938C54.5338 527.382 57.9422 523.966 59.0783 520.549C60.2144 518.271 62.4867 515.994 62.4867 513.716C61.3505 509.16 62.4867 506.883 67.0311 506.883C67.0311 502.327 72.7117 501.188 74.984 497.772C78.3923 492.078 80.6646 487.522 82.9368 481.828C86.3452 473.856 88.6174 464.745 90.8897 456.773C92.0258 453.357 94.298 452.218 97.7064 452.218C98.8425 449.94 99.9786 446.523 98.8425 444.246C97.7064 437.413 103.387 432.857 104.523 426.024C114.748 418.052 115.884 405.525 121.565 394.136C124.973 387.303 129.518 381.609 132.926 375.914C134.062 374.776 135.198 372.498 134.062 371.359C132.926 367.942 135.198 364.526 135.198 362.248C136.335 353.137 143.151 348.582 148.832 342.888C152.24 338.332 155.649 334.916 156.785 329.221C157.921 323.527 160.193 317.833 162.465 312.139C162.465 309.861 164.738 308.722 164.738 307.583C165.874 305.305 167.01 303.028 168.146 300.75C170.418 293.917 171.554 288.223 173.827 281.389C174.963 279.112 177.235 277.973 178.371 275.695C181.779 271.14 186.324 267.723 185.188 260.89V259.751C192.004 250.64 193.141 239.252 195.413 227.863C196.549 225.586 198.821 223.308 201.093 219.891C203.366 217.614 204.502 214.197 205.638 211.919C207.91 203.947 209.046 194.836 211.319 186.865C213.591 177.754 218.135 168.643 221.544 160.671C222.68 157.254 223.816 153.838 224.952 151.56C226.088 148.143 227.224 144.727 228.36 142.449C229.496 140.171 229.496 137.894 229.496 135.616C229.496 134.477 229.496 132.199 230.633 131.061C235.177 126.505 235.177 119.672 238.585 115.117C240.858 111.7 240.858 107.145 240.858 103.728C239.722 94.6173 245.402 88.923 248.81 82.0898C251.083 77.5344 255.627 72.979 254.491 67.2847C254.491 66.1459 254.491 65.007 255.627 63.8682C262.444 55.8962 260.172 46.7853 260.172 37.6745C260.172 36.5356 260.172 34.2579 260.172 31.9802C268.125 30.8414 268.125 24.0082 269.261 18.314C270.397 12.6197 272.669 10.342 278.35 9.20313C277.214 14.8974 276.077 20.5917 274.941 25.1471H276.077C278.35 19.4528 279.486 13.7585 281.758 6.92542C284.03 0.092289 289.711 -2.18542 296.528 2.37C297.664 2.37 297.664 4.64771 298.8 3.50885C306.753 1.23114 313.569 8.06427 322.658 4.64771C322.658 6.92542 323.794 8.06427 323.794 10.342C324.931 13.7585 324.931 16.0363 326.067 19.4528C328.339 25.1471 331.747 30.8414 328.339 36.5356C330.611 37.6745 334.02 37.6745 335.156 38.8134C338.564 47.9242 341.972 55.8962 345.381 65.007C348.789 76.3956 352.198 87.7841 357.878 99.1727C359.014 101.45 359.014 104.867 360.15 107.145C364.695 119.672 369.239 131.061 373.784 143.588C374.92 144.727 374.92 147.005 374.92 148.143C373.784 156.115 379.464 162.949 382.873 169.782C386.281 177.754 389.69 185.726 394.234 192.559C399.915 203.947 402.187 215.336 406.731 226.724C409.004 231.28 410.14 235.835 413.548 240.391C415.82 244.946 416.956 248.363 416.956 252.918C416.956 254.057 418.093 255.196 418.093 256.335C423.773 264.307 426.045 273.417 430.59 282.528C433.998 291.639 438.543 299.611 441.951 308.722C449.904 325.805 457.857 342.888 464.674 359.97C468.082 367.942 472.626 375.914 476.035 385.025C479.443 391.858 481.715 398.692 482.851 406.664C483.988 412.358 486.26 418.052 487.396 423.746C488.532 427.163 488.532 429.441 489.668 433.996C499.893 439.69 499.893 452.218 502.165 462.467C507.846 463.606 511.254 468.162 513.527 473.856C515.799 480.689 516.935 486.383 520.343 493.216C521.48 496.633 526.024 498.911 529.432 501.188C528.296 503.466 528.296 505.744 531.705 508.022C532.841 514.855 532.841 520.549 533.977 526.243C536.249 536.493 541.93 544.465 549.883 550.159C555.563 554.715 561.244 553.576 568.06 554.715C578.286 555.854 588.511 555.854 598.736 556.992C614.641 558.131 619.186 571.797 614.641 584.325C612.369 591.158 605.552 594.575 598.736 596.852C588.511 600.269 578.286 601.408 568.06 601.408C552.155 601.408 536.249 601.408 520.343 605.963C515.799 607.102 511.254 607.102 506.71 607.102C498.757 605.963 490.804 605.963 483.988 607.102H482.851C464.673 602.547 446.496 609.38 428.318 610.519C412.412 610.519 397.642 616.213 382.873 616.213C379.464 616.213 374.92 617.352 371.512 616.213C364.695 615.074 361.286 610.519 361.286 603.685C361.286 601.408 362.423 599.13 361.286 597.991C356.742 592.297 356.742 585.464 359.014 578.631C360.15 576.353 359.014 575.214 359.014 572.936C371.512 566.103 384.009 563.825 397.642 560.409C402.187 559.27 407.867 558.131 412.412 556.992C416.956 555.854 418.093 553.576 418.093 549.02C418.093 543.326 416.956 538.771 413.548 534.215C409.004 527.382 405.595 520.549 401.051 512.577C401.051 512.577 399.915 511.438 401.051 511.438C402.187 502.327 397.642 493.216 396.506 484.106C395.37 479.55 393.098 473.856 390.826 469.301C386.281 463.606 382.873 456.773 380.601 449.94C377.192 438.551 372.648 426.024 368.103 414.636C365.831 408.941 362.423 405.525 355.606 405.525C347.653 405.525 340.836 405.525 332.883 405.525C321.522 405.525 309.025 403.247 297.664 403.247C285.166 403.247 273.805 399.83 261.308 403.247C259.036 404.386 256.763 403.247 253.355 403.247C245.402 403.247 236.313 403.247 228.36 403.247C216.999 403.247 205.638 405.525 194.277 408.941C190.868 410.08 187.46 411.219 186.324 414.636C182.915 416.913 179.507 419.191 176.099 421.469ZM211.319 355.415C227.224 353.137 243.13 350.86 259.036 348.582C270.397 347.443 281.758 346.304 293.119 347.443C314.706 349.721 335.156 346.304 357.878 346.304C356.742 341.749 355.606 338.332 354.47 336.054C349.925 328.083 346.517 321.249 341.972 314.416C338.564 307.583 332.883 303.028 329.475 296.195C324.931 284.806 318.114 274.556 316.978 262.029C316.978 258.612 315.842 255.196 314.706 252.918C306.753 243.807 305.617 232.419 301.072 222.169C295.391 211.919 291.983 200.531 284.03 191.42C280.622 186.865 278.35 182.309 279.486 176.615C279.486 172.059 278.35 167.504 276.077 162.949C274.941 164.087 273.805 165.226 273.805 166.365C270.397 175.476 266.988 184.587 263.58 193.698C263.58 194.836 262.444 195.975 262.444 195.975C256.763 200.531 256.763 203.947 261.308 209.642C259.036 221.03 253.355 230.141 252.219 241.53C251.083 247.224 249.947 252.918 247.674 258.612C245.402 263.168 243.13 267.723 244.266 273.417C245.402 279.112 240.858 284.806 236.313 287.084C236.313 289.361 237.449 292.778 236.313 295.056C235.177 299.611 231.769 304.167 229.496 309.861C224.952 321.249 220.407 332.638 215.863 344.026C214.727 345.165 213.591 346.304 212.455 348.582C212.455 349.721 211.319 349.721 211.319 350.86C207.91 350.86 210.182 351.998 211.319 355.415Z" fill="white" fill-opacity="0.02"/>
<path d="M840.403 279.112C849.492 281.39 856.309 283.667 864.261 280.251C865.398 279.112 867.67 279.112 869.942 279.112C875.623 277.973 880.167 277.973 885.848 276.834C886.984 276.834 888.12 275.695 888.12 275.695C894.937 279.112 898.345 274.556 902.889 271.14C909.706 267.723 923.34 271.14 929.02 276.834C931.293 279.112 931.293 282.528 930.156 285.945C927.884 291.639 922.204 297.334 922.204 304.167C922.204 306.444 917.659 308.722 915.387 312.139C914.251 313.277 913.115 314.416 911.978 315.555C908.57 326.944 900.617 336.055 892.664 345.165C883.575 356.554 874.486 367.942 866.534 379.331L865.398 380.47C856.309 387.303 850.628 397.553 841.539 405.525C835.858 410.08 831.314 416.913 826.769 421.469C823.361 424.885 819.953 428.302 816.544 430.58C812 433.996 808.591 438.552 805.183 444.246C802.911 447.662 800.639 451.079 797.23 453.357C792.686 457.912 787.005 462.467 785.869 469.301C785.869 469.301 785.869 470.439 784.733 470.439C776.78 471.578 776.78 480.689 771.099 485.245C767.691 487.522 765.419 489.8 762.011 492.078C758.602 493.217 755.194 497.772 751.785 501.189C748.377 498.911 743.833 496.633 739.288 494.355C741.56 488.661 737.016 479.55 746.105 477.273C746.105 476.134 746.105 474.995 744.969 474.995C741.56 471.578 737.016 468.162 742.696 462.467C740.424 459.051 742.696 459.051 744.969 456.773C747.241 453.357 747.241 448.801 747.241 444.246C747.241 438.552 747.241 432.857 747.241 427.163C748.377 427.163 750.649 428.302 752.922 428.302C752.922 427.163 752.922 424.885 752.922 423.746C748.377 420.33 749.513 416.913 750.649 413.497C751.785 407.802 754.058 403.247 755.194 397.553C757.466 390.72 758.602 383.886 758.602 377.053C758.602 371.359 758.602 365.665 758.602 361.109C758.602 357.693 762.011 355.415 764.283 353.137C765.419 351.999 766.555 350.86 766.555 349.721C765.419 348.582 764.283 347.443 763.147 347.443C756.33 347.443 750.649 348.582 743.833 348.582C741.56 348.582 739.288 349.721 735.88 348.582C730.199 347.443 723.382 348.582 717.702 348.582C707.477 349.721 697.252 349.721 687.027 349.721C683.618 349.721 680.21 349.721 675.665 348.582C671.121 348.582 667.713 346.304 665.44 341.749C664.304 338.332 660.896 334.916 665.44 330.36C666.576 329.221 664.304 324.666 665.44 324.666C669.985 321.249 668.849 317.833 668.849 313.277C668.849 312.139 671.121 309.861 673.393 308.722C672.257 307.583 672.257 306.444 671.121 304.167C671.121 304.167 671.121 303.028 672.257 303.028C676.801 299.611 679.074 296.195 679.074 290.5C679.074 287.084 681.346 284.806 683.618 281.39C685.89 276.834 687.027 272.279 689.299 267.723C689.299 266.584 690.435 265.446 689.299 264.307C689.299 260.89 689.299 257.474 691.571 254.057C693.843 250.64 692.707 244.946 693.843 241.53C693.843 239.252 694.979 235.835 696.116 234.696C699.524 232.419 699.524 229.002 701.796 226.725C704.068 224.447 704.068 221.03 704.068 218.753C704.068 214.197 705.204 210.781 708.613 206.225C712.021 203.947 713.157 198.253 714.293 193.698C716.566 188.003 717.702 181.17 718.838 175.476C719.974 173.198 718.838 169.782 718.838 165.226C724.519 160.671 723.382 152.699 725.655 145.866C725.655 144.727 725.655 143.588 726.791 142.449C729.063 139.033 727.927 137.894 725.655 134.477C722.246 131.061 723.382 127.644 726.791 125.366C732.471 123.089 737.016 117.394 744.969 119.672C746.105 119.672 749.513 117.394 751.785 115.117C751.785 117.394 751.785 119.672 751.785 121.95C760.874 121.95 771.1 121.95 780.188 121.95C791.55 123.089 804.047 124.228 815.408 125.366C826.769 126.505 838.131 125.366 848.356 126.505C858.581 127.644 868.806 125.366 877.895 124.228C882.439 123.089 888.12 125.366 892.664 125.366C894.937 125.366 898.345 126.505 900.617 126.505C905.162 127.644 909.706 128.783 913.115 131.061C915.387 132.2 917.659 136.755 916.523 137.894C913.115 143.588 914.251 151.56 907.434 156.115C904.026 158.393 901.753 161.81 901.753 166.365C901.753 169.782 899.481 173.198 896.073 175.476C890.392 178.893 886.984 184.587 884.712 191.42C882.439 198.253 881.303 205.086 877.895 209.642C874.486 213.058 874.487 217.614 871.078 221.03C867.67 223.308 865.398 226.724 864.261 230.141C863.125 234.696 859.717 236.974 857.445 239.252C854.036 241.53 852.9 244.946 852.9 249.502C852.9 250.64 852.9 254.057 851.764 254.057C849.492 255.196 848.356 256.335 849.492 258.612C849.492 259.751 848.356 260.89 848.356 260.89C841.539 268.862 844.947 275.695 840.403 279.112Z" fill="white" fill-opacity="0.02"/>
</svg>
