<svg width="11" height="15" viewBox="0 0 11 15" fill="none" xmlns="http://www.w3.org/2000/svg">
<path d="M7.36233 6.08383C7.6907 6.16612 7.93698 6.24841 8.2243 6.12498C8.26535 6.08383 8.34744 6.08383 8.42953 6.08383C8.63476 6.04269 8.79894 6.04269 9.00417 6.00154C9.04522 6.00154 9.08627 5.9604 9.08627 5.9604C9.33255 6.08383 9.45568 5.91925 9.61987 5.79582C9.86614 5.67238 10.3587 5.79582 10.5639 6.00154C10.646 6.08383 10.646 6.20727 10.605 6.3307C10.5229 6.53643 10.3177 6.74215 10.3177 6.98902C10.3177 7.07131 10.1535 7.1536 10.0714 7.27704C10.0303 7.31818 9.98928 7.35933 9.94824 7.40047C9.8251 7.81192 9.53778 8.14108 9.25045 8.47024C8.92208 8.88169 8.59371 9.29314 8.30639 9.70458L8.26535 9.74573C7.93698 9.9926 7.73175 10.3629 7.40338 10.6509C7.19815 10.8155 7.03396 11.0624 6.86978 11.2269C6.74664 11.3504 6.6235 11.4738 6.50036 11.5561C6.33618 11.6795 6.21304 11.8441 6.0899 12.0498C6.00781 12.1733 5.92572 12.2967 5.80258 12.379C5.63839 12.5436 5.43316 12.7082 5.39212 12.955C5.39212 12.955 5.39212 12.9962 5.35107 12.9962C5.06375 13.0373 5.06375 13.3665 4.85852 13.5311C4.73538 13.6134 4.65329 13.6956 4.53015 13.7779C4.40701 13.8191 4.28387 13.9837 4.16073 14.1071C4.0376 14.0248 3.87341 13.9425 3.70923 13.8602C3.79132 13.6545 3.62713 13.3253 3.9555 13.243C3.9555 13.2019 3.9555 13.1608 3.91446 13.1608C3.79132 13.0373 3.62713 12.9139 3.83236 12.7082C3.75027 12.5847 3.83236 12.5847 3.91446 12.5024C3.99655 12.379 3.99655 12.2144 3.99655 12.0498C3.99655 11.8441 3.99655 11.6384 3.99655 11.4327C4.0376 11.4327 4.11969 11.4738 4.20178 11.4738C4.20178 11.4327 4.20178 11.3504 4.20178 11.3092C4.0376 11.1858 4.07864 11.0624 4.11969 10.9389C4.16073 10.7332 4.24283 10.5686 4.28387 10.3629C4.36596 10.116 4.40701 9.86917 4.40701 9.6223C4.40701 9.41657 4.40701 9.21085 4.40701 9.04627C4.40701 8.92283 4.53015 8.84054 4.61224 8.75825C4.65329 8.71711 4.69433 8.67596 4.69433 8.63482C4.65329 8.59367 4.61224 8.55253 4.5712 8.55253C4.32492 8.55253 4.11969 8.59367 3.87341 8.59367C3.79132 8.59367 3.70923 8.63482 3.58609 8.59367C3.38086 8.55253 3.13458 8.59367 2.92935 8.59367C2.55994 8.63482 2.19052 8.63482 1.8211 8.63482C1.69797 8.63482 1.57483 8.63482 1.41064 8.59367C1.24646 8.59367 1.12332 8.51138 1.04123 8.3468C1.00018 8.22337 0.877044 8.09993 1.04123 7.93535C1.08227 7.89421 1.00018 7.72963 1.04123 7.72963C1.20541 7.60619 1.16437 7.48276 1.16437 7.31818C1.16437 7.27703 1.24646 7.19475 1.32855 7.1536C1.28751 7.11246 1.2875 7.07131 1.24646 6.98902C1.24646 6.98902 1.24646 6.94788 1.28751 6.94788C1.45169 6.82444 1.53378 6.70101 1.53378 6.49528C1.53378 6.37185 1.61587 6.28956 1.69797 6.16612C1.78006 6.00154 1.82111 5.83696 1.9032 5.67238C1.9032 5.63124 1.94424 5.59009 1.9032 5.54895C1.9032 5.42551 1.9032 5.30208 1.98529 5.17865C2.06738 5.05521 2.02633 4.84949 2.06738 4.72605C2.06738 4.64376 2.10843 4.52033 2.14947 4.47918C2.27261 4.39689 2.27261 4.27346 2.3547 4.19117C2.4368 4.10888 2.4368 3.98544 2.4368 3.90315C2.4368 3.73857 2.47784 3.61514 2.60098 3.45056C2.72412 3.36827 2.76516 3.16254 2.80621 2.99796C2.8883 2.79224 2.92935 2.54537 2.9704 2.33965C3.01144 2.25736 2.9704 2.13392 2.9704 1.96934C3.17563 1.80476 3.13458 1.51675 3.21667 1.26988C3.21667 1.22873 3.21667 1.18759 3.25772 1.14644C3.33981 1.02301 3.29876 0.981865 3.21667 0.85843C3.09353 0.734995 3.13458 0.61156 3.25772 0.52927C3.46295 0.446981 3.62713 0.241256 3.91446 0.323546C3.9555 0.323546 4.07864 0.241256 4.16073 0.158966C4.16073 0.241256 4.16073 0.323546 4.16073 0.405836C4.4891 0.405836 4.85852 0.405836 5.18689 0.405836C5.59735 0.446981 6.04885 0.488126 6.45932 0.52927C6.86978 0.570415 7.28024 0.52927 7.64965 0.570415C8.01907 0.61156 8.38848 0.52927 8.71685 0.488125C8.88104 0.44698 9.08627 0.52927 9.25045 0.52927C9.33255 0.52927 9.45568 0.570415 9.53778 0.570415C9.70196 0.61156 9.86614 0.652705 9.98928 0.734995C10.0714 0.77614 10.1535 0.940719 10.1124 0.981864C9.98928 1.18759 10.0303 1.4756 9.78405 1.64018C9.66091 1.72247 9.57882 1.84591 9.57882 2.01049C9.57882 2.13392 9.49673 2.25736 9.37359 2.33965C9.16836 2.46308 9.04522 2.66881 8.96313 2.91568C8.88104 3.16254 8.83999 3.40941 8.71685 3.57399C8.59371 3.69743 8.59372 3.86201 8.47058 3.98544C8.34744 4.06773 8.26535 4.19117 8.2243 4.3146C8.18325 4.47918 8.06011 4.56147 7.97802 4.64376C7.85488 4.72605 7.81384 4.84949 7.81384 5.01407C7.81384 5.05521 7.81384 5.17865 7.77279 5.17865C7.6907 5.21979 7.64965 5.26093 7.6907 5.34322C7.6907 5.38437 7.64965 5.42551 7.64965 5.42551C7.40338 5.71353 7.52651 5.9604 7.36233 6.08383Z" fill="white"/>
</svg>
