<svg width="178" height="26" viewBox="0 0 178 26" fill="none" xmlns="http://www.w3.org/2000/svg">
<path d="M133.555 21.6406C133.312 22.1016 132.988 22.4688 132.582 22.7422C132.176 23.0156 131.709 23.1523 131.182 23.1523C130.717 23.1523 130.309 23.0703 129.957 22.9062C129.609 22.7422 129.322 22.5195 129.096 22.2383C128.869 21.957 128.699 21.6289 128.586 21.2539C128.477 20.8789 128.422 20.4824 128.422 20.0645C128.422 19.6895 128.48 19.3223 128.598 18.9629C128.719 18.5996 128.895 18.2734 129.125 17.9844C129.348 17.707 129.623 17.4844 129.951 17.3164C130.283 17.1445 130.654 17.0586 131.064 17.0586C131.486 17.0586 131.848 17.125 132.148 17.2578C132.449 17.3906 132.693 17.5723 132.881 17.8027C133.061 18.0215 133.193 18.2793 133.279 18.5762C133.369 18.873 133.414 19.1953 133.414 19.543V19.9297H129.588C129.588 20.3086 129.623 20.6523 129.693 20.9609C129.768 21.2695 129.883 21.541 130.039 21.7754C130.191 22.002 130.391 22.1816 130.637 22.3145C130.883 22.4434 131.176 22.5078 131.516 22.5078C131.863 22.5078 132.162 22.4277 132.412 22.2676C132.666 22.1035 132.91 21.8105 133.145 21.3887L133.555 21.6406ZM132.26 19.4375C132.26 19.2188 132.24 18.9844 132.201 18.7344C132.166 18.4844 132.107 18.2754 132.025 18.1074C131.936 17.9277 131.812 17.7812 131.656 17.668C131.5 17.5547 131.299 17.498 131.053 17.498C130.643 17.498 130.301 17.6699 130.027 18.0137C129.758 18.3535 129.611 18.8281 129.588 19.4375H132.26ZM138.037 20.1699C138.197 20.3105 138.32 20.4727 138.406 20.6562C138.492 20.8398 138.535 21.0645 138.535 21.3301C138.535 21.8652 138.334 22.3027 137.932 22.6426C137.533 22.9824 137.016 23.1523 136.379 23.1523C136.043 23.1523 135.732 23.0918 135.447 22.9707C135.166 22.8496 134.965 22.7383 134.844 22.6367L134.727 23.0176H134.287L134.229 21.0078H134.633C134.664 21.1602 134.73 21.3379 134.832 21.541C134.934 21.7441 135.057 21.9277 135.201 22.0918C135.354 22.2637 135.535 22.4082 135.746 22.5254C135.961 22.6426 136.201 22.7012 136.467 22.7012C136.842 22.7012 137.131 22.6172 137.334 22.4492C137.537 22.2773 137.639 22.0332 137.639 21.7168C137.639 21.5527 137.605 21.4121 137.539 21.2949C137.477 21.1738 137.383 21.0684 137.258 20.9785C137.129 20.8887 136.971 20.8086 136.783 20.7383C136.596 20.6641 136.387 20.5918 136.156 20.5215C135.973 20.4668 135.768 20.3926 135.541 20.2988C135.318 20.2012 135.127 20.0879 134.967 19.959C134.795 19.8223 134.654 19.6543 134.545 19.4551C134.436 19.2559 134.381 19.0215 134.381 18.752C134.381 18.2793 134.557 17.8789 134.908 17.5508C135.26 17.2227 135.73 17.0586 136.32 17.0586C136.547 17.0586 136.777 17.0879 137.012 17.1465C137.25 17.2051 137.443 17.2754 137.592 17.3574L137.727 17.0527H138.148L138.236 18.9102H137.832C137.75 18.4961 137.572 18.1602 137.299 17.9023C137.029 17.6406 136.699 17.5098 136.309 17.5098C135.988 17.5098 135.736 17.5898 135.553 17.75C135.369 17.9102 135.277 18.1035 135.277 18.3301C135.277 18.5059 135.307 18.6523 135.365 18.7695C135.428 18.8867 135.52 18.9863 135.641 19.0684C135.758 19.1465 135.904 19.2207 136.08 19.291C136.26 19.3574 136.48 19.4336 136.742 19.5195C137 19.6016 137.242 19.6973 137.469 19.8066C137.699 19.916 137.889 20.0371 138.037 20.1699ZM142.982 22.748C142.729 22.8535 142.488 22.9414 142.262 23.0117C142.035 23.0859 141.758 23.123 141.43 23.123C140.945 23.123 140.604 23.002 140.404 22.7598C140.209 22.5137 140.111 22.168 140.111 21.7227V17.8086H139.068V17.2461H140.135V15.4473H141.201V17.2461H142.859V17.8086H141.213V21.0371C141.213 21.2793 141.221 21.4824 141.236 21.6465C141.256 21.8066 141.299 21.9473 141.365 22.0684C141.428 22.1816 141.521 22.2676 141.646 22.3262C141.771 22.3848 141.939 22.4141 142.15 22.4141C142.248 22.4141 142.391 22.4062 142.578 22.3906C142.77 22.3711 142.904 22.3477 142.982 22.3203V22.748ZM145.572 22.3262C145.572 22.5449 145.492 22.7324 145.332 22.8887C145.176 23.041 144.988 23.1172 144.77 23.1172C144.551 23.1172 144.361 23.041 144.201 22.8887C144.045 22.7324 143.967 22.5449 143.967 22.3262C143.967 22.1074 144.045 21.9199 144.201 21.7637C144.361 21.6035 144.551 21.5234 144.77 21.5234C144.988 21.5234 145.176 21.6035 145.332 21.7637C145.492 21.9199 145.572 22.1074 145.572 22.3262ZM155.404 23H149.914V22.2031C150.02 22.082 150.166 21.9473 150.354 21.7988C150.541 21.6465 150.764 21.4824 151.021 21.3066C151.178 21.2012 151.365 21.0859 151.584 20.9609C151.803 20.8359 152.051 20.6992 152.328 20.5508C152.637 20.3867 152.873 20.2422 153.037 20.1172C153.205 19.9922 153.357 19.8379 153.494 19.6543C153.584 19.5332 153.656 19.3828 153.711 19.2031C153.766 19.0195 153.793 18.7598 153.793 18.4238C153.793 17.9355 153.662 17.5781 153.4 17.3516C153.139 17.1211 152.803 17.0059 152.393 17.0059C152.139 17.0059 151.898 17.0566 151.672 17.1582C151.445 17.2559 151.275 17.3926 151.162 17.5684C151.189 17.6934 151.223 17.8418 151.262 18.0137C151.305 18.1855 151.326 18.3535 151.326 18.5176C151.326 18.666 151.264 18.7988 151.139 18.916C151.018 19.0293 150.836 19.0859 150.594 19.0859C150.398 19.0859 150.248 19.0195 150.143 18.8867C150.037 18.75 149.984 18.5684 149.984 18.3418C149.984 18.1309 150.043 17.9199 150.16 17.709C150.277 17.4941 150.445 17.2969 150.664 17.1172C150.879 16.9414 151.145 16.7988 151.461 16.6895C151.777 16.5801 152.119 16.5254 152.486 16.5254C153.287 16.5254 153.922 16.7051 154.391 17.0645C154.863 17.4199 155.1 17.8965 155.1 18.4941C155.1 18.7793 155.057 19.0391 154.971 19.2734C154.889 19.5078 154.754 19.7148 154.566 19.8945C154.359 20.0938 154.117 20.2656 153.84 20.4102C153.562 20.5508 153.139 20.748 152.568 21.002C152.229 21.1543 151.912 21.3145 151.619 21.4824C151.326 21.6465 151.086 21.8066 150.898 21.9629H155.404V23ZM161.99 17.5273C162.24 17.8281 162.426 18.1816 162.547 18.5879C162.672 18.9902 162.734 19.4121 162.734 19.8535C162.734 20.3848 162.658 20.8613 162.506 21.2832C162.354 21.7012 162.145 22.0488 161.879 22.3262C161.605 22.6113 161.281 22.8262 160.906 22.9707C160.531 23.1152 160.113 23.1875 159.652 23.1875C159.148 23.1875 158.699 23.1035 158.305 22.9355C157.91 22.7676 157.59 22.5371 157.344 22.2441C157.086 21.9395 156.893 21.584 156.764 21.1777C156.639 20.7676 156.576 20.3262 156.576 19.8535C156.576 19.3887 156.637 18.9609 156.758 18.5703C156.883 18.1797 157.076 17.8262 157.338 17.5098C157.588 17.2051 157.91 16.9648 158.305 16.7891C158.699 16.6133 159.15 16.5254 159.658 16.5254C160.193 16.5254 160.652 16.6152 161.035 16.7949C161.418 16.9746 161.736 17.2188 161.99 17.5273ZM161.439 19.8535C161.439 18.9238 161.279 18.2031 160.959 17.6914C160.643 17.1797 160.211 16.9238 159.664 16.9238C159.109 16.9238 158.672 17.1797 158.352 17.6914C158.031 18.2031 157.871 18.9238 157.871 19.8535C157.871 20.7363 158.023 21.4473 158.328 21.9863C158.637 22.5215 159.078 22.7891 159.652 22.7891C160.227 22.7891 160.668 22.5215 160.977 21.9863C161.285 21.4473 161.439 20.7363 161.439 19.8535ZM169.479 23H163.988V22.2031C164.094 22.082 164.24 21.9473 164.428 21.7988C164.615 21.6465 164.838 21.4824 165.096 21.3066C165.252 21.2012 165.439 21.0859 165.658 20.9609C165.877 20.8359 166.125 20.6992 166.402 20.5508C166.711 20.3867 166.947 20.2422 167.111 20.1172C167.279 19.9922 167.432 19.8379 167.568 19.6543C167.658 19.5332 167.73 19.3828 167.785 19.2031C167.84 19.0195 167.867 18.7598 167.867 18.4238C167.867 17.9355 167.736 17.5781 167.475 17.3516C167.213 17.1211 166.877 17.0059 166.467 17.0059C166.213 17.0059 165.973 17.0566 165.746 17.1582C165.52 17.2559 165.35 17.3926 165.236 17.5684C165.264 17.6934 165.297 17.8418 165.336 18.0137C165.379 18.1855 165.4 18.3535 165.4 18.5176C165.4 18.666 165.338 18.7988 165.213 18.916C165.092 19.0293 164.91 19.0859 164.668 19.0859C164.473 19.0859 164.322 19.0195 164.217 18.8867C164.111 18.75 164.059 18.5684 164.059 18.3418C164.059 18.1309 164.117 17.9199 164.234 17.709C164.352 17.4941 164.52 17.2969 164.738 17.1172C164.953 16.9414 165.219 16.7988 165.535 16.6895C165.852 16.5801 166.193 16.5254 166.561 16.5254C167.361 16.5254 167.996 16.7051 168.465 17.0645C168.938 17.4199 169.174 17.8965 169.174 18.4941C169.174 18.7793 169.131 19.0391 169.045 19.2734C168.963 19.5078 168.828 19.7148 168.641 19.8945C168.434 20.0938 168.191 20.2656 167.914 20.4102C167.637 20.5508 167.213 20.748 166.643 21.002C166.303 21.1543 165.986 21.3145 165.693 21.4824C165.4 21.6465 165.16 21.8066 164.973 21.9629H169.479V23ZM176.064 17.5273C176.314 17.8281 176.5 18.1816 176.621 18.5879C176.746 18.9902 176.809 19.4121 176.809 19.8535C176.809 20.3848 176.732 20.8613 176.58 21.2832C176.428 21.7012 176.219 22.0488 175.953 22.3262C175.68 22.6113 175.355 22.8262 174.98 22.9707C174.605 23.1152 174.188 23.1875 173.727 23.1875C173.223 23.1875 172.773 23.1035 172.379 22.9355C171.984 22.7676 171.664 22.5371 171.418 22.2441C171.16 21.9395 170.967 21.584 170.838 21.1777C170.713 20.7676 170.65 20.3262 170.65 19.8535C170.65 19.3887 170.711 18.9609 170.832 18.5703C170.957 18.1797 171.15 17.8262 171.412 17.5098C171.662 17.2051 171.984 16.9648 172.379 16.7891C172.773 16.6133 173.225 16.5254 173.732 16.5254C174.268 16.5254 174.727 16.6152 175.109 16.7949C175.492 16.9746 175.811 17.2188 176.064 17.5273ZM175.514 19.8535C175.514 18.9238 175.354 18.2031 175.033 17.6914C174.717 17.1797 174.285 16.9238 173.738 16.9238C173.184 16.9238 172.746 17.1797 172.426 17.6914C172.105 18.2031 171.945 18.9238 171.945 19.8535C171.945 20.7363 172.098 21.4473 172.402 21.9863C172.711 22.5215 173.152 22.7891 173.727 22.7891C174.301 22.7891 174.742 22.5215 175.051 21.9863C175.359 21.4473 175.514 20.7363 175.514 19.8535Z" fill="white"/>
<line x1="150" y1="25.5" x2="155" y2="25.5" stroke="white"/>
<line x1="164" y1="25.5" x2="169" y2="25.5" stroke="white"/>
<path d="M96.862 21.9428C96.862 21.8605 96.862 21.8193 96.862 21.7782C96.862 21.5313 96.862 21.5313 97.0672 21.449C97.1082 21.449 97.1493 21.4079 97.1903 21.3667C97.2314 21.3256 97.2724 21.2844 97.3135 21.2433C97.4366 21.4902 97.6418 21.4902 97.8471 21.449C97.9702 21.449 98.0934 21.4079 98.2165 21.4079C98.5859 21.4079 98.9143 21.2022 99.1606 20.9141L99.2016 20.873C99.6942 20.585 99.9815 20.0501 100.433 19.6798C100.556 19.5975 100.638 19.4741 100.72 19.3506C100.926 19.0626 101.131 18.8569 101.377 18.6512C101.582 18.4454 101.746 18.2397 101.705 17.9517C101.705 17.746 101.788 17.4991 102.034 17.458C102.403 17.3757 102.608 17.0877 102.773 16.7996C103.265 15.8945 103.84 15.0304 104.373 14.1664C104.497 14.0018 104.579 13.7961 104.661 13.5903C104.743 13.3435 104.907 13.1378 105.112 12.932C105.317 12.7674 105.441 12.5617 105.564 12.3149C105.605 12.1503 105.605 12.068 105.482 11.9446C105.194 11.5742 104.907 11.1628 104.579 10.7925C104.414 10.5868 104.25 10.3399 104.086 10.1342C103.717 9.72273 103.47 9.22899 103.183 8.77639C102.855 8.28265 102.526 7.78892 102.198 7.29518C102.034 7.04831 101.829 6.88373 101.623 6.678C101.295 6.34884 101.049 6.01968 100.802 5.60824C100.515 5.15564 100.187 4.74419 99.8994 4.33274C99.8173 4.25045 99.7762 4.16816 99.6531 4.08587C99.4889 3.96244 99.3658 3.88015 99.3658 3.67443C99.3658 3.59214 99.2426 3.4687 99.1606 3.4687C98.9143 3.50985 98.709 3.34527 98.5038 3.30412C98.1754 3.26298 97.8471 3.22183 97.5187 3.22183C97.2314 3.22183 97.1493 3.01611 96.9441 2.89267C96.903 2.85153 96.903 2.81038 96.903 2.76924C96.903 2.48122 96.903 2.19321 96.903 1.82291C96.9851 1.78176 97.1082 1.74062 97.2314 1.69947C98.0934 1.57604 98.9553 1.49375 99.7762 1.24688C99.8173 1.24688 99.8583 1.20573 99.9404 1.20573C100.31 1.20573 100.679 1.24688 101.049 1.24688C101.213 1.24688 101.418 1.20573 101.582 1.16459C102.198 1.04115 102.855 1.0823 103.47 1.04115C103.881 1.04115 104.291 1.00001 104.702 0.958862C104.948 0.958862 105.194 1.00001 105.441 1.00001C105.646 1.00001 105.851 1.00001 106.097 1.04115C106.303 1.04115 106.508 1.0823 106.713 1.0823C106.877 1.41146 106.959 1.69947 106.959 2.02863C106.959 2.19321 106.918 2.31664 106.754 2.35779C106.097 2.60466 105.441 2.85153 104.784 3.0984C104.456 3.22183 104.456 3.26298 104.497 3.63328C104.579 4.04473 104.907 4.33274 105.112 4.6619C105.317 5.03221 105.564 5.32022 105.728 5.73167C105.769 5.81396 105.81 5.9374 105.892 6.01968C106.097 6.26655 106.303 6.51342 106.467 6.80144C106.631 7.1306 106.836 7.45976 107 7.83006C107.165 8.15922 107.37 8.48838 107.657 8.73525C107.657 8.73525 107.698 8.77639 107.739 8.77639C107.78 8.73525 107.821 8.6941 107.862 8.6941C108.027 8.52952 108.191 8.36494 108.314 8.20036C108.396 8.11807 108.519 7.99464 108.56 7.87121C108.806 7.37747 109.176 7.00716 109.504 6.55457C109.833 6.10197 110.243 5.69053 110.571 5.19679C110.818 4.78534 111.187 4.41503 111.515 4.00358C111.598 3.9213 111.639 3.83901 111.68 3.75672C111.721 3.71557 111.721 3.63328 111.721 3.59214C111.68 3.42756 111.598 3.26298 111.515 3.13954C111.228 2.81038 110.9 2.56351 110.407 2.60466C110.161 2.6458 109.915 2.52237 109.709 2.39893C109.545 2.2755 109.504 2.15206 109.545 1.94634C109.586 1.82291 109.627 1.69947 109.545 1.57604C109.463 1.37031 109.709 1.16459 109.956 1.20573C110.325 1.28802 110.736 1.37031 111.105 1.4526C111.392 1.49375 111.68 1.49375 111.967 1.49375C112.295 1.49375 112.624 1.49375 112.952 1.49375C113.075 1.49375 113.239 1.4526 113.363 1.4526C113.896 1.4526 114.43 1.49375 114.963 1.49375C115.045 1.49375 115.086 1.49375 115.169 1.49375C115.661 1.41146 116.113 1.32917 116.605 1.24688C116.892 1.20573 117.139 1.24688 117.426 1.28802C117.631 1.28802 117.754 1.49375 117.796 1.69947C117.796 1.9052 117.837 2.11092 117.878 2.31664C117.919 2.48122 117.878 2.60466 117.713 2.6458C117.344 2.81038 116.975 2.93382 116.605 3.05725C116.154 3.22183 115.702 3.42756 115.251 3.59214C114.799 3.75672 114.512 4.12702 114.142 4.41503C113.732 4.70305 113.486 5.15564 113.198 5.56709C113.075 5.69053 113.075 5.9374 112.952 6.06083C112.911 6.10197 112.87 6.18426 112.829 6.18426C112.583 6.34884 112.46 6.63686 112.295 6.88373C112.131 7.1306 111.926 7.37747 111.721 7.62434C111.351 8.03579 110.941 8.44723 110.695 8.94097C110.653 8.98212 110.612 9.02326 110.571 9.06441C110.325 9.35242 110.079 9.59929 109.833 9.88731C109.668 10.0519 109.545 10.2988 109.381 10.5045C109.463 10.6691 109.545 10.8336 109.668 10.9571C109.792 11.1628 109.956 11.3274 109.956 11.5742C109.956 11.6565 110.038 11.7388 110.079 11.8211C110.161 12.0268 110.243 12.2737 110.407 12.4383C110.571 12.6029 110.653 12.8086 110.736 13.0143C111.023 13.5903 111.269 14.1664 111.68 14.6601C112.008 15.0716 112.254 15.5653 112.542 15.9768C112.993 16.6762 113.321 17.4168 113.855 18.034C113.978 18.1574 114.019 18.322 114.101 18.4866C114.389 18.9392 114.717 19.2683 115.169 19.5564C115.21 19.5975 115.292 19.6386 115.292 19.6798C115.62 20.1324 116.072 20.4204 116.441 20.7907C116.646 20.9964 116.934 21.2022 117.303 21.0376C117.344 21.0376 117.426 21.0376 117.467 21.0787C117.713 21.2433 118.001 21.3256 118.329 21.4079C118.657 21.4902 118.781 21.6547 118.74 22.025C118.74 22.1073 118.699 22.2308 118.699 22.3131C118.699 22.3954 118.74 22.4365 118.781 22.5188C118.699 22.6422 118.616 22.7245 118.534 22.8479C118.452 22.9714 118.329 22.9714 118.247 22.9302C118.124 22.8479 118.001 22.8479 117.878 22.8891C117.508 22.9714 117.139 23.0537 116.769 23.0948C116.482 23.136 116.154 23.0948 115.866 23.0948C115.456 23.0948 115.086 23.0948 114.676 23.0948C114.101 23.0948 113.486 23.0537 112.911 23.0125C112.665 23.0125 112.418 23.0125 112.172 23.0125C112.131 23.0125 112.049 23.0125 112.008 23.0125C111.515 23.0125 110.982 23.0125 110.489 23.0125C110.12 23.0125 109.75 23.0948 109.381 23.0948C109.176 23.0948 108.971 23.0537 108.765 23.0125C108.724 23.0125 108.683 22.9714 108.642 22.9714C108.519 22.7245 108.396 22.4776 108.314 22.1896C108.273 21.9428 108.437 21.737 108.601 21.5725C108.724 21.4079 108.888 21.449 109.012 21.4902C109.422 21.5725 109.874 21.5313 110.284 21.4902C110.571 21.449 110.859 21.0376 110.859 20.7496C110.859 20.6673 110.859 20.585 110.818 20.5027C110.695 19.9678 110.489 19.4329 110.243 18.9392C110.12 18.7335 109.956 18.5277 109.792 18.322C109.75 18.2809 109.75 18.2397 109.709 18.1986C109.586 17.9517 109.422 17.6637 109.299 17.3757C109.217 17.2522 109.135 17.1288 109.012 17.0877C108.806 17.0054 108.724 16.8819 108.642 16.7174C108.56 16.5116 108.478 16.3059 108.273 16.1002C108.191 16.0179 108.109 15.8533 108.027 15.7299C107.903 15.5242 107.739 15.3184 107.616 15.1127C107.493 14.9481 107.37 14.7835 107.288 14.5778C107.206 14.3721 107 14.2075 106.795 14.0018C106.754 14.0429 106.754 14.0841 106.754 14.1252C106.59 14.4132 106.426 14.7013 106.262 15.0304C106.097 15.3596 105.851 15.6887 105.728 16.059C105.605 16.4705 105.359 16.8819 105.153 17.2934C105.071 17.4168 104.989 17.5403 104.907 17.6225C104.702 17.8694 104.497 18.1574 104.332 18.4454C104.209 18.6923 104.004 18.898 103.84 19.1038C103.758 19.2272 103.635 19.3095 103.511 19.4329C103.347 19.6386 103.183 19.8444 102.978 20.009C102.855 20.1324 102.814 20.2558 102.855 20.4204C102.855 20.4615 102.896 20.5027 102.896 20.585C102.937 20.7084 102.937 20.873 103.019 20.9141C103.183 21.0376 103.347 21.161 103.552 21.161C103.799 21.161 104.045 21.2022 104.291 21.2433C104.497 21.2844 104.661 21.3256 104.825 21.5313C104.907 21.6547 105.071 21.6959 105.153 21.7782C105.235 21.8605 105.317 21.9428 105.317 22.025C105.317 22.2308 105.235 22.3954 105.153 22.5599C105.071 22.7245 104.907 22.7657 104.743 22.8068C104.332 22.9302 103.881 22.9714 103.429 22.9714C102.978 22.9302 102.526 22.9714 102.034 23.0537C101.541 23.1771 101.049 23.2183 100.556 23.2594C99.9815 23.3417 99.3658 23.424 98.7911 23.4651C98.3807 23.5063 97.9702 23.5063 97.5598 23.5063C97.3545 23.5063 97.1082 23.4651 96.903 23.5886C96.8209 23.6297 96.6978 23.5886 96.6157 23.5886C96.5336 23.5474 96.4515 23.5063 96.3284 23.4651C96.1231 23.3417 96 23.2183 96.041 22.9714C96.0821 22.7245 96.041 22.4776 96 22.2308C96 22.1485 96 22.0251 96 21.9428C96.041 21.6959 96.1231 21.6136 96.3694 21.5725C96.4515 21.5725 96.5336 21.5725 96.6157 21.5725C96.6978 21.9016 96.7388 21.9016 96.862 21.9428Z" fill="white"/>
<path d="M89.344 1.45258C89.3029 1.53487 89.2619 1.61716 89.2209 1.65831C89.4671 1.78174 89.4671 1.82289 89.344 2.02861C89.2619 2.15205 89.3029 2.23434 89.385 2.31663C89.4261 2.35777 89.4671 2.35777 89.5492 2.39892C89.4261 2.68693 89.2209 2.85151 88.9335 2.85151C88.482 2.89265 88.0716 3.01609 87.7021 3.26296C87.4559 3.42754 87.2917 3.63326 87.0454 3.83899C86.9223 3.92128 86.7991 4.04471 86.676 4.127C86.5939 4.20929 86.4708 4.29158 86.4297 4.37387C86.3066 4.53845 86.1834 4.66189 86.0193 4.74418C85.9372 4.78532 85.8961 4.86761 85.8551 4.90875C85.7319 5.07333 85.5677 5.19677 85.4446 5.36135C85.3215 5.48478 85.1983 5.60822 85.0752 5.73165C84.7468 6.10196 84.4185 6.51341 84.0901 6.92485C83.8438 7.21287 83.6386 7.50088 83.3923 7.7889C83.1871 8.07691 82.9818 8.40607 82.7766 8.69409C82.243 9.39355 81.7094 10.093 81.1758 10.8336C81.0937 10.9571 81.0116 11.0393 80.9295 11.1628C80.8885 11.2451 80.8474 11.3274 80.8885 11.4096C80.9706 11.6565 81.0937 11.8622 81.2169 12.1091C81.2579 12.1503 81.34 12.1914 81.381 12.1914C81.5452 12.2737 81.6684 12.356 81.6684 12.5617C81.7094 12.7674 81.8326 12.8909 81.9967 13.0143C82.3662 13.3023 82.6945 13.5903 82.6945 14.1252C82.6945 14.1664 82.6945 14.2075 82.6945 14.2486C82.9408 14.4544 83.0639 14.7424 83.1871 14.9893C83.3102 15.195 83.3513 15.483 83.5565 15.6476C83.6386 15.7299 83.6386 15.8944 83.7207 16.0179C83.8849 16.347 84.1311 16.6351 84.3774 16.9231C84.5826 17.1288 84.7468 17.3757 84.911 17.6225C84.9931 17.746 85.1162 17.8694 85.2804 17.9517C85.4857 18.034 85.6088 18.2397 85.7319 18.4043C85.8551 18.5689 85.8961 18.8569 86.1424 18.9392C86.1424 18.9392 86.1834 18.9803 86.1834 19.0215C86.2245 19.3095 86.4297 19.5152 86.5939 19.7209C86.9223 20.0912 87.2506 20.4615 87.6201 20.8318C87.7842 20.9964 87.9074 21.2021 88.1537 21.2433C88.2768 21.2844 88.3589 21.4079 88.482 21.4901C88.7693 21.6959 89.1388 21.7782 89.4671 21.8605C89.6724 21.9016 89.8365 22.025 89.9597 22.1896C90.0828 22.3542 90.247 22.4776 90.3701 22.6422C90.2881 22.8068 90.1239 22.8068 89.9186 22.8479C89.5082 22.9302 89.1388 22.9302 88.7283 22.9714C88.6052 22.9714 88.441 22.8891 88.3178 22.9302C88.1537 23.0125 87.9484 22.9714 87.7842 22.9714H87.7432C87.1685 22.8068 86.5529 22.9714 85.9782 22.9714C85.4857 22.9714 84.9521 22.9714 84.4595 22.9714C83.8849 22.9714 83.3513 23.1359 82.7766 23.2182C82.5714 23.2594 82.3251 23.2594 82.1199 23.3005C82.0378 23.3005 81.9557 23.3417 81.8325 23.3417C81.6684 23.3828 81.5042 23.3828 81.34 23.424C81.0116 23.4651 80.8474 23.3005 80.6012 23.1771C80.437 23.0948 80.2728 22.9714 80.2728 22.7656C80.2317 22.4776 80.1086 22.2308 80.1497 21.9427C80.1907 21.7782 80.2318 21.6959 80.3549 21.6547C80.437 21.6136 80.5601 21.6136 80.6422 21.6136C80.8474 21.6136 81.0937 21.6547 81.2989 21.6547C81.6273 21.6547 81.8736 21.5313 82.0788 21.2844L82.1199 21.2433C82.202 21.1198 82.1609 20.4204 82.0788 20.3381C81.8736 20.0501 81.6684 19.8032 81.5042 19.5152C81.381 19.3095 81.2579 19.1037 81.1348 18.898C80.8064 18.4866 80.5601 18.034 80.3549 17.5814C80.2318 17.2522 79.9855 16.9642 79.9034 16.5939C79.8213 16.2647 79.6571 16.059 79.4519 15.8533C79.3287 15.7299 79.2056 15.5653 79.1235 15.4418C79.0825 15.4007 79.0414 15.3596 79.0414 15.3184C79.0414 15.1538 78.9593 15.0304 78.8362 14.9481C78.7951 14.907 78.7951 14.907 78.7541 14.8658C78.6309 14.6601 78.5899 14.619 78.4257 14.7835C78.3026 14.907 78.0973 14.9481 78.0563 15.1538C78.0563 15.2361 77.9332 15.2773 77.8921 15.3184C77.769 15.4007 77.6869 15.483 77.6458 15.6064C77.5637 15.7299 77.5638 15.9767 77.3585 16.0179C77.3175 16.0179 77.3585 16.1002 77.3175 16.1413C77.2764 16.2236 77.2764 16.2647 77.1943 16.3059C77.0712 16.3882 77.0302 16.4705 77.0302 16.5939C77.0302 16.6762 76.9481 16.7996 76.866 16.8819C76.7018 17.2111 76.5376 17.4991 76.2092 17.7048C76.004 17.8283 75.963 18.0751 75.8398 18.2808C75.7167 18.5277 75.5935 18.7746 75.4704 19.0215C75.4704 19.0626 75.4294 19.1037 75.3883 19.1037C75.1831 19.186 75.1831 19.4329 75.0189 19.5563C74.7726 19.8032 74.6905 20.1324 74.4853 20.3792C74.4442 20.4204 74.4032 20.5027 74.3622 20.5027C74.239 20.5027 74.198 20.6261 74.198 20.7084C74.1569 21.0376 73.9927 21.3256 73.9517 21.6959C73.9517 21.737 73.9517 21.737 73.9927 21.8193C74.7726 21.7782 75.5525 21.8193 76.3324 21.9839C76.4555 22.2308 76.4555 22.5599 76.4555 22.8479C76.4555 23.0125 76.3734 23.1359 76.2092 23.1771C75.8398 23.3417 75.4704 23.424 75.0599 23.4651C74.5674 23.5062 74.1159 23.4651 73.6233 23.4651C73.336 23.4651 73.0487 23.3828 72.7614 23.424C72.433 23.424 72.1046 23.424 71.7762 23.4651C71.53 23.5062 71.2426 23.4651 70.9964 23.4651C70.7911 23.4651 70.627 23.5063 70.4217 23.5063C70.3807 23.5063 70.2986 23.5474 70.2575 23.5063C69.8881 23.424 69.5187 23.5474 69.1493 23.5474C68.862 23.5474 68.5336 23.4651 68.2463 23.424C68.1642 23.3828 68.0821 23.2594 68 23.1771C68.1231 22.8891 68.2873 22.6422 68.2463 22.313C68.2463 22.2719 68.3284 22.1896 68.3694 22.1485C68.6567 21.9839 68.9851 21.8605 69.2724 21.6959C69.3956 21.6547 69.5598 21.6547 69.6829 21.6136C69.9702 21.5313 70.2986 21.4901 70.5038 21.2844C70.7911 21.0376 71.1195 20.8318 71.3658 20.4615C71.4889 20.2969 71.6531 20.2147 71.7762 20.0501C72.0225 19.8032 72.1867 19.4741 72.433 19.2683C72.5972 19.1449 72.6382 18.898 72.8024 18.7746C73.0897 18.5277 73.2129 18.1574 73.4591 17.8694C73.5412 17.7871 73.6644 17.6637 73.7054 17.5814C73.8285 17.4168 73.9106 17.2111 74.0338 17.0465C74.1569 16.8408 74.3211 16.6351 74.4853 16.4293C74.9778 15.8122 75.4704 15.195 75.9629 14.5778C76.2092 14.2486 76.4965 13.9606 76.7018 13.6315C76.866 13.3846 77.0302 13.0554 77.1533 12.8086C77.1533 12.7674 77.1533 12.6851 77.1533 12.644C77.0302 12.4383 76.907 12.1914 76.7839 11.9857C76.6607 11.78 76.5376 11.5742 76.4555 11.3274C76.3324 10.9982 76.1271 10.7102 75.8398 10.4633C75.3883 10.0519 75.0599 9.55813 74.8137 9.02324C74.5263 8.48836 74.239 7.95348 73.9517 7.41859C73.8286 7.25401 73.7054 7.08943 73.5823 6.92485C73.336 6.5957 73.1308 6.30768 72.8845 5.97852C72.5561 5.48478 72.2278 4.99104 71.8994 4.45616C71.8173 4.33273 71.7762 4.20929 71.6942 4.08586C71.6121 3.96242 71.571 3.83899 71.4479 3.71555C71.3658 3.59212 71.2837 3.63326 71.1195 3.67441C70.9964 3.67441 70.8732 3.63326 70.7501 3.59212C70.5449 3.50983 70.3396 3.46868 70.1344 3.34525C70.0113 3.26296 69.9292 3.26296 69.806 3.3041C69.6418 3.34525 69.5187 3.3041 69.3545 3.34525C69.1493 3.34525 69.0672 3.18067 68.9441 3.09838C68.862 3.05723 68.8209 2.97494 68.7388 2.97494C68.5336 2.89265 68.3284 2.85151 68.3284 2.60464C68.3284 2.5635 68.2463 2.52235 68.2052 2.48121C68.4926 2.15205 68.7388 1.86403 69.1903 1.82289C69.6008 1.78174 69.9702 1.7406 70.3807 1.78174C70.5449 1.78174 70.709 1.7406 70.8732 1.7406C70.9964 1.7406 71.1195 1.82289 71.2837 1.82289C71.4479 1.82289 71.6121 1.82289 71.7352 1.82289C71.7762 1.82289 71.8173 1.82289 71.8583 1.82289C72.0636 1.98747 72.2688 1.90518 72.433 1.82289C72.6382 1.7406 72.8434 1.7406 73.0487 1.78174C73.295 1.82289 73.5002 1.78174 73.7465 1.78174C73.8286 1.78174 73.9517 1.82289 74.0338 1.82289C74.0748 1.82289 74.1159 1.82289 74.1569 1.82289C74.4853 1.65831 74.8547 1.65831 75.2241 1.65831C75.7167 1.69945 76.2092 1.65831 76.7018 1.49373C77.0301 1.37029 77.3585 1.37029 77.6869 1.37029C77.7279 1.37029 77.769 1.37029 77.769 1.37029C77.8921 1.41144 78.0974 1.288 78.1794 1.45258C78.3026 1.65831 78.4257 1.90518 78.3847 2.15205C78.3026 2.39892 78.3436 2.64579 78.3436 2.89265C78.3436 3.18067 78.3026 3.22181 78.0153 3.3041C77.769 3.42754 77.4406 3.46868 77.1122 3.46868C76.866 3.46868 76.6197 3.59212 76.3734 3.63326C76.3324 3.63326 76.2913 3.67441 76.2913 3.71555C76.2503 3.96242 76.4145 4.127 76.4965 4.33273C76.7428 4.78532 77.0301 5.19677 77.3175 5.64936C77.4817 5.93738 77.6869 6.18425 77.81 6.47226C78.1384 7.21287 78.631 7.87119 79.0004 8.6118C79.0414 8.69409 79.0825 8.77638 79.0825 8.85867C79.2056 9.14668 79.2877 9.47584 79.4108 9.76385C79.4108 9.805 79.4519 9.84614 79.4929 9.88729C79.8213 9.59927 80.1907 9.3524 80.437 9.02324C80.6833 8.65294 80.9706 8.32378 81.2579 7.95348C81.381 7.7889 81.5042 7.58317 81.6273 7.37745C81.6684 7.29516 81.7094 7.17172 81.7094 7.08943C81.7505 6.84257 81.8736 6.63684 82.0788 6.43112C82.3251 6.1431 82.5714 5.85509 82.8177 5.56707C82.8177 5.52593 82.8587 5.52593 82.8587 5.48478C82.9818 5.19677 83.0639 4.90875 83.1871 4.62074C83.3102 4.41502 83.4333 4.20929 83.5565 4.00357C83.6386 3.88013 83.6796 3.7567 83.6386 3.63326C83.5565 3.46868 83.5975 3.22181 83.3102 3.18067C83.2281 3.26296 83.1871 3.34525 83.0639 3.46868C83.0229 3.3041 83.0229 3.22181 82.9818 3.05723C82.6124 3.05723 82.243 3.01609 81.8736 3.05723C81.7505 3.05723 81.6684 3.09838 81.5863 3.01609C81.5042 2.89265 81.381 2.81036 81.381 2.60464C81.381 2.31663 81.4221 2.02861 81.381 1.7406C81.381 1.65831 81.34 1.57602 81.2989 1.49373C81.381 1.37029 81.5042 1.37029 81.6273 1.37029C81.8736 1.41144 82.1609 1.49373 82.4072 1.53487C82.4893 1.53487 82.5303 1.57602 82.6124 1.53487C83.146 1.49373 83.6796 1.49373 84.1722 1.41144C84.7058 1.32915 85.1983 1.32915 85.7319 1.288C86.3476 1.20571 87.0044 1.24686 87.6201 1.24686C87.9895 1.24686 88.3589 1.24686 88.7283 1.24686C88.9746 1.41144 89.0977 1.45258 89.344 1.45258Z" fill="white"/>
<path d="M48.7652 6.43114C49.0525 6.55457 49.0525 6.55457 49.0525 6.88373C49.0525 6.96602 49.0935 7.04831 49.1346 7.1306C49.2577 7.29518 49.3398 7.50091 49.463 7.66549C49.504 7.70663 49.545 7.74778 49.504 7.78892C49.463 8.03579 49.6682 8.15922 49.7092 8.40609C49.7503 8.61182 49.8324 8.81754 49.9555 8.98212C50.1197 9.22899 50.1197 9.51701 50.0786 9.80502C50.1607 9.88731 50.2428 9.9696 50.3249 10.093C50.2428 10.1753 50.1607 10.2165 50.0786 10.2576C50.2018 10.2576 50.2428 10.2576 50.2839 10.2576C50.4481 10.5456 50.5712 10.8336 50.6533 11.1217C50.7354 11.4097 50.8175 11.6565 50.8996 11.9446C50.9406 12.1091 50.8996 12.3149 51.0227 12.4794C51.0638 12.5206 51.0227 12.6029 50.9817 12.6852C51.0227 12.7263 51.1048 12.7675 51.1869 12.8086C51.1869 12.8909 51.1458 13.0143 51.1048 13.1378C51.3511 13.1789 51.3921 13.3435 51.4742 13.5492C51.5974 13.7961 51.6794 14.0429 51.8026 14.2898C51.8436 14.4132 51.9668 14.5367 51.8847 14.7013C51.8847 14.7424 51.8847 14.7836 51.9257 14.8247C52.0489 14.9481 52.0489 15.1539 52.172 15.2773C52.2951 15.4007 52.3362 15.5653 52.3362 15.7299C52.3772 16.1002 52.6235 16.4293 52.7056 16.7585C52.7466 16.8819 52.8287 16.9642 52.8698 17.0465C53.034 17.3345 53.1161 17.6226 53.2392 17.9106C53.2802 18.034 53.3623 18.1574 53.4034 18.2809C53.5676 18.5277 53.7318 18.8158 53.8959 19.0626C53.978 19.1861 54.0601 19.3506 54.1422 19.5152C54.3885 20.0501 54.799 20.4615 55.2094 20.8319C55.3736 20.9553 55.4967 21.0376 55.743 21.0376C56.1124 21.0376 56.4408 21.0787 56.8102 21.1199C57.0154 21.161 57.1386 21.2844 57.2617 21.449C57.3438 21.5725 57.3438 21.7782 57.508 21.8605C57.549 21.8605 57.549 21.9428 57.549 21.9839C57.4259 22.3954 57.0154 22.7657 56.5639 22.8068C56.2766 22.848 55.9482 22.8891 55.6609 22.9302C55.3736 22.9714 55.0863 22.9302 54.799 22.9302C54.6758 22.9302 54.5527 22.8891 54.4706 23.0125C54.3885 23.0948 54.2654 23.0125 54.2654 22.8891C54.2654 22.848 54.3064 22.7657 54.3064 22.6834C53.937 22.7245 53.5676 22.5188 53.1982 22.6834C53.1161 22.7245 52.9929 22.6422 52.9108 22.6422C52.4593 22.6422 52.0078 22.6834 51.5153 22.6834C51.2279 22.6834 50.9406 22.6834 50.6533 22.6834C50.2839 22.6834 49.9145 22.7245 49.545 22.7245C49.0525 22.7657 48.5599 22.8068 48.0263 22.8068C47.739 22.8068 47.5338 22.6422 47.4106 22.3954C47.3696 22.3131 47.2875 22.1896 47.2875 22.1073C47.1644 21.737 47.3696 21.4079 47.6159 21.161C47.6569 21.1199 47.739 21.1199 47.8211 21.1199C48.0263 21.1199 48.2726 21.2022 48.4778 21.0787C48.5599 21.0376 48.642 20.9964 48.7241 20.9964C49.1346 20.9964 49.463 20.873 49.8734 20.7907C49.9966 20.7496 50.0786 20.7084 50.1607 20.7084C50.2839 20.1324 50.0376 19.6798 49.7913 19.2272C49.6271 18.898 49.463 18.61 49.3809 18.2397C49.3398 18.1163 49.2577 17.9929 49.1756 17.8694C49.1346 17.8283 49.0935 17.7871 49.0935 17.746C49.1346 17.3757 48.8062 17.0877 48.7652 16.7585C48.7652 16.5939 48.6831 16.4293 48.642 16.3059C48.601 16.1002 48.5189 15.9356 48.3547 15.771C48.3137 15.7299 48.2316 15.6476 48.1905 15.6476C47.9442 15.6065 47.6569 15.5653 47.4106 15.5242C47.3286 15.5242 47.2465 15.5242 47.2054 15.483C47.1233 15.4419 47.0412 15.4007 47.0002 15.5242C46.7129 15.5242 46.4255 15.6476 46.1793 15.4419C46.0972 15.4007 45.974 15.4007 45.8509 15.4007C45.7688 15.4007 45.6867 15.4007 45.5636 15.4007C45.5225 15.4419 45.4815 15.483 45.4404 15.5653C45.3994 15.483 45.3994 15.4419 45.3994 15.3596C45.2352 15.3596 45.1121 15.3596 44.9479 15.3596C44.9068 15.3596 44.8247 15.3596 44.8247 15.4007C44.7837 15.6065 44.6195 15.5653 44.5374 15.483C44.4143 15.4007 44.2911 15.4419 44.168 15.483C44.0038 15.5242 43.8807 15.5653 43.7165 15.5242C43.5523 15.483 43.3471 15.5653 43.1418 15.5653C43.0598 15.5653 42.9777 15.5653 42.9366 15.5653C42.7724 15.6476 42.6493 15.771 42.5262 15.7299C42.362 15.6887 42.1978 15.8122 41.9926 15.7299C41.9105 15.6887 41.7873 15.7299 41.7052 15.771C41.5411 15.8533 41.4179 15.8122 41.3358 15.6476C41.1306 16.059 40.9664 16.4705 40.8843 16.9231C40.8433 17.0877 40.7612 17.2934 40.7201 17.458C40.5559 17.8694 40.3507 18.2397 40.2276 18.6512C40.1455 18.8158 40.1865 19.0626 40.1865 19.2683C40.1865 19.4329 40.2686 19.5152 40.3918 19.6387C40.5149 19.7621 40.638 19.8444 40.7201 20.009C40.9664 20.3793 41.3769 20.5438 41.7873 20.6673C41.9926 20.7496 42.2799 20.8319 42.403 21.0376C42.4441 21.1199 42.6082 21.2022 42.7314 21.2022C42.8956 21.2433 42.9366 21.3256 42.9366 21.449C42.8956 21.5725 42.8545 21.6548 42.6903 21.6548C42.6493 21.6548 42.6082 21.6548 42.5672 21.6959C42.6082 21.8193 42.6493 21.9016 42.6903 22.0251C42.6903 22.0251 42.7314 22.0662 42.6903 22.0662C42.5262 22.2308 42.6083 22.4365 42.6083 22.6422C42.6083 22.6834 42.4441 22.7657 42.362 22.7657C42.1567 22.7657 41.9515 22.7245 41.7463 22.7245C41.4179 22.7245 41.0895 22.7245 40.7612 22.7245C40.5559 22.7245 40.3097 22.6834 40.1044 22.6834C40.0634 22.6834 40.0223 22.6834 39.9813 22.6834C39.735 22.6834 39.4477 22.7245 39.2014 22.7245C38.832 22.7657 38.4626 22.7657 38.0932 22.8068C37.7238 22.8068 37.3954 22.8891 37.026 22.7657C36.9028 22.6834 36.6976 22.7245 36.5334 22.7245C36.123 22.7245 35.7535 22.6834 35.3841 22.6422C35.0558 22.6011 34.6863 22.6422 34.358 22.6422C34.0296 22.6422 33.9475 22.5599 34.0296 22.2308C34.0707 22.0662 34.1117 21.9428 34.1117 21.7782C34.1117 21.6548 34.1527 21.6136 34.2759 21.5725C34.7684 21.449 35.261 21.3256 35.6715 21.0376C35.7125 20.9964 35.7946 20.9964 35.8767 20.9964C35.9998 20.9553 36.123 20.9553 36.2051 20.9141C36.3692 20.8319 36.4924 20.7084 36.6566 20.6673C36.7797 20.6673 36.9028 20.585 36.9439 20.5027C37.067 20.297 37.3133 20.1324 37.3954 19.8855C37.3954 19.8444 37.4364 19.8032 37.4775 19.8032C37.8059 19.4741 37.929 19.0215 38.0932 18.61C38.1342 18.4866 38.2163 18.4043 38.2574 18.322C38.3805 18.1163 38.4626 17.9517 38.4215 17.7048C38.4215 17.6226 38.4626 17.5403 38.5036 17.458C38.6268 17.17 38.791 16.9231 38.9141 16.6762C38.9551 16.5939 38.9962 16.5116 38.9962 16.4293C38.9962 16.1825 39.0783 15.9768 39.2014 15.771C39.3656 15.483 39.4477 15.1539 39.5298 14.8247C39.5708 14.6601 39.6529 14.5367 39.694 14.3721C39.7761 14.1252 39.8582 13.8784 39.9403 13.6315C39.9813 13.5492 40.0223 13.4669 40.0634 13.4258C40.2276 13.2612 40.3097 13.0555 40.3507 12.8497C40.3918 12.6029 40.5149 12.356 40.597 12.1503C40.8433 11.6154 41.1306 11.0805 41.2948 10.5045C41.3769 10.2576 41.5411 10.0519 41.6642 9.84617C41.7873 9.55815 41.9105 9.27014 41.9515 8.98212C41.9926 8.73525 42.0747 8.48838 42.2388 8.28266C42.4851 7.91236 42.6082 7.50091 42.7314 7.08946C42.8135 6.80144 42.8545 6.51343 42.9366 6.26656C43.0187 6.06083 43.0598 5.81396 43.1829 5.64939C43.4292 5.27908 43.5113 4.82649 43.6755 4.45618C43.7165 4.37389 43.7575 4.2916 43.7986 4.20931C44.0038 3.96244 44.168 3.63329 44.209 3.34527C44.2911 3.01611 44.5374 2.76924 44.4964 2.39894C44.4964 2.35779 44.5374 2.2755 44.5785 2.23436C44.7016 2.06978 44.8658 1.9052 44.8658 1.65833C44.8658 1.57604 44.9889 1.49375 45.071 1.45261C45.2352 1.41146 45.3994 1.37032 45.6046 1.32917C45.933 1.28803 46.2203 1.45261 46.5076 1.41146C46.5487 1.41146 46.5897 1.45261 46.6308 1.49375C46.6718 1.49375 46.6718 1.5349 46.6718 1.57604C47.0002 1.82291 47.0823 2.19321 47.2054 2.52237C47.2465 2.60466 47.2465 2.64581 47.2875 2.7281C47.3286 2.89268 47.3696 3.05726 47.4106 3.22184C47.4106 3.26298 47.4106 3.34527 47.4517 3.34527C47.698 3.59214 47.7801 3.9213 47.9032 4.25046C47.9853 4.49733 48.0674 4.70305 48.1495 4.90878C48.1495 4.94992 48.2316 4.99107 48.1905 4.99107C48.1084 5.23794 48.3137 5.40252 48.3958 5.5671C48.4368 5.69053 48.5599 5.81396 48.4778 5.97854C48.4778 6.01969 48.5189 6.10198 48.601 6.14312C48.8473 6.18427 48.8473 6.3077 48.7652 6.43114ZM44.8658 6.51343C44.7837 6.67801 44.7426 6.7603 44.7016 6.84259C44.6195 7.04831 44.5374 7.25404 44.4553 7.45976C44.4553 7.50091 44.4143 7.50091 44.4143 7.54205C44.4964 7.66549 44.3732 7.78892 44.3322 7.87121C44.209 8.20037 44.0859 8.48838 43.9628 8.81754C43.8807 9.10556 43.7986 9.39357 43.7165 9.68159C43.6754 9.84617 43.5113 9.9696 43.5934 10.1342C43.5934 10.1342 43.5523 10.1753 43.5523 10.2165C43.4702 10.3399 43.3471 10.5045 43.265 10.6279C43.2239 10.6691 43.2239 10.7102 43.2239 10.7925C43.2239 10.9571 43.265 11.1217 43.2239 11.2862C43.1829 11.4508 43.1419 11.5743 43.1008 11.7388C43.0187 12.068 42.8545 12.356 42.8956 12.6852C42.8956 12.7263 42.8545 12.7675 42.8545 12.7675C42.7724 12.932 42.6493 13.0966 42.6493 13.3023C42.6493 13.4258 42.6082 13.5492 42.5672 13.7138C42.6493 13.7961 42.7724 13.8784 42.8956 13.9607C42.9366 13.7549 42.9366 13.5904 42.9366 13.4258C43.1829 13.3846 43.3471 13.4669 43.4292 13.6315C43.5113 13.5904 43.5523 13.5492 43.6344 13.4669C43.6755 13.5492 43.7165 13.6315 43.7575 13.7549C43.8807 13.5081 44.0449 13.6315 44.127 13.6315C44.2501 13.5492 44.4143 13.4669 44.4143 13.4669C44.5374 13.5904 44.6606 13.5492 44.8247 13.5081C44.9889 13.4669 45.1942 13.4669 45.3583 13.4669C45.6457 13.4669 45.933 13.5081 46.1793 13.5081C46.1793 13.4258 46.1793 13.3846 46.1793 13.3023C46.6718 13.2612 47.1233 13.1789 47.6159 13.3435C47.6159 13.3023 47.6569 13.22 47.6159 13.1789C47.4517 12.7675 47.2465 12.3149 47.0823 11.9034C46.9181 11.5743 46.795 11.2451 46.6308 10.9571C46.5487 10.8336 46.4666 10.7102 46.3845 10.5868C46.2614 10.3399 46.1382 10.093 46.0151 9.80502C45.8919 9.47586 45.7278 9.1467 45.6457 8.81754C45.4815 8.28266 45.3994 7.70663 45.1121 7.25404C45.1121 7.21289 45.071 7.21289 45.071 7.17175C45.2352 6.96602 45.071 6.7603 44.8658 6.51343Z" fill="white"/>
<path d="M6.4039 16.1413C6.60913 16.3059 6.56808 16.4705 6.48599 16.6762C6.36285 16.9642 6.23971 17.2522 6.15762 17.5402V17.5814C5.91134 17.6225 5.95239 17.9105 5.82925 18.034C5.70611 18.1574 5.70611 18.2808 5.78821 18.4043C5.58298 18.5277 5.54193 18.5689 5.62402 18.7746C5.70611 18.9392 5.70611 19.1037 5.66507 19.2683C5.62402 19.2272 5.58298 19.2272 5.54193 19.2272C5.50088 19.2683 5.50088 19.3506 5.45984 19.3918C5.29565 19.7621 5.29565 20.0912 5.45984 20.4615C5.54193 20.6261 5.58298 20.7907 5.66507 20.9553C5.70611 21.0376 5.78821 21.1198 5.8703 21.1198C6.36285 21.3256 6.85541 21.4902 7.38901 21.449C7.55319 21.449 7.67633 21.5313 7.71737 21.6959C7.79947 22.025 7.84051 22.313 7.79947 22.6422C7.79947 22.7245 7.67633 22.8068 7.63528 22.8068C7.51214 22.8479 7.30691 22.8068 7.26587 22.8891C7.18377 23.0125 7.01959 22.8479 6.9375 23.0125C6.9375 23.0125 6.9375 23.0125 6.89645 23.0125C6.89645 22.7245 6.65017 22.9302 6.52704 22.8479C6.4039 22.7656 6.23971 22.8068 6.07553 22.8068C5.91134 22.8068 5.74716 22.8068 5.58298 22.8068C5.09042 22.8068 4.59787 22.8891 4.14636 22.8479C3.77695 22.8068 3.44858 22.9302 3.12021 22.8068C3.07916 22.8068 2.99707 22.8068 2.95602 22.8068C2.75079 22.8068 2.54556 22.8891 2.34033 22.8479C2.25824 22.8068 2.17615 22.8479 2.09405 22.8891C1.76569 23.0537 1.47836 22.9302 1.14999 22.9302C0.862671 22.8891 0.534302 22.8891 0.246979 22.8891C0.205933 22.8891 0.12384 22.8479 0.041748 22.8479C0.041748 22.4365 0.041748 21.9839 0.041748 21.5724C0.329071 21.4902 0.575348 21.4079 0.821625 21.3256C1.02686 21.2433 1.23209 21.1198 1.35522 20.9141C1.39627 20.8318 1.51941 20.7495 1.6015 20.6673C1.72464 20.5027 1.88882 20.3792 1.97092 20.1324C2.01196 19.9678 2.1351 19.8444 2.17615 19.7209C2.21719 19.6386 2.29929 19.5563 2.29929 19.4741C2.25824 19.3095 2.29929 19.2272 2.46347 19.2272C2.46347 19.0626 2.6687 19.0215 2.75079 18.898C2.87393 18.6923 2.95602 18.5277 3.03812 18.322C3.16125 18.034 3.24335 17.7048 3.32544 17.4168C3.36648 17.2934 3.44858 17.2522 3.57172 17.2522C3.61276 17.1699 3.65381 17.0465 3.61276 16.9642C3.57172 16.7173 3.77695 16.5528 3.81799 16.3059C4.18741 16.0179 4.22845 15.5653 4.43368 15.1538C4.55682 14.907 4.72101 14.7012 4.84415 14.4955C4.88519 14.4544 4.92624 14.3721 4.88519 14.3309C4.84415 14.2075 4.92624 14.0841 4.92624 14.0018C4.96728 13.6726 5.21356 13.508 5.41879 13.3023C5.54193 13.1377 5.66507 13.0143 5.70611 12.8086C5.74716 12.6029 5.82925 12.3971 5.91134 12.1914C5.91134 12.1091 5.99344 12.068 5.99344 12.0268C6.03448 11.9445 6.07553 11.8622 6.11658 11.78C6.19867 11.5331 6.23971 11.3274 6.32181 11.0805C6.36285 10.9982 6.44494 10.9571 6.48599 10.8748C6.60913 10.7102 6.77331 10.5868 6.73227 10.3399V10.2987C6.97854 9.96958 7.01959 9.55813 7.10168 9.14668C7.14273 9.06439 7.22482 8.9821 7.30691 8.85867C7.389 8.77638 7.43005 8.65294 7.4711 8.57065C7.55319 8.28264 7.59424 7.95348 7.67633 7.66547C7.75842 7.33631 7.92261 7.00715 8.04574 6.71913C8.08679 6.5957 8.12784 6.47226 8.16888 6.38997C8.20993 6.26654 8.25097 6.1431 8.29202 6.06081C8.33307 5.97853 8.33307 5.89624 8.33307 5.81395C8.33307 5.7728 8.33307 5.69051 8.37411 5.64937C8.5383 5.48479 8.5383 5.23792 8.66144 5.07334C8.74353 4.9499 8.74353 4.78532 8.74353 4.66189C8.70248 4.33273 8.90771 4.127 9.03085 3.88013C9.11294 3.71556 9.27713 3.55098 9.23608 3.34525C9.23608 3.30411 9.23608 3.26296 9.27713 3.22182C9.5234 2.9338 9.44131 2.60464 9.44131 2.27548C9.44131 2.23434 9.44131 2.15205 9.44131 2.06976C9.72863 2.02861 9.72863 1.78174 9.76968 1.57602C9.81073 1.3703 9.89282 1.28801 10.0981 1.24686C10.057 1.45259 10.016 1.65831 9.97491 1.82289H10.016C10.098 1.61717 10.1391 1.41144 10.2212 1.16457C10.3033 0.917702 10.5085 0.835412 10.7548 0.999992C10.7958 0.999992 10.7958 1.08228 10.8369 1.04114C11.1242 0.958847 11.3705 1.20572 11.6988 1.08228C11.6988 1.16457 11.7399 1.20572 11.7399 1.28801C11.7809 1.41144 11.7809 1.49373 11.822 1.61717C11.9041 1.82289 12.0272 2.02861 11.9041 2.23434C11.9862 2.27548 12.1093 2.27548 12.1504 2.31663C12.2735 2.64579 12.3966 2.9338 12.5198 3.26296C12.6429 3.67441 12.766 4.08586 12.9713 4.49731C13.0123 4.5796 13.0123 4.70303 13.0534 4.78532C13.2176 5.23792 13.3817 5.64937 13.5459 6.10196C13.587 6.1431 13.587 6.22539 13.587 6.26654C13.5459 6.55455 13.7512 6.80142 13.8743 7.04829C13.9974 7.33631 14.1206 7.62432 14.2848 7.87119C14.49 8.28264 14.5721 8.69409 14.7363 9.10554C14.8184 9.27012 14.8594 9.4347 14.9825 9.59928C15.0646 9.76386 15.1057 9.88729 15.1057 10.0519C15.1057 10.093 15.1467 10.1342 15.1467 10.1753C15.352 10.4633 15.434 10.7925 15.5982 11.1216C15.7214 11.4508 15.8856 11.7388 16.0087 12.068C16.296 12.6851 16.5833 13.3023 16.8296 13.9195C16.9528 14.2075 17.1169 14.4955 17.2401 14.8247C17.3632 15.0715 17.4453 15.3184 17.4864 15.6064C17.5274 15.8122 17.6095 16.0179 17.6505 16.2236C17.6916 16.347 17.6916 16.4293 17.7326 16.5939C18.102 16.7996 18.102 17.2522 18.1841 17.6225C18.3894 17.6637 18.5125 17.8283 18.5946 18.034C18.6767 18.2809 18.7177 18.4866 18.8409 18.7334C18.8819 18.8569 19.0461 18.9392 19.1692 19.0215C19.1282 19.1037 19.1282 19.186 19.2513 19.2683C19.2924 19.5152 19.2924 19.7209 19.3334 19.9266C19.4155 20.297 19.6208 20.585 19.9081 20.7907C20.1133 20.9553 20.3185 20.9141 20.5648 20.9553C20.9342 20.9964 21.3036 20.9964 21.6731 21.0376C22.2477 21.0787 22.4119 21.5724 22.2477 22.025C22.1656 22.2719 21.9193 22.3953 21.6731 22.4776C21.3036 22.6011 20.9342 22.6422 20.5648 22.6422C19.9902 22.6422 19.4155 22.6422 18.8409 22.8068C18.6767 22.8479 18.5125 22.8479 18.3483 22.8479C18.061 22.8068 17.7737 22.8068 17.5274 22.8479H17.4864C16.8296 22.6834 16.1729 22.9302 15.5161 22.9714C14.9415 22.9714 14.4079 23.1771 13.8743 23.1771C13.7512 23.1771 13.587 23.2182 13.4638 23.1771C13.2176 23.1359 13.0944 22.9714 13.0944 22.7245C13.0944 22.6422 13.1355 22.5599 13.0944 22.5188C12.9302 22.3131 12.9302 22.0662 13.0123 21.8193C13.0534 21.737 13.0123 21.6959 13.0123 21.6136C13.4638 21.3667 13.9153 21.2844 14.4079 21.161C14.5721 21.1198 14.7773 21.0787 14.9415 21.0376C15.1057 20.9964 15.1467 20.9141 15.1467 20.7495C15.1467 20.5438 15.1057 20.3792 14.9825 20.2147C14.8184 19.9678 14.6952 19.7209 14.531 19.4329C14.531 19.4329 14.49 19.3918 14.531 19.3918C14.5721 19.0626 14.4079 18.7334 14.3668 18.4043C14.3258 18.2397 14.2437 18.034 14.1616 17.8694C13.9974 17.6637 13.8743 17.4168 13.7922 17.1699C13.6691 16.7585 13.5049 16.3059 13.3407 15.8944C13.2586 15.6887 13.1355 15.5653 12.8892 15.5653C12.6019 15.5653 12.3556 15.5653 12.0683 15.5653C11.6578 15.5653 11.2063 15.483 10.7958 15.483C10.3443 15.483 9.93387 15.3596 9.48236 15.483C9.40027 15.5241 9.31817 15.483 9.19503 15.483C8.90771 15.483 8.57934 15.483 8.29202 15.483C7.88156 15.483 7.4711 15.5653 7.06064 15.6887C6.9375 15.7299 6.81436 15.771 6.77331 15.8944C6.65017 15.9767 6.52704 16.059 6.4039 16.1413ZM7.67633 13.7549C8.25097 13.6726 8.82562 13.5903 9.40027 13.508C9.81073 13.4669 10.2212 13.4258 10.6316 13.4669C11.4115 13.5492 12.1504 13.4258 12.9713 13.4258C12.9302 13.2612 12.8892 13.1377 12.8481 13.0554C12.684 12.7674 12.5608 12.5206 12.3966 12.2737C12.2735 12.0268 12.0683 11.8622 11.9451 11.6154C11.7809 11.2039 11.5347 10.8336 11.4936 10.381C11.4936 10.2576 11.4526 10.1342 11.4115 10.0519C11.1242 9.72271 11.0832 9.31126 10.919 8.94096C10.7137 8.57065 10.5906 8.1592 10.3033 7.83005C10.1801 7.66547 10.0981 7.50089 10.1391 7.29516C10.1391 7.13058 10.098 6.966 10.016 6.80142C9.97491 6.84257 9.93387 6.88371 9.93387 6.92486C9.81073 7.25402 9.68759 7.58318 9.56445 7.91233C9.56445 7.95348 9.5234 7.99462 9.5234 7.99462C9.31817 8.1592 9.31817 8.28264 9.48236 8.48836C9.40027 8.89981 9.19503 9.22897 9.15399 9.64042C9.11294 9.84615 9.0719 10.0519 8.9898 10.2576C8.90771 10.4222 8.82562 10.5868 8.86667 10.7925C8.90771 10.9982 8.74353 11.2039 8.57934 11.2862C8.57934 11.3685 8.62039 11.4919 8.57934 11.5742C8.5383 11.7388 8.41516 11.9034 8.33307 12.1091C8.16888 12.5206 8.0047 12.932 7.84051 13.3435C7.79947 13.3846 7.75842 13.4258 7.71737 13.508C7.71737 13.5492 7.67633 13.5492 7.67633 13.5903C7.55319 13.5903 7.63528 13.6315 7.67633 13.7549Z" fill="white"/>
<path d="M30.4041 10.9982C30.7324 11.0805 30.9787 11.1628 31.266 11.0393C31.3071 10.9982 31.3892 10.9982 31.4713 10.9982C31.6765 10.9571 31.8407 10.9571 32.0459 10.9159C32.087 10.9159 32.128 10.8748 32.128 10.8748C32.3743 10.9982 32.4974 10.8336 32.6616 10.7102C32.9079 10.5868 33.4004 10.7102 33.6057 10.9159C33.6878 10.9982 33.6878 11.1216 33.6467 11.2451C33.5646 11.4508 33.3594 11.6565 33.3594 11.9034C33.3594 11.9857 33.1952 12.068 33.1131 12.1914C33.0721 12.2325 33.031 12.2737 32.99 12.3148C32.8668 12.7263 32.5795 13.0554 32.2922 13.3846C31.9638 13.7961 31.6355 14.2075 31.3481 14.619L31.3071 14.6601C30.9787 14.907 30.7735 15.2773 30.4451 15.5653C30.2399 15.7299 30.0757 15.9767 29.9115 16.1413C29.7884 16.2647 29.6652 16.3882 29.5421 16.4705C29.3779 16.5939 29.2548 16.7585 29.1316 16.9642C29.0496 17.0876 28.9675 17.2111 28.8443 17.2934C28.6801 17.458 28.4749 17.6225 28.4339 17.8694C28.4339 17.8694 28.4339 17.9105 28.3928 17.9105C28.1055 17.9517 28.1055 18.2808 27.9003 18.4454C27.7771 18.5277 27.695 18.61 27.5719 18.6923C27.4488 18.7334 27.3256 18.898 27.2025 19.0215C27.0793 18.9392 26.9152 18.8569 26.751 18.7746C26.8331 18.5689 26.6689 18.2397 26.9973 18.1574C26.9973 18.1163 26.9973 18.0751 26.9562 18.0751C26.8331 17.9517 26.6689 17.8283 26.8741 17.6225C26.792 17.4991 26.8741 17.4991 26.9562 17.4168C27.0383 17.2934 27.0383 17.1288 27.0383 16.9642C27.0383 16.7585 27.0383 16.5528 27.0383 16.347C27.0793 16.347 27.1614 16.3882 27.2435 16.3882C27.2435 16.347 27.2435 16.2647 27.2435 16.2236C27.0793 16.1002 27.1204 15.9767 27.1614 15.8533C27.2025 15.6476 27.2846 15.483 27.3256 15.2773C27.4077 15.0304 27.4488 14.7835 27.4488 14.5367C27.4488 14.3309 27.4488 14.1252 27.4488 13.9606C27.4488 13.8372 27.5719 13.7549 27.654 13.6726C27.695 13.6315 27.7361 13.5903 27.7361 13.5492C27.695 13.508 27.654 13.4669 27.6129 13.4669C27.3667 13.4669 27.1614 13.508 26.9152 13.508C26.8331 13.508 26.751 13.5492 26.6278 13.508C26.4226 13.4669 26.1763 13.508 25.9711 13.508C25.6017 13.5492 25.2323 13.5492 24.8629 13.5492C24.7397 13.5492 24.6166 13.5492 24.4524 13.508C24.2882 13.508 24.1651 13.4257 24.083 13.2612C24.0419 13.1377 23.9188 13.0143 24.083 12.8497C24.124 12.8086 24.0419 12.644 24.083 12.644C24.2472 12.5206 24.2061 12.3971 24.2061 12.2325C24.2061 12.1914 24.2882 12.1091 24.3703 12.068C24.3293 12.0268 24.3293 11.9857 24.2882 11.9034C24.2882 11.9034 24.2882 11.8622 24.3293 11.8622C24.4934 11.7388 24.5755 11.6154 24.5755 11.4096C24.5755 11.2862 24.6576 11.2039 24.7397 11.0805C24.8218 10.9159 24.8629 10.7513 24.9449 10.5868C24.9449 10.5456 24.986 10.5045 24.9449 10.4633C24.9449 10.3399 24.9449 10.2164 25.027 10.093C25.1091 9.96958 25.0681 9.76385 25.1091 9.64042C25.1091 9.55813 25.1502 9.43469 25.1912 9.39355C25.3144 9.31126 25.3144 9.18782 25.3965 9.10554C25.4785 9.02325 25.4785 8.89981 25.4785 8.81752C25.4785 8.65294 25.5196 8.52951 25.6427 8.36493C25.7659 8.28264 25.8069 8.07691 25.848 7.91233C25.9301 7.70661 25.9711 7.45974 26.0121 7.25401C26.0532 7.17172 26.0121 7.04829 26.0121 6.88371C26.2174 6.71913 26.1763 6.43112 26.2584 6.18425C26.2584 6.1431 26.2584 6.10196 26.2995 6.06081C26.3816 5.93738 26.3405 5.89623 26.2584 5.7728C26.1353 5.64936 26.1763 5.52593 26.2995 5.44364C26.5047 5.36135 26.6689 5.15562 26.9562 5.23791C26.9973 5.23791 27.1204 5.15562 27.2025 5.07333C27.2025 5.15562 27.2025 5.23791 27.2025 5.3202C27.5309 5.3202 27.9003 5.3202 28.2286 5.3202C28.6391 5.36135 29.0906 5.40249 29.5011 5.44364C29.9115 5.48478 30.322 5.44364 30.6914 5.48478C31.0608 5.52593 31.4302 5.44364 31.7586 5.40249C31.9228 5.36135 32.128 5.44364 32.2922 5.44364C32.3743 5.44364 32.4974 5.48478 32.5795 5.48478C32.7437 5.52593 32.9079 5.56707 33.031 5.64936C33.1131 5.69051 33.1952 5.85509 33.1542 5.89623C33.031 6.10196 33.0721 6.38997 32.8258 6.55455C32.7027 6.63684 32.6206 6.76027 32.6206 6.92485C32.6206 7.04829 32.5385 7.17172 32.4153 7.25401C32.2101 7.37745 32.087 7.58317 32.0049 7.83004C31.9228 8.07691 31.8817 8.32378 31.7586 8.48836C31.6355 8.6118 31.6355 8.77638 31.5123 8.89981C31.3892 8.9821 31.3071 9.10553 31.266 9.22897C31.225 9.39355 31.1019 9.47584 31.0198 9.55813C30.8966 9.64042 30.8556 9.76385 30.8556 9.92843C30.8556 9.96958 30.8556 10.093 30.8145 10.093C30.7324 10.1342 30.6914 10.1753 30.7324 10.2576C30.7324 10.2987 30.6914 10.3399 30.6914 10.3399C30.4451 10.6279 30.5683 10.8748 30.4041 10.9982Z" fill="white"/>
</svg>
