<svg width="160" height="48" viewBox="0 0 160 48" fill="none" xmlns="http://www.w3.org/2000/svg">
<path opacity="0.2" d="M130.475 28.3257C130.475 28.2148 130.475 28.1593 130.475 28.1039C130.475 27.7714 130.475 27.7714 130.751 27.6605C130.806 27.6605 130.862 27.6051 130.917 27.5496C130.972 27.4943 131.028 27.4388 131.083 27.3834C131.249 27.716 131.525 27.716 131.802 27.6605C131.968 27.6605 132.134 27.6051 132.299 27.6051C132.797 27.6051 133.239 27.3281 133.571 26.94L133.626 26.8846C134.29 26.4967 134.677 25.7762 135.285 25.2774C135.451 25.1665 135.561 25.0003 135.672 24.8339C135.949 24.446 136.225 24.1689 136.557 23.8918C136.833 23.6146 137.054 23.3375 136.998 22.9496C136.998 22.6725 137.11 22.3399 137.442 22.2846C137.939 22.1737 138.215 21.7858 138.437 21.3977C139.1 20.1785 139.874 19.0145 140.592 17.8507C140.759 17.629 140.87 17.3519 140.98 17.0747C141.091 16.7423 141.312 16.4652 141.588 16.188C141.864 15.9662 142.031 15.6892 142.197 15.3567C142.252 15.135 142.252 15.0241 142.086 14.8579C141.698 14.359 141.312 13.8048 140.87 13.306C140.648 13.0289 140.427 12.6964 140.206 12.4193C139.709 11.865 139.376 11.1999 138.989 10.5903C138.548 9.9252 138.104 9.26014 137.663 8.59506C137.442 8.26253 137.165 8.04083 136.888 7.76371C136.446 7.32033 136.115 6.87694 135.782 6.32273C135.396 5.71307 134.954 5.15884 134.566 4.60461C134.456 4.49376 134.4 4.38291 134.235 4.27207C134.013 4.10581 133.848 3.99496 133.848 3.71785C133.848 3.60701 133.682 3.44073 133.571 3.44073C133.239 3.49616 132.963 3.27447 132.686 3.21904C132.244 3.16362 131.802 3.10819 131.359 3.10819C130.972 3.10819 130.862 2.83108 130.585 2.66481C130.53 2.60939 130.53 2.55396 130.53 2.49855C130.53 2.11058 130.53 1.72262 130.53 1.22382C130.641 1.16839 130.806 1.11298 130.972 1.05755C132.134 0.891286 133.295 0.78044 134.4 0.447902C134.456 0.447902 134.511 0.392472 134.622 0.392472C135.119 0.392472 135.616 0.447902 136.115 0.447902C136.336 0.447902 136.612 0.392472 136.833 0.337056C137.663 0.17078 138.548 0.22621 139.376 0.17078C139.93 0.17078 140.482 0.115364 141.035 0.0599365C141.367 0.0599365 141.698 0.115364 142.031 0.115364C142.307 0.115364 142.583 0.115364 142.915 0.17078C143.192 0.17078 143.468 0.22621 143.744 0.22621C143.965 0.669594 144.076 1.05755 144.076 1.50093C144.076 1.72262 144.02 1.88889 143.8 1.94432C142.915 2.27685 142.031 2.60939 141.146 2.94193C140.704 3.10819 140.704 3.16362 140.759 3.66242C140.87 4.21665 141.312 4.60461 141.588 5.04799C141.864 5.5468 142.197 5.93476 142.417 6.48899C142.473 6.59984 142.528 6.76611 142.638 6.87694C142.915 7.20948 143.192 7.54202 143.413 7.92999C143.634 8.37337 143.91 8.81676 144.131 9.31556C144.353 9.75894 144.629 10.2023 145.016 10.5349C145.016 10.5349 145.071 10.5903 145.126 10.5903C145.182 10.5349 145.237 10.4794 145.292 10.4794C145.514 10.2577 145.735 10.036 145.901 9.81436C146.011 9.70351 146.177 9.53725 146.232 9.37099C146.564 8.70591 147.062 8.2071 147.504 7.59745C147.947 6.98779 148.499 6.43357 148.941 5.7685C149.274 5.21427 149.771 4.71545 150.213 4.16122C150.324 4.05039 150.38 3.93954 150.435 3.8287C150.49 3.77327 150.49 3.66242 150.49 3.60701C150.435 3.38531 150.324 3.16362 150.213 2.99735C149.826 2.55396 149.384 2.22142 148.72 2.27685C148.389 2.33227 148.057 2.16601 147.78 1.99973C147.559 1.83347 147.504 1.66719 147.559 1.39009C147.614 1.22382 147.67 1.05755 147.559 0.891286C147.449 0.614164 147.78 0.337056 148.113 0.392472C148.61 0.503318 149.163 0.614164 149.66 0.72501C150.047 0.78044 150.435 0.78044 150.822 0.78044C151.263 0.78044 151.707 0.78044 152.148 0.78044C152.314 0.78044 152.535 0.72501 152.702 0.72501C153.42 0.72501 154.139 0.78044 154.857 0.78044C154.968 0.78044 155.023 0.78044 155.135 0.78044C155.797 0.669594 156.406 0.558748 157.069 0.447902C157.456 0.392472 157.788 0.447902 158.175 0.503318C158.451 0.503318 158.617 0.78044 158.673 1.05755C158.673 1.33467 158.729 1.61178 158.784 1.88889C158.839 2.11058 158.784 2.27685 158.561 2.33227C158.064 2.55396 157.567 2.72024 157.069 2.8865C156.461 3.10819 155.853 3.38531 155.245 3.60701C154.636 3.8287 154.25 4.3275 153.751 4.71545C153.199 5.10342 152.868 5.71307 152.48 6.2673C152.314 6.43357 152.314 6.76611 152.148 6.93237C152.093 6.98779 152.038 7.09864 151.983 7.09864C151.651 7.32033 151.486 7.7083 151.263 8.04083C151.042 8.37337 150.766 8.70591 150.49 9.03845C149.992 9.59268 149.439 10.1469 149.108 10.812C149.052 10.8674 148.996 10.9228 148.941 10.9782C148.61 11.3662 148.278 11.6987 147.947 12.0867C147.725 12.3084 147.559 12.641 147.338 12.9181C147.449 13.1398 147.559 13.3614 147.725 13.5277C147.892 13.8048 148.113 14.0265 148.113 14.359C148.113 14.4698 148.223 14.5807 148.278 14.6916C148.389 14.9686 148.499 15.3012 148.72 15.5229C148.941 15.7447 149.052 16.0217 149.163 16.2988C149.55 17.0747 149.881 17.8507 150.435 18.5157C150.877 19.07 151.208 19.7351 151.596 20.2894C152.204 21.2315 152.645 22.2291 153.365 23.0604C153.53 23.2267 153.586 23.4484 153.696 23.6701C154.084 24.2798 154.526 24.7231 155.135 25.1111C155.19 25.1665 155.3 25.2219 155.3 25.2774C155.742 25.887 156.351 26.275 156.848 26.7738C157.124 27.0508 157.512 27.3281 158.009 27.1063C158.064 27.1063 158.175 27.1063 158.23 27.1617C158.561 27.3834 158.949 27.4943 159.391 27.6051C159.833 27.716 160 27.9376 159.945 28.4364C159.945 28.5472 159.89 28.7136 159.89 28.8245C159.89 28.9353 159.945 28.9907 160 29.1015C159.89 29.2678 159.778 29.3786 159.667 29.5448C159.557 29.7112 159.391 29.7112 159.281 29.6557C159.115 29.5448 158.949 29.5448 158.784 29.6003C158.285 29.7112 157.788 29.8221 157.29 29.8774C156.903 29.9329 156.461 29.8774 156.074 29.8774C155.521 29.8774 155.023 29.8774 154.471 29.8774C153.696 29.8774 152.868 29.8221 152.093 29.7666C151.762 29.7666 151.429 29.7666 151.098 29.7666C151.042 29.7666 150.932 29.7666 150.877 29.7666C150.213 29.7666 149.495 29.7666 148.831 29.7666C148.334 29.7666 147.835 29.8774 147.338 29.8774C147.062 29.8774 146.786 29.8221 146.508 29.7666C146.453 29.7666 146.398 29.7112 146.343 29.7112C146.177 29.3786 146.011 29.046 145.901 28.6581C145.846 28.3257 146.067 28.0484 146.287 27.8269C146.453 27.6051 146.674 27.6605 146.841 27.716C147.393 27.8269 148.002 27.7714 148.555 27.716C148.941 27.6605 149.329 27.1063 149.329 26.7184C149.329 26.6075 149.329 26.4967 149.274 26.3858C149.108 25.6653 148.831 24.9448 148.499 24.2798C148.334 24.0027 148.113 23.7255 147.892 23.4484C147.835 23.393 147.835 23.3375 147.78 23.2822C147.614 22.9496 147.393 22.5616 147.228 22.1737C147.117 22.0073 147.007 21.8411 146.841 21.7858C146.564 21.6749 146.453 21.5085 146.343 21.287C146.232 21.0097 146.122 20.7327 145.846 20.4556C145.735 20.3447 145.625 20.123 145.514 19.9568C145.347 19.6797 145.126 19.4025 144.961 19.1254C144.795 18.9037 144.629 18.682 144.519 18.4049C144.408 18.1278 144.131 17.9061 143.855 17.629C143.8 17.6844 143.8 17.7399 143.8 17.7952C143.579 18.1832 143.358 18.5712 143.137 19.0145C142.915 19.458 142.583 19.9013 142.417 20.4001C142.252 20.9544 141.92 21.5085 141.643 22.0628C141.533 22.2291 141.422 22.3954 141.312 22.5061C141.035 22.8387 140.759 23.2267 140.537 23.6146C140.371 23.9472 140.095 24.2243 139.874 24.5015C139.764 24.6677 139.598 24.7786 139.431 24.9448C139.21 25.2219 138.989 25.4991 138.713 25.7208C138.548 25.887 138.492 26.0532 138.548 26.275C138.548 26.3303 138.603 26.3858 138.603 26.4967C138.658 26.6629 138.658 26.8846 138.768 26.94C138.989 27.1063 139.21 27.2726 139.486 27.2726C139.819 27.2726 140.15 27.3281 140.482 27.3834C140.759 27.4388 140.98 27.4943 141.201 27.7714C141.312 27.9376 141.533 27.9931 141.643 28.1039C141.753 28.2148 141.864 28.3257 141.864 28.4364C141.864 28.7136 141.753 28.9353 141.643 29.1569C141.533 29.3786 141.312 29.4341 141.091 29.4895C140.537 29.6557 139.93 29.7112 139.321 29.7112C138.713 29.6557 138.104 29.7112 137.442 29.8221C136.778 29.9883 136.115 30.0438 135.451 30.0991C134.677 30.21 133.848 30.3209 133.073 30.3762C132.521 30.4317 131.968 30.4317 131.415 30.4317C131.138 30.4317 130.806 30.3762 130.53 30.5426C130.419 30.5979 130.254 30.5426 130.143 30.5426C130.032 30.4871 129.922 30.4317 129.756 30.3762C129.48 30.21 129.314 30.0438 129.369 29.7112C129.424 29.3786 129.369 29.046 129.314 28.7136C129.314 28.6027 129.314 28.4365 129.314 28.3257C129.369 27.9931 129.48 27.8822 129.811 27.8269C129.922 27.8269 130.032 27.8269 130.143 27.8269C130.254 28.2702 130.309 28.2702 130.475 28.3257Z" fill="white"/>
<path opacity="0.2" d="M120.348 0.724988C120.293 0.835834 120.237 0.946681 120.182 1.00211C120.514 1.16837 120.514 1.2238 120.348 1.50091C120.237 1.66719 120.293 1.77803 120.403 1.88888C120.458 1.94429 120.514 1.94429 120.624 1.99972C120.458 2.38768 120.182 2.60937 119.795 2.60937C119.187 2.66479 118.634 2.83106 118.136 3.1636C117.805 3.38529 117.583 3.6624 117.252 3.93952C117.086 4.05037 116.92 4.21663 116.754 4.32748C116.643 4.43832 116.478 4.54917 116.422 4.66001C116.256 4.88171 116.091 5.04798 115.869 5.15883C115.759 5.21425 115.704 5.32509 115.648 5.38051C115.482 5.6022 115.261 5.76848 115.095 5.99017C114.93 6.15643 114.764 6.32271 114.598 6.48897C114.155 6.98778 113.713 7.54201 113.271 8.09623C112.939 8.4842 112.663 8.87215 112.331 9.26012C112.054 9.64807 111.778 10.0915 111.502 10.4794C110.783 11.4216 110.064 12.3638 109.345 13.3614C109.235 13.5277 109.124 13.6385 109.013 13.8048C108.958 13.9157 108.903 14.0265 108.958 14.1373C109.069 14.4698 109.235 14.7469 109.401 15.0795C109.456 15.135 109.566 15.1904 109.622 15.1904C109.843 15.3012 110.009 15.4121 110.009 15.6892C110.064 15.9662 110.23 16.1326 110.451 16.2988C110.949 16.6868 111.391 17.0747 111.391 17.7952C111.391 17.8507 111.391 17.9061 111.391 17.9614C111.723 18.2387 111.888 18.6266 112.054 18.9592C112.22 19.2363 112.276 19.6242 112.552 19.8459C112.663 19.9568 112.663 20.1784 112.773 20.3447C112.994 20.788 113.326 21.1761 113.658 21.564C113.934 21.8411 114.155 22.1737 114.377 22.5061C114.487 22.6725 114.653 22.8387 114.874 22.9496C115.151 23.0604 115.317 23.3375 115.482 23.5592C115.648 23.781 115.704 24.1689 116.035 24.2798C116.035 24.2798 116.091 24.3351 116.091 24.3906C116.146 24.7786 116.422 25.0556 116.643 25.3327C117.086 25.8315 117.528 26.3303 118.026 26.8291C118.247 27.0508 118.413 27.3279 118.745 27.3834C118.91 27.4388 119.021 27.6051 119.187 27.7159C119.574 27.9931 120.071 28.1039 120.514 28.2148C120.79 28.2702 121.011 28.4364 121.177 28.6581C121.343 28.8798 121.564 29.046 121.73 29.2678C121.62 29.4895 121.398 29.4895 121.122 29.5448C120.569 29.6557 120.071 29.6557 119.519 29.7112C119.353 29.7112 119.132 29.6003 118.966 29.6557C118.745 29.7666 118.468 29.7112 118.247 29.7112H118.192C117.417 29.4895 116.588 29.7112 115.814 29.7112C115.151 29.7112 114.432 29.7112 113.768 29.7112C112.994 29.7112 112.276 29.9328 111.502 30.0436C111.225 30.0991 110.893 30.0991 110.617 30.1545C110.506 30.1545 110.396 30.21 110.23 30.21C110.009 30.2654 109.788 30.2654 109.566 30.3209C109.124 30.3762 108.903 30.1545 108.571 29.9883C108.35 29.8774 108.129 29.7112 108.129 29.434C108.073 29.046 107.908 28.7136 107.963 28.3255C108.018 28.1039 108.074 27.9931 108.239 27.9376C108.35 27.8822 108.516 27.8822 108.626 27.8822C108.903 27.8822 109.235 27.9376 109.511 27.9376C109.953 27.9376 110.285 27.7714 110.562 27.4388L110.617 27.3834C110.728 27.2171 110.672 26.275 110.562 26.1641C110.285 25.7762 110.009 25.4436 109.788 25.0556C109.622 24.7786 109.456 24.5013 109.29 24.2243C108.848 23.6701 108.516 23.0604 108.239 22.4508C108.074 22.0073 107.742 21.6194 107.631 21.1206C107.521 20.6772 107.299 20.4001 107.023 20.123C106.857 19.9568 106.691 19.7351 106.581 19.5687C106.525 19.5133 106.47 19.458 106.47 19.4025C106.47 19.1808 106.36 19.0145 106.194 18.9037C106.138 18.8483 106.138 18.8483 106.083 18.7928C105.917 18.5157 105.862 18.4604 105.641 18.682C105.475 18.8483 105.198 18.9037 105.143 19.1808C105.143 19.2916 104.977 19.3471 104.922 19.4025C104.756 19.5133 104.646 19.6242 104.59 19.7904C104.48 19.9568 104.48 20.2892 104.203 20.3447C104.148 20.3447 104.203 20.4556 104.148 20.5109C104.093 20.6218 104.093 20.6772 103.982 20.7327C103.816 20.8435 103.761 20.9544 103.761 21.1206C103.761 21.2315 103.65 21.3977 103.54 21.5085C103.319 21.952 103.097 22.3399 102.655 22.617C102.379 22.7834 102.323 23.1158 102.158 23.3929C101.992 23.7255 101.826 24.058 101.66 24.3906C101.66 24.446 101.605 24.5013 101.549 24.5013C101.273 24.6122 101.273 24.9448 101.052 25.111C100.72 25.4436 100.609 25.887 100.333 26.2195C100.278 26.275 100.222 26.3858 100.167 26.3858C100.001 26.3858 99.946 26.552 99.946 26.6629C99.8906 27.1063 99.6694 27.4943 99.6142 27.9931C99.6142 28.0484 99.6142 28.0484 99.6694 28.1593C100.72 28.1039 101.771 28.1593 102.821 28.381C102.987 28.7136 102.987 29.1569 102.987 29.5448C102.987 29.7666 102.876 29.9328 102.655 29.9883C102.158 30.21 101.66 30.3209 101.107 30.3762C100.444 30.4316 99.8354 30.3762 99.1718 30.3762C98.7848 30.3762 98.3978 30.2654 98.0109 30.3209C97.5685 30.3209 97.1261 30.3209 96.6838 30.3762C96.3521 30.4316 95.965 30.3762 95.6334 30.3762C95.3568 30.3762 95.1358 30.4317 94.8592 30.4317C94.804 30.4317 94.6934 30.4871 94.6381 30.4317C94.1405 30.3209 93.6429 30.4871 93.1453 30.4871C92.7583 30.4871 92.3159 30.3762 91.9289 30.3209C91.8183 30.2654 91.7078 30.0991 91.5972 29.9883C91.763 29.6003 91.9842 29.2678 91.9289 28.8243C91.9289 28.769 92.0395 28.6581 92.0948 28.6027C92.4818 28.381 92.9241 28.2148 93.3111 27.9931C93.4771 27.9376 93.6982 27.9376 93.8641 27.8822C94.2511 27.7714 94.6934 27.7159 94.9698 27.4388C95.3568 27.1063 95.7992 26.8291 96.131 26.3303C96.2968 26.1086 96.518 25.9979 96.6838 25.7762C97.0155 25.4436 97.2367 25.0003 97.5685 24.7231C97.7897 24.5568 97.8449 24.2243 98.0661 24.058C98.4531 23.7255 98.619 23.2267 98.9507 22.8387C99.0613 22.7279 99.2272 22.5616 99.2824 22.4508C99.4483 22.2291 99.5588 21.952 99.7248 21.7303C99.8906 21.4532 100.112 21.1761 100.333 20.8989C100.996 20.0676 101.66 19.2363 102.323 18.4049C102.655 17.9614 103.042 17.5735 103.319 17.1302C103.54 16.7976 103.761 16.3542 103.927 16.0217C103.927 15.9662 103.927 15.8554 103.927 15.8C103.761 15.5229 103.595 15.1904 103.429 14.9133C103.263 14.6362 103.097 14.359 102.987 14.0265C102.821 13.5831 102.545 13.1952 102.158 12.8626C101.549 12.3084 101.107 11.6433 100.775 10.9228C100.388 10.2023 100.001 9.48181 99.6142 8.7613C99.4484 8.53961 99.2824 8.31792 99.1166 8.09623C98.7848 7.65286 98.5084 7.26489 98.1767 6.82151C97.7343 6.15643 97.2921 5.49135 96.8497 4.77086C96.7391 4.6046 96.6838 4.43832 96.5733 4.27206C96.4627 4.10578 96.4074 3.93952 96.2415 3.77325C96.131 3.60698 96.0204 3.6624 95.7992 3.71783C95.6334 3.71783 95.4674 3.6624 95.3016 3.60698C95.0252 3.49614 94.7486 3.44071 94.4722 3.27445C94.3064 3.1636 94.1958 3.1636 94.0299 3.21902C93.8087 3.27445 93.6429 3.21902 93.4217 3.27445C93.1453 3.27445 93.0347 3.05275 92.8689 2.94191C92.7583 2.88648 92.7029 2.77563 92.5923 2.77563C92.3159 2.66479 92.0395 2.60937 92.0395 2.27683C92.0395 2.22142 91.9289 2.16599 91.8736 2.11057C92.2607 1.66719 92.5923 1.27922 93.2005 1.2238C93.7535 1.16837 94.2511 1.11296 94.804 1.16837C95.0252 1.16837 95.2462 1.11296 95.4674 1.11296C95.6334 1.11296 95.7992 1.2238 96.0204 1.2238C96.2415 1.2238 96.4627 1.2238 96.6285 1.2238C96.6838 1.2238 96.7391 1.2238 96.7944 1.2238C97.0709 1.44549 97.3473 1.33465 97.5685 1.2238C97.8449 1.11296 98.1213 1.11296 98.3978 1.16837C98.7296 1.2238 99.006 1.16837 99.3378 1.16837C99.4484 1.16837 99.6142 1.2238 99.7248 1.2238C99.78 1.2238 99.8354 1.2238 99.8906 1.2238C100.333 1.00211 100.831 1.00211 101.328 1.00211C101.992 1.05753 102.655 1.00211 103.319 0.780418C103.761 0.614142 104.203 0.614142 104.646 0.614142C104.701 0.614142 104.756 0.614142 104.756 0.614142C104.922 0.669572 105.199 0.503296 105.309 0.724988C105.475 1.00211 105.641 1.33465 105.586 1.66719C105.475 1.99972 105.53 2.33226 105.53 2.66479C105.53 3.05275 105.475 3.10817 105.088 3.21902C104.756 3.38529 104.314 3.44071 103.871 3.44071C103.54 3.44071 103.208 3.60698 102.876 3.6624C102.821 3.6624 102.766 3.71783 102.766 3.77325C102.71 4.10578 102.932 4.32748 103.042 4.6046C103.374 5.21424 103.761 5.76848 104.148 6.37812C104.369 6.76609 104.646 7.09863 104.811 7.48658C105.254 8.4842 105.917 9.37096 106.415 10.3686C106.47 10.4794 106.525 10.5903 106.525 10.7011C106.691 11.0891 106.802 11.5325 106.968 11.9204C106.968 11.9758 107.023 12.0313 107.078 12.0867C107.521 11.6987 108.018 11.3662 108.35 10.9228C108.682 10.424 109.069 9.98061 109.456 9.48181C109.622 9.26012 109.788 8.983 109.953 8.70589C110.009 8.59504 110.064 8.42877 110.064 8.31792C110.119 7.9854 110.285 7.70827 110.562 7.43117C110.893 7.0432 111.225 6.65524 111.557 6.26728C111.557 6.21186 111.612 6.21186 111.612 6.15643C111.778 5.76847 111.888 5.38051 112.054 4.99255C112.22 4.71544 112.386 4.43832 112.552 4.16121C112.663 3.99494 112.718 3.82868 112.663 3.6624C112.552 3.44071 112.607 3.10817 112.22 3.05275C112.11 3.1636 112.054 3.27445 111.888 3.44071C111.833 3.21902 111.833 3.10817 111.778 2.88648C111.28 2.88648 110.783 2.83106 110.285 2.88648C110.119 2.88648 110.009 2.94191 109.898 2.83106C109.788 2.66479 109.622 2.55394 109.622 2.27683C109.622 1.88888 109.677 1.50091 109.622 1.11296C109.622 1.00211 109.566 0.891264 109.511 0.780418C109.622 0.614142 109.788 0.614142 109.953 0.614142C110.285 0.669572 110.672 0.780418 111.004 0.835834C111.115 0.835834 111.17 0.891264 111.28 0.835834C111.999 0.780418 112.718 0.780418 113.381 0.669572C114.1 0.558726 114.764 0.558726 115.482 0.503296C116.312 0.39245 117.196 0.44788 118.026 0.44788C118.523 0.44788 119.021 0.44788 119.519 0.44788C119.85 0.669572 120.016 0.724988 120.348 0.724988Z" fill="white"/>
<path d="M65.6876 7.43115C66.0746 7.59742 66.0746 7.59742 66.0746 8.0408C66.0746 8.15165 66.1298 8.26249 66.1852 8.37334C66.351 8.59503 66.4616 8.87215 66.6275 9.09384C66.6828 9.14926 66.738 9.20469 66.6828 9.26011C66.6275 9.59264 66.9039 9.75891 66.9592 10.0914C67.0145 10.3686 67.1251 10.6457 67.2909 10.8674C67.5121 11.1999 67.5121 11.5879 67.4567 11.9758C67.5673 12.0867 67.6779 12.1975 67.7885 12.3637C67.6779 12.4746 67.5673 12.5301 67.4567 12.5855C67.6227 12.5855 67.6779 12.5855 67.7333 12.5855C67.9545 12.9734 68.1203 13.3613 68.2309 13.7494C68.3415 14.1374 68.4521 14.4698 68.5626 14.8579C68.6179 15.0795 68.5626 15.3567 68.7285 15.5783C68.7838 15.6338 68.7285 15.7446 68.6732 15.8555C68.7285 15.9108 68.8391 15.9663 68.9496 16.0217C68.9496 16.1326 68.8943 16.2988 68.8391 16.4651C69.1708 16.5205 69.2261 16.7422 69.3366 17.0193C69.5026 17.3519 69.6131 17.6843 69.779 18.0169C69.8342 18.1831 70.0002 18.3495 69.8896 18.5712C69.8896 18.6266 69.8896 18.6821 69.9448 18.7374C70.1108 18.9036 70.1108 19.1809 70.2766 19.3471C70.4424 19.5133 70.4978 19.735 70.4978 19.9567C70.553 20.4555 70.8848 20.8988 70.9954 21.3423C71.0506 21.5085 71.1612 21.6194 71.2165 21.7302C71.4377 22.1182 71.5483 22.5062 71.7141 22.8942C71.7694 23.0604 71.8799 23.2266 71.9353 23.393C72.1565 23.7254 72.3777 24.1135 72.5987 24.4459C72.7093 24.6123 72.8199 24.8339 72.9305 25.0556C73.2623 25.7761 73.8152 26.3303 74.368 26.8292C74.5892 26.9954 74.755 27.1063 75.0868 27.1063C75.5844 27.1063 76.0267 27.1617 76.5243 27.2172C76.8007 27.2725 76.9667 27.4387 77.1325 27.6605C77.2431 27.8268 77.2431 28.1039 77.4643 28.2148C77.5195 28.2148 77.5195 28.3256 77.5195 28.381C77.3537 28.9353 76.8007 29.4341 76.1926 29.4894C75.8056 29.5449 75.3632 29.6003 74.9762 29.6557C74.5892 29.7112 74.2022 29.6557 73.8152 29.6557C73.6492 29.6557 73.4834 29.6003 73.3728 29.7665C73.2623 29.8774 73.0964 29.7665 73.0964 29.6003C73.0964 29.5449 73.1517 29.4341 73.1517 29.3232C72.6541 29.3786 72.1565 29.1015 71.6589 29.3232C71.5483 29.3786 71.3824 29.2677 71.2718 29.2677C70.6636 29.2677 70.0554 29.3232 69.392 29.3232C69.0049 29.3232 68.6179 29.3232 68.2309 29.3232C67.7333 29.3232 67.2357 29.3786 66.738 29.3786C66.0746 29.4341 65.411 29.4894 64.6923 29.4894C64.3053 29.4894 64.0289 29.2677 63.8629 28.9353C63.8077 28.8244 63.6971 28.6581 63.6971 28.5472C63.5313 28.0484 63.8077 27.6051 64.1394 27.2725C64.1947 27.2172 64.3053 27.2172 64.4159 27.2172C64.6923 27.2172 65.024 27.328 65.3004 27.1617C65.411 27.1063 65.5216 27.0508 65.6322 27.0508C66.1852 27.0508 66.6275 26.8846 67.1803 26.7737C67.3463 26.7184 67.4567 26.6629 67.5673 26.6629C67.7333 25.887 67.4015 25.2773 67.0697 24.6677C66.8486 24.2242 66.6275 23.8363 66.5169 23.3375C66.4616 23.1713 66.351 23.005 66.2404 22.8387C66.1852 22.7833 66.1298 22.7278 66.1298 22.6725C66.1852 22.1737 65.7428 21.7857 65.6876 21.3423C65.6876 21.1206 65.577 20.8988 65.5216 20.7326C65.4664 20.4555 65.3558 20.2338 65.1346 20.0121C65.0794 19.9567 64.9688 19.8459 64.9134 19.8459C64.5817 19.7905 64.1947 19.735 63.8629 19.6797C63.7524 19.6797 63.6419 19.6797 63.5865 19.6242C63.4759 19.5688 63.3653 19.5133 63.3101 19.6797C62.9231 19.6797 62.536 19.8459 62.2043 19.5688C62.0937 19.5133 61.9278 19.5133 61.762 19.5133C61.6514 19.5133 61.5408 19.5133 61.375 19.5133C61.3196 19.5688 61.2644 19.6242 61.209 19.735C61.1538 19.6242 61.1538 19.5688 61.1538 19.4579C60.9326 19.4579 60.7668 19.4579 60.5456 19.4579C60.4902 19.4579 60.3797 19.4579 60.3797 19.5133C60.3244 19.7905 60.1032 19.735 59.9927 19.6242C59.8268 19.5133 59.6609 19.5688 59.4951 19.6242C59.2739 19.6797 59.1081 19.735 58.8869 19.6797C58.6657 19.6242 58.3893 19.735 58.1128 19.735C58.0023 19.735 57.8917 19.735 57.8364 19.735C57.6152 19.8459 57.4494 20.0121 57.2835 19.9567C57.0624 19.9012 56.8412 20.0676 56.5648 19.9567C56.4542 19.9012 56.2882 19.9567 56.1776 20.0121C55.9566 20.123 55.7906 20.0676 55.68 19.8459C55.4036 20.4 55.1825 20.9543 55.0719 21.564C55.0166 21.7857 54.9061 22.0628 54.8507 22.2845C54.6295 22.8387 54.3531 23.3375 54.1873 23.8918C54.0767 24.1135 54.1319 24.4459 54.1319 24.723C54.1319 24.9447 54.2425 25.0556 54.4085 25.222C54.5743 25.3882 54.7401 25.499 54.8507 25.7208C55.1825 26.2196 55.7354 26.4411 56.2882 26.6075C56.5648 26.7184 56.9518 26.8292 57.1176 27.1063C57.1729 27.2172 57.394 27.328 57.5599 27.328C57.7811 27.3834 57.8364 27.4942 57.8364 27.6605C57.7811 27.8268 57.7258 27.9377 57.5046 27.9377C57.4494 27.9377 57.394 27.9377 57.3388 27.993C57.394 28.1593 57.4494 28.2701 57.5046 28.4365C57.5046 28.4365 57.5599 28.4918 57.5046 28.4918C57.2835 28.7136 57.3941 28.9906 57.3941 29.2677C57.3941 29.3232 57.1729 29.4341 57.0624 29.4341C56.7858 29.4341 56.5094 29.3786 56.233 29.3786C55.7906 29.3786 55.3483 29.3786 54.9061 29.3786C54.6295 29.3786 54.2979 29.3232 54.0213 29.3232C53.9661 29.3232 53.9107 29.3232 53.8555 29.3232C53.5237 29.3232 53.1367 29.3786 52.805 29.3786C52.3074 29.4341 51.8098 29.4341 51.3122 29.4894C50.8146 29.4894 50.3723 29.6003 49.8747 29.4341C49.7087 29.3232 49.4323 29.3786 49.2111 29.3786C48.6583 29.3786 48.1606 29.3232 47.663 29.2677C47.2208 29.2124 46.7231 29.2677 46.2808 29.2677C45.8385 29.2677 45.7279 29.1569 45.8385 28.7136C45.8938 28.4918 45.9491 28.3256 45.9491 28.1039C45.9491 27.9377 46.0043 27.8822 46.1702 27.8268C46.8337 27.6605 47.4972 27.4942 48.0501 27.1063C48.1054 27.0508 48.216 27.0508 48.3265 27.0508C48.4924 26.9954 48.6583 26.9954 48.7689 26.9399C48.99 26.8292 49.1559 26.6629 49.3771 26.6075C49.5429 26.6075 49.7087 26.4966 49.7641 26.3858C49.9299 26.1087 50.2617 25.887 50.3723 25.5544C50.3723 25.499 50.4275 25.4435 50.4829 25.4435C50.9252 25.0002 51.091 24.3906 51.3122 23.8363C51.3674 23.6701 51.478 23.5592 51.5334 23.4483C51.6992 23.1713 51.8098 22.9495 51.7544 22.617C51.7544 22.5062 51.8098 22.3954 51.865 22.2845C52.031 21.8966 52.2522 21.564 52.418 21.2314C52.4732 21.1206 52.5286 21.0097 52.5286 20.8988C52.5286 20.5664 52.6392 20.2893 52.805 20.0121C53.0262 19.6242 53.1367 19.1809 53.2473 18.7374C53.3026 18.5157 53.4132 18.3495 53.4685 18.1278C53.5791 17.7952 53.6897 17.4627 53.8003 17.1302C53.8555 17.0193 53.9107 16.9084 53.9661 16.8531C54.1873 16.6314 54.2979 16.3543 54.3531 16.0771C54.4085 15.7446 54.5743 15.412 54.6849 15.135C55.0166 14.4144 55.4036 13.6939 55.6248 12.918C55.7354 12.5855 55.9566 12.3084 56.1224 12.0313C56.2882 11.6433 56.4542 11.2553 56.5094 10.8674C56.5648 10.5348 56.6754 10.2023 56.8964 9.92518C57.2282 9.42638 57.394 8.87215 57.5599 8.31792C57.6705 7.92995 57.7258 7.542 57.8364 7.20946C57.9469 6.93234 58.0023 6.5998 58.1681 6.37812C58.4999 5.87931 58.6105 5.26966 58.8317 4.77085C58.8869 4.66 58.9421 4.54916 58.9975 4.43831C59.2739 4.10577 59.4951 3.6624 59.5503 3.27443C59.6609 2.83105 59.9927 2.49851 59.9374 1.99971C59.9374 1.94428 59.9927 1.83344 60.048 1.77802C60.2138 1.55633 60.435 1.33464 60.435 1.0021C60.435 0.891252 60.6008 0.780406 60.7114 0.72499C60.9326 0.66956 61.1538 0.614144 61.4302 0.558714C61.8726 0.503298 62.2595 0.72499 62.6465 0.66956C62.7019 0.66956 62.7571 0.72499 62.8125 0.780406C62.8677 0.780406 62.8677 0.835836 62.8677 0.891252C63.3101 1.22379 63.4207 1.72259 63.5865 2.16597C63.6419 2.27682 63.6419 2.33225 63.6971 2.4431C63.7524 2.66479 63.8077 2.88648 63.8629 3.10817C63.8629 3.16359 63.8629 3.27443 63.9183 3.27443C64.25 3.60697 64.3606 4.05036 64.5264 4.49374C64.637 4.82628 64.7476 5.10339 64.8582 5.38051C64.8582 5.43593 64.9688 5.49136 64.9134 5.49136C64.8029 5.82389 65.0794 6.04559 65.19 6.26728C65.2452 6.43354 65.411 6.5998 65.3004 6.82149C65.3004 6.87692 65.3558 6.98777 65.4664 7.04319C65.7982 7.09862 65.7982 7.26488 65.6876 7.43115ZM60.435 7.542C60.3244 7.76369 60.2691 7.87454 60.2138 7.98538C60.1032 8.26249 59.9927 8.53961 59.8821 8.81672C59.8821 8.87215 59.8268 8.87215 59.8268 8.92757C59.9374 9.09384 59.7715 9.26011 59.7162 9.37095C59.5503 9.81434 59.3845 10.2023 59.2187 10.6457C59.1081 11.0336 58.9975 11.4216 58.8869 11.8096C58.8315 12.0313 58.6105 12.1975 58.7211 12.4192C58.7211 12.4192 58.6657 12.4746 58.6657 12.5301C58.5551 12.6963 58.3893 12.918 58.2787 13.0843C58.2233 13.1398 58.2233 13.1951 58.2233 13.306C58.2233 13.5277 58.2787 13.7494 58.2233 13.971C58.1681 14.1927 58.1129 14.3591 58.0575 14.5807C57.9469 15.0241 57.7258 15.412 57.7811 15.8555C57.7811 15.9108 57.7258 15.9663 57.7258 15.9663C57.6152 16.1879 57.4494 16.4096 57.4494 16.6867C57.4494 16.8531 57.394 17.0193 57.3388 17.241C57.4494 17.3519 57.6152 17.4627 57.7811 17.5736C57.8364 17.2964 57.8364 17.0748 57.8364 16.8531C58.1681 16.7976 58.3893 16.9084 58.4999 17.1302C58.6105 17.0748 58.6657 17.0193 58.7763 16.9084C58.8317 17.0193 58.8869 17.1302 58.9421 17.2964C59.1081 16.9639 59.3292 17.1302 59.4398 17.1302C59.6057 17.0193 59.8268 16.9084 59.8268 16.9084C59.9927 17.0748 60.1586 17.0193 60.3797 16.9639C60.6008 16.9084 60.8774 16.9084 61.0984 16.9084C61.4856 16.9084 61.8726 16.9639 62.2043 16.9639C62.2043 16.8531 62.2043 16.7976 62.2043 16.6867C62.8677 16.6314 63.4759 16.5205 64.1394 16.7422C64.1394 16.6867 64.1947 16.5759 64.1394 16.5205C63.9183 15.9663 63.6419 15.3567 63.4207 14.8024C63.1995 14.3591 63.0337 13.9156 62.8125 13.5277C62.7019 13.3613 62.5913 13.1951 62.4807 13.0289C62.3149 12.6963 62.149 12.3637 61.9831 11.9758C61.8172 11.5324 61.5961 11.0891 61.4856 10.6457C61.2644 9.92518 61.1538 9.14926 60.7668 8.53961C60.7668 8.48418 60.7114 8.48418 60.7114 8.42877C60.9326 8.15165 60.7114 7.87454 60.435 7.542Z" fill="white"/>
<path d="M8.62657 20.5109C8.90301 20.7327 8.84772 20.9544 8.73714 21.2315C8.57127 21.6194 8.4054 22.0073 8.29482 22.3953V22.4508C7.96308 22.5061 8.01837 22.8941 7.8525 23.0604C7.68663 23.2267 7.68663 23.3929 7.79722 23.5592C7.52077 23.7255 7.46548 23.781 7.57605 24.058C7.68663 24.2798 7.68663 24.5013 7.63135 24.7231C7.57605 24.6677 7.52077 24.6677 7.46548 24.6677C7.41018 24.7231 7.41018 24.8339 7.3549 24.8894C7.13373 25.3882 7.13373 25.8315 7.3549 26.3303C7.46548 26.552 7.52077 26.7738 7.63135 26.9955C7.68663 27.1063 7.79722 27.2171 7.9078 27.2171C8.57127 27.4943 9.23476 27.716 9.95353 27.6605C10.1747 27.6605 10.3406 27.7714 10.3958 27.9931C10.5064 28.4364 10.5617 28.8243 10.5064 29.2678C10.5064 29.3786 10.3406 29.4895 10.2853 29.4895C10.1194 29.5448 9.84294 29.4895 9.78765 29.6003C9.67706 29.7666 9.45591 29.5448 9.34533 29.7666C9.34533 29.7666 9.34533 29.7666 9.29004 29.7666C9.29004 29.3786 8.9583 29.6557 8.79244 29.5448C8.62657 29.434 8.4054 29.4895 8.18425 29.4895C7.96308 29.4895 7.74193 29.4895 7.52077 29.4895C6.85729 29.4895 6.19381 29.6003 5.58562 29.5448C5.08802 29.4895 4.6457 29.6557 4.20338 29.4895C4.14809 29.4895 4.03751 29.4895 3.98221 29.4895C3.70577 29.4895 3.42932 29.6003 3.15287 29.5448C3.04229 29.4895 2.93172 29.5448 2.82113 29.6003C2.37882 29.8221 1.99178 29.6557 1.54946 29.6557C1.16244 29.6003 0.720119 29.6003 0.33309 29.6003C0.277801 29.6003 0.16722 29.5448 0.0566406 29.5448C0.0566406 28.9907 0.0566406 28.381 0.0566406 27.8267C0.44367 27.716 0.775409 27.6051 1.10715 27.4943C1.3836 27.3834 1.66005 27.2171 1.82591 26.94C1.8812 26.8291 2.04708 26.7183 2.15765 26.6075C2.32352 26.3858 2.54468 26.2195 2.65527 25.887C2.71055 25.6653 2.87642 25.4991 2.93172 25.3327C2.987 25.2219 3.09759 25.111 3.09759 25.0003C3.04229 24.7786 3.09759 24.6677 3.31874 24.6677C3.31874 24.446 3.59519 24.3906 3.70577 24.2243C3.87164 23.9472 3.98221 23.7255 4.0928 23.4484C4.25866 23.0604 4.36925 22.617 4.47983 22.2291C4.53511 22.0628 4.6457 22.0073 4.81157 22.0073C4.86685 21.8965 4.92215 21.7303 4.86685 21.6194C4.81157 21.2868 5.08802 21.0652 5.1433 20.7327C5.64092 20.3447 5.6962 19.7351 5.97265 19.1808C6.13852 18.8483 6.35969 18.5711 6.52556 18.294C6.58084 18.2387 6.63613 18.1278 6.58084 18.0723C6.52556 17.9061 6.63613 17.7399 6.63613 17.629C6.69141 17.1856 7.02316 16.9638 7.29961 16.6868C7.46548 16.465 7.63135 16.2988 7.68663 16.0217C7.74193 15.7447 7.8525 15.4674 7.96308 15.1904C7.96308 15.0795 8.07367 15.0241 8.07367 14.9686C8.12895 14.8578 8.18425 14.7469 8.23954 14.6362C8.35012 14.3036 8.4054 14.0265 8.51599 13.694C8.57127 13.5831 8.68185 13.5277 8.73714 13.4169C8.90301 13.1952 9.12417 13.0289 9.06889 12.6964V12.6409C9.40062 12.1975 9.45591 11.6433 9.56649 11.0891C9.62178 10.9782 9.73236 10.8674 9.84294 10.7011C9.95351 10.5903 10.0088 10.424 10.0641 10.3131C10.1747 9.92519 10.23 9.4818 10.3406 9.09385C10.4511 8.65046 10.6723 8.20708 10.8382 7.81911C10.8934 7.65285 10.9487 7.48657 11.004 7.37573C11.0593 7.20947 11.1146 7.04319 11.1699 6.93234C11.2252 6.82151 11.2252 6.71067 11.2252 6.59982C11.2252 6.54439 11.2252 6.43354 11.2805 6.37813C11.5016 6.15644 11.5016 5.8239 11.6675 5.60221C11.7781 5.43593 11.7781 5.21424 11.7781 5.04798C11.7228 4.60459 11.9992 4.32747 12.1651 3.99493C12.2757 3.77325 12.4969 3.55156 12.4416 3.27444C12.4416 3.21902 12.4416 3.16359 12.4969 3.10818C12.8286 2.72021 12.718 2.27683 12.718 1.83344C12.718 1.77802 12.718 1.66718 12.718 1.55633C13.105 1.5009 13.105 1.16837 13.1603 0.891257C13.2156 0.614148 13.3262 0.503303 13.6027 0.447873C13.5474 0.724995 13.4921 1.0021 13.4368 1.22379H13.4921C13.6026 0.946687 13.6579 0.669565 13.7685 0.337027C13.8791 0.0044914 14.1555 -0.106355 14.4873 0.115337C14.5425 0.115337 14.5425 0.226181 14.5979 0.170764C14.9849 0.0599144 15.3167 0.392457 15.7589 0.226181C15.7589 0.337027 15.8142 0.392457 15.8142 0.503303C15.8695 0.669565 15.8695 0.780411 15.9248 0.946687C16.0354 1.22379 16.2012 1.5009 16.0354 1.77802C16.146 1.83344 16.3118 1.83344 16.3672 1.88887C16.533 2.33225 16.6988 2.72021 16.8648 3.16359C17.0306 3.71782 17.1964 4.27205 17.473 4.82628C17.5282 4.93713 17.5282 5.10339 17.5836 5.21424C17.8047 5.8239 18.0258 6.37813 18.247 6.98777C18.3023 7.04319 18.3023 7.15404 18.3023 7.20947C18.247 7.59742 18.5235 7.92996 18.6893 8.2625C18.8551 8.65046 19.0211 9.03842 19.2423 9.37096C19.5187 9.92519 19.6293 10.4794 19.8504 11.0336C19.961 11.2553 20.0163 11.477 20.1821 11.6987C20.2927 11.9204 20.348 12.0867 20.348 12.3084C20.348 12.3638 20.4033 12.4193 20.4033 12.4746C20.6798 12.8626 20.7903 13.306 21.0114 13.7493C21.1774 14.1928 21.3986 14.5807 21.5644 15.0241C21.9514 15.8554 22.3384 16.6868 22.6702 17.5181C22.8361 17.9061 23.0572 18.294 23.2231 18.7375C23.3889 19.0699 23.4995 19.4025 23.5549 19.7904C23.6101 20.0676 23.7207 20.3447 23.7759 20.6218C23.8313 20.788 23.8313 20.8989 23.8865 21.1206C24.3841 21.3977 24.3841 22.0073 24.4947 22.5061C24.7712 22.5616 24.9371 22.7834 25.0476 23.0604C25.1582 23.393 25.2135 23.6701 25.3794 24.0025C25.4346 24.1689 25.6558 24.2798 25.8216 24.3906C25.7664 24.5013 25.7664 24.6122 25.9322 24.7231C25.9876 25.0556 25.9876 25.3327 26.0428 25.6098C26.1534 26.1087 26.43 26.4967 26.817 26.7738C27.0934 26.9955 27.3698 26.94 27.7015 26.9955C28.1991 27.0508 28.6967 27.0508 29.1944 27.1063C29.9684 27.1617 30.1896 27.8267 29.9684 28.4364C29.8578 28.769 29.5261 28.9352 29.1944 29.046C28.6967 29.2124 28.1991 29.2678 27.7015 29.2678C26.9275 29.2678 26.1534 29.2678 25.3794 29.4895C25.1582 29.5448 24.9371 29.5448 24.7159 29.5448C24.3289 29.4895 23.9419 29.4895 23.6101 29.5448H23.5549C22.6702 29.3233 21.7856 29.6557 20.9009 29.7112C20.1269 29.7112 19.4081 29.9883 18.6893 29.9883C18.5235 29.9883 18.3023 30.0436 18.1364 29.9883C17.8047 29.9328 17.6388 29.7112 17.6388 29.3786C17.6388 29.2678 17.6941 29.1569 17.6388 29.1015C17.4176 28.8245 17.4176 28.4919 17.5282 28.1593C17.5836 28.0484 17.5282 27.9931 17.5282 27.8822C18.1364 27.5496 18.7445 27.4388 19.4081 27.2726C19.6293 27.2171 19.9057 27.1617 20.1269 27.1063C20.348 27.0508 20.4033 26.94 20.4033 26.7183C20.4033 26.4412 20.348 26.2195 20.1821 25.9979C19.961 25.6653 19.7951 25.3327 19.5739 24.9448C19.5739 24.9448 19.5187 24.8894 19.5739 24.8894C19.6293 24.446 19.4081 24.0025 19.3527 23.5592C19.2975 23.3375 19.1869 23.0604 19.0763 22.8387C18.8551 22.5616 18.6893 22.2291 18.5787 21.8965C18.4129 21.3423 18.1917 20.7327 17.9706 20.1784C17.86 19.9013 17.6941 19.7351 17.3624 19.7351C16.9754 19.7351 16.6436 19.7351 16.2566 19.7351C15.7037 19.7351 15.0955 19.6242 14.5425 19.6242C13.9344 19.6242 13.3815 19.458 12.7733 19.6242C12.6627 19.6796 12.5521 19.6242 12.3863 19.6242C11.9992 19.6242 11.5569 19.6242 11.1699 19.6242C10.617 19.6242 10.0641 19.7351 9.51121 19.9013C9.34533 19.9568 9.17946 20.0121 9.12417 20.1784C8.9583 20.2892 8.79244 20.4001 8.62657 20.5109ZM10.3406 17.2964C11.1146 17.1856 11.8887 17.0747 12.6627 16.9638C13.2156 16.9085 13.7685 16.8531 14.3213 16.9085C15.3719 17.0193 16.3672 16.8531 17.473 16.8531C17.4176 16.6314 17.3624 16.465 17.307 16.3542C17.086 15.9662 16.92 15.6338 16.6988 15.3012C16.533 14.9686 16.2566 14.7469 16.0907 14.4145C15.8695 13.8602 15.5378 13.3614 15.4825 12.7517C15.4825 12.5855 15.4273 12.4193 15.3719 12.3084C14.9849 11.865 14.9297 11.3108 14.7085 10.812C14.4319 10.3131 14.2661 9.75891 13.8791 9.31554C13.7132 9.09385 13.6027 8.87216 13.6579 8.59503C13.6579 8.37334 13.6026 8.15165 13.4921 7.92996C13.4368 7.98539 13.3815 8.0408 13.3815 8.09623C13.2156 8.53962 13.0498 8.983 12.8839 9.42637C12.8839 9.4818 12.8286 9.53722 12.8286 9.53722C12.5521 9.75891 12.5521 9.92519 12.7733 10.2023C12.6627 10.7565 12.3863 11.1999 12.331 11.7541C12.2757 12.0313 12.2204 12.3084 12.1098 12.5855C11.9992 12.8072 11.8887 13.0289 11.944 13.306C11.9992 13.5831 11.7781 13.8602 11.5569 13.971C11.5569 14.0819 11.6122 14.2481 11.5569 14.359C11.5016 14.5807 11.3358 14.8024 11.2252 15.0795C11.004 15.6338 10.7829 16.188 10.5617 16.7423C10.5064 16.7976 10.4511 16.8531 10.3958 16.9638C10.3958 17.0193 10.3406 17.0193 10.3406 17.0747C10.1747 17.0747 10.2853 17.1302 10.3406 17.2964Z" fill="white"/>
<path d="M40.9548 13.5831C41.397 13.6939 41.7288 13.8048 42.1158 13.6384C42.1712 13.5831 42.2817 13.5831 42.3923 13.5831C42.6687 13.5277 42.8899 13.5277 43.1663 13.4722C43.2217 13.4722 43.2769 13.4169 43.2769 13.4169C43.6087 13.5831 43.7745 13.3614 43.9957 13.1951C44.3275 13.0289 44.9909 13.1951 45.2674 13.4722C45.378 13.5831 45.378 13.7493 45.3226 13.9157C45.212 14.1927 44.9356 14.4698 44.9356 14.8024C44.9356 14.9133 44.7145 15.0241 44.6039 15.1903C44.5486 15.2457 44.4933 15.3012 44.438 15.3566C44.2721 15.9109 43.8851 16.3542 43.4981 16.7976C43.0557 17.3519 42.6135 17.9061 42.2264 18.4604L42.1712 18.5157C41.7288 18.8483 41.4524 19.3471 41.01 19.735C40.7336 19.9568 40.5124 20.2892 40.2913 20.5109C40.1254 20.6771 39.9595 20.8435 39.7937 20.9544C39.5725 21.1206 39.4067 21.3423 39.2407 21.6194C39.1303 21.7856 39.0197 21.952 38.8537 22.0628C38.6325 22.2845 38.3561 22.5061 38.3009 22.8387C38.3009 22.8387 38.3009 22.8941 38.2455 22.8941C37.8585 22.9496 37.8585 23.3929 37.5821 23.6146C37.4162 23.7254 37.3056 23.8363 37.1398 23.9472C36.974 24.0025 36.808 24.2242 36.6422 24.3906C36.4762 24.2797 36.2552 24.1689 36.034 24.058C36.1446 23.7809 35.9234 23.3375 36.3658 23.2266C36.3658 23.1713 36.3658 23.1158 36.3104 23.1158C36.1446 22.9496 35.9234 22.7833 36.1998 22.5061C36.0892 22.3399 36.1998 22.3399 36.3104 22.229C36.421 22.0628 36.421 21.8411 36.421 21.6194C36.421 21.3423 36.421 21.0652 36.421 20.788C36.4762 20.788 36.5868 20.8435 36.6974 20.8435C36.6974 20.788 36.6974 20.6771 36.6974 20.6218C36.4762 20.4556 36.5316 20.2892 36.5868 20.123C36.6422 19.8459 36.7528 19.6242 36.808 19.3471C36.9186 19.0145 36.974 18.6819 36.974 18.3495C36.974 18.0723 36.974 17.7952 36.974 17.5735C36.974 17.4073 37.1398 17.2964 37.2504 17.1855C37.3056 17.1302 37.361 17.0747 37.361 17.0193C37.3056 16.9638 37.2504 16.9085 37.195 16.9085C36.8634 16.9085 36.5868 16.9638 36.2552 16.9638C36.1446 16.9638 36.034 17.0193 35.8681 16.9638C35.5916 16.9085 35.2599 16.9638 34.9835 16.9638C34.4859 17.0193 33.9883 17.0193 33.4907 17.0193C33.3248 17.0193 33.1589 17.0193 32.9378 16.9638C32.7166 16.9638 32.5508 16.853 32.4402 16.6314C32.3848 16.465 32.219 16.2988 32.4402 16.0771C32.4954 16.0217 32.3848 15.8 32.4402 15.8C32.6613 15.6338 32.606 15.4674 32.606 15.2457C32.606 15.1903 32.7166 15.0795 32.8272 15.0241C32.7719 14.9686 32.7719 14.9133 32.7166 14.8024C32.7166 14.8024 32.7166 14.7469 32.7719 14.7469C32.993 14.5807 33.1036 14.4145 33.1036 14.1372C33.1036 13.971 33.2142 13.8602 33.3248 13.6939C33.4353 13.4722 33.4907 13.2505 33.6012 13.0289C33.6012 12.9734 33.6565 12.918 33.6012 12.8626C33.6012 12.6963 33.6012 12.53 33.7118 12.3638C33.8223 12.1975 33.7671 11.9204 33.8223 11.7541C33.8223 11.6433 33.8777 11.477 33.9329 11.4216C34.0989 11.3107 34.0989 11.1445 34.2095 11.0336C34.3199 10.9228 34.3199 10.7565 34.3199 10.6457C34.3199 10.424 34.3753 10.2577 34.5411 10.036C34.7071 9.92517 34.7623 9.64805 34.8177 9.42635C34.9282 9.14925 34.9835 8.81671 35.0387 8.53959C35.0941 8.42874 35.0387 8.26248 35.0387 8.04079C35.3152 7.81909 35.2599 7.43114 35.3705 7.0986C35.3705 7.04317 35.3705 6.98775 35.4258 6.93233C35.5364 6.76606 35.4811 6.71063 35.3705 6.54437C35.2047 6.3781 35.2599 6.21183 35.4258 6.10099C35.7022 5.99014 35.9234 5.71302 36.3104 5.82386C36.3658 5.82386 36.5316 5.71302 36.6422 5.60217C36.6422 5.71302 36.6422 5.82386 36.6422 5.93471C37.0845 5.93471 37.5821 5.93471 38.0244 5.93471C38.5773 5.99014 39.1855 6.04556 39.7384 6.10099C40.2913 6.1564 40.8442 6.10099 41.3418 6.1564C41.8394 6.21183 42.337 6.10099 42.7793 6.04556C43.0005 5.99014 43.2769 6.10099 43.4981 6.10099C43.6087 6.10099 43.7745 6.1564 43.8851 6.1564C44.1063 6.21183 44.3275 6.26725 44.4933 6.3781C44.6039 6.43353 44.7145 6.65522 44.6592 6.71063C44.4933 6.98776 44.5486 7.37571 44.2169 7.5974C44.0511 7.70825 43.9405 7.87451 43.9405 8.0962C43.9405 8.26248 43.8299 8.42874 43.6639 8.53959C43.3875 8.70586 43.2217 8.98297 43.1111 9.31551C43.0005 9.64805 42.9451 9.98058 42.7793 10.2023C42.6135 10.3686 42.6135 10.5902 42.4476 10.7565C42.2817 10.8674 42.1712 11.0336 42.1158 11.1999C42.0606 11.4216 41.8947 11.5324 41.7842 11.6433C41.6182 11.7541 41.563 11.9204 41.563 12.1421C41.563 12.1975 41.563 12.3638 41.5076 12.3638C41.397 12.4193 41.3418 12.4746 41.397 12.5855C41.397 12.6408 41.3418 12.6963 41.3418 12.6963C41.01 13.0843 41.176 13.4169 40.9548 13.5831Z" fill="white"/>
<path d="M4.28683 44.3512C4.08389 44.7362 3.81331 45.0429 3.47424 45.2712C3.13516 45.4995 2.74515 45.6137 2.30503 45.6137C1.91668 45.6137 1.57593 45.5452 1.28196 45.4081C0.991329 45.2712 0.751633 45.0852 0.562889 44.8503C0.37331 44.6154 0.231338 44.3414 0.136966 44.0282C0.0459346 43.715 0 43.3839 0 43.0349C0 42.7217 0.0484473 42.415 0.146995 42.1149C0.248049 41.8115 0.395029 41.5391 0.587114 41.2977C0.773353 41.066 1.00302 40.8801 1.27695 40.7398C1.55422 40.5963 1.86406 40.5245 2.20647 40.5245C2.5589 40.5245 2.86123 40.58 3.11177 40.6909C3.36316 40.8018 3.56693 40.9535 3.72394 41.1459C3.87427 41.3287 3.98452 41.544 4.05634 41.7919C4.13151 42.0398 4.16908 42.309 4.16908 42.5994V42.9223H0.973788C0.973788 43.2388 1.00301 43.5258 1.06147 43.7835C1.12411 44.0413 1.22016 44.268 1.35044 44.4638C1.47739 44.653 1.64441 44.803 1.84986 44.914C2.05531 45.0216 2.30002 45.0754 2.58397 45.0754C2.87377 45.0754 3.12347 45.0085 3.33226 44.8748C3.54439 44.7378 3.74817 44.4931 3.94443 44.1408L4.28683 44.3512ZM3.20531 42.5113C3.20531 42.3286 3.18862 42.1328 3.15605 41.9241C3.12682 41.7153 3.07753 41.5407 3.00905 41.4004C2.93472 41.2503 2.83117 41.128 2.70089 41.0335C2.57061 40.9388 2.40273 40.8915 2.19728 40.8915C1.85487 40.8915 1.56925 41.035 1.34042 41.3222C1.11576 41.606 0.992996 42.0023 0.973788 42.5113H3.20531ZM8.02999 43.1229C8.16362 43.2403 8.26634 43.3758 8.33817 43.5291C8.40999 43.6824 8.4459 43.87 8.4459 44.0919C8.4459 44.5388 8.27804 44.9041 7.9423 45.188C7.60908 45.4718 7.1773 45.6137 6.64531 45.6137C6.36469 45.6137 6.10497 45.5632 5.86695 45.462C5.63227 45.3609 5.4644 45.2679 5.36334 45.1831L5.26564 45.5012H4.89817L4.84973 43.8227H5.18713C5.21302 43.95 5.26814 44.0984 5.35333 44.268C5.43851 44.4376 5.54124 44.591 5.6615 44.728C5.78928 44.8716 5.94044 44.9922 6.11666 45.0901C6.29622 45.188 6.49665 45.2369 6.7188 45.2369C7.03198 45.2369 7.27334 45.1668 7.44288 45.0265C7.61241 44.8829 7.69761 44.6791 7.69761 44.4148C7.69761 44.2778 7.6692 44.1603 7.61408 44.0625C7.56231 43.9613 7.4838 43.8733 7.3794 43.7982C7.27167 43.7232 7.13972 43.6563 6.98271 43.5976C6.82654 43.5357 6.65199 43.4753 6.45907 43.4166C6.30624 43.3709 6.13503 43.3089 5.94545 43.2306C5.75921 43.1491 5.59969 43.0544 5.46607 42.9468C5.32242 42.8326 5.20467 42.6923 5.11364 42.526C5.02261 42.3596 4.97667 42.1638 4.97667 41.9388C4.97667 41.544 5.12366 41.2096 5.4168 40.9356C5.71078 40.6616 6.1033 40.5245 6.59604 40.5245C6.78562 40.5245 6.97769 40.549 7.17395 40.5979C7.37272 40.6469 7.5339 40.7056 7.65834 40.7741L7.7711 40.5196H8.12269L8.19618 42.0709H7.85878C7.7903 41.725 7.64164 41.4445 7.41364 41.2291C7.18815 41.0106 6.91256 40.9013 6.58685 40.9013C6.31877 40.9013 6.1083 40.9681 5.95547 41.1019C5.8018 41.2357 5.72496 41.3972 5.72496 41.5864C5.72496 41.7332 5.75003 41.8555 5.79847 41.9534C5.85108 42.0513 5.92792 42.1344 6.02897 42.203C6.12668 42.2682 6.24861 42.3302 6.3956 42.3889C6.54593 42.4444 6.72966 42.508 6.94847 42.5797C7.16394 42.6483 7.36604 42.7282 7.55562 42.8195C7.7477 42.9109 7.90639 43.012 8.02999 43.1229ZM12.1598 45.276C11.9485 45.3641 11.7472 45.4375 11.5585 45.4963C11.3689 45.5582 11.1376 45.5892 10.8637 45.5892C10.4586 45.5892 10.1738 45.4882 10.0068 45.2859C9.84395 45.0804 9.76209 44.7916 9.76209 44.4197V41.1509H8.89103V40.6811H9.78213V39.1788H10.6724V40.6811H12.0571V41.1509H10.6824V43.8472C10.6824 44.0494 10.6891 44.2191 10.7016 44.3561C10.7183 44.4898 10.7543 44.6073 10.8094 44.7085C10.862 44.803 10.9397 44.8748 11.044 44.9238C11.1484 44.9727 11.2887 44.9972 11.465 44.9972C11.5468 44.9972 11.6662 44.9906 11.8224 44.9775C11.9828 44.9613 12.0947 44.9417 12.1598 44.9188V45.276ZM14.3229 44.9238C14.3229 45.1064 14.256 45.263 14.1224 45.3935C13.9921 45.5207 13.8351 45.5844 13.6531 45.5844C13.4702 45.5844 13.3115 45.5207 13.1779 45.3935C13.0476 45.263 12.9824 45.1064 12.9824 44.9238C12.9824 44.741 13.0476 44.5844 13.1779 44.454C13.3115 44.3202 13.4702 44.2533 13.6531 44.2533C13.8351 44.2533 13.9921 44.3202 14.1224 44.454C14.256 44.5844 14.3229 44.741 14.3229 44.9238ZM22.5341 45.4865H17.9491V44.821C18.0376 44.7198 18.1596 44.6073 18.3166 44.4833C18.4727 44.3561 18.659 44.2191 18.8736 44.0722C19.0047 43.9842 19.1609 43.8879 19.3438 43.7835C19.5267 43.6791 19.7338 43.565 19.9651 43.441C20.2232 43.304 20.4203 43.1833 20.5573 43.0789C20.6976 42.9745 20.8245 42.8457 20.9389 42.6923C21.0141 42.5912 21.0742 42.4656 21.1202 42.3155C21.1661 42.1622 21.1886 41.9453 21.1886 41.6647C21.1886 41.2569 21.0792 40.9584 20.8604 40.7692C20.6425 40.5767 20.3618 40.4805 20.0194 40.4805C19.8073 40.4805 19.606 40.5228 19.4173 40.6077C19.2277 40.6893 19.0857 40.8035 18.9914 40.9503C19.0139 41.0547 19.0423 41.1786 19.0749 41.3222C19.1108 41.4656 19.1283 41.606 19.1283 41.743C19.1283 41.8669 19.0766 41.9778 18.9722 42.0757C18.8711 42.1703 18.7191 42.2176 18.517 42.2176C18.3533 42.2176 18.228 42.1622 18.1403 42.0513C18.0518 41.9371 18.0075 41.7854 18.0075 41.5962C18.0075 41.42 18.0568 41.2438 18.1545 41.0677C18.2523 40.8882 18.3926 40.7235 18.5755 40.5735C18.755 40.4266 18.9772 40.3075 19.2411 40.2163C19.505 40.1249 19.7906 40.0792 20.0971 40.0792C20.7661 40.0792 21.2964 40.2293 21.6881 40.5294C22.0823 40.8263 22.2802 41.2243 22.2802 41.7234C22.2802 41.9616 22.2443 42.1785 22.1724 42.3742C22.104 42.57 21.9912 42.7428 21.8342 42.8929C21.6613 43.0594 21.4592 43.2028 21.2279 43.3236C20.9957 43.441 20.6424 43.6057 20.1656 43.8179C19.8825 43.945 19.6177 44.0788 19.373 44.2191C19.1283 44.3561 18.9279 44.4898 18.7709 44.6203H22.5341V45.4865ZM28.0344 40.9159C28.2432 41.1672 28.3985 41.4624 28.4996 41.8017C28.604 42.1377 28.6557 42.49 28.6557 42.8587C28.6557 43.3024 28.5923 43.7003 28.4653 44.0527C28.3384 44.4018 28.1638 44.6921 27.9417 44.9238C27.7129 45.1619 27.4423 45.3413 27.1291 45.462C26.8159 45.5827 26.4668 45.6431 26.0818 45.6431C25.6609 45.6431 25.2859 45.5729 24.9568 45.4326C24.627 45.2924 24.3597 45.0999 24.1543 44.8552C23.9388 44.6008 23.7776 44.3039 23.6699 43.9646C23.5655 43.6221 23.5129 43.2535 23.5129 42.8587C23.5129 42.4705 23.5638 42.1132 23.6649 41.787C23.7693 41.4608 23.9304 41.1656 24.1493 40.9013C24.358 40.6469 24.627 40.4462 24.9568 40.2994C25.2859 40.1526 25.6626 40.0792 26.0868 40.0792C26.5336 40.0792 26.917 40.1542 27.2368 40.3043C27.5567 40.4544 27.8223 40.6583 28.0344 40.9159ZM27.5742 42.8587C27.5742 42.0822 27.4406 41.4803 27.1733 41.053C26.9094 40.6257 26.5487 40.4119 26.0918 40.4119C25.6283 40.4119 25.2634 40.6257 24.9961 41.053C24.728 41.4803 24.5944 42.0822 24.5944 42.8587C24.5944 43.596 24.7213 44.1897 24.9761 44.6399C25.2341 45.0869 25.6024 45.3104 26.0818 45.3104C26.562 45.3104 26.9303 45.0869 27.1884 44.6399C27.4456 44.1897 27.5742 43.596 27.5742 42.8587ZM34.2888 45.4865H29.703V44.821C29.7916 44.7198 29.9135 44.6073 30.0705 44.4833C30.2267 44.3561 30.4129 44.2191 30.6284 44.0722C30.7586 43.9842 30.9148 43.8879 31.0977 43.7835C31.2806 43.6791 31.4877 43.565 31.7191 43.441C31.9771 43.304 32.1742 43.1833 32.3112 43.0789C32.4515 42.9745 32.5793 42.8457 32.6929 42.6923C32.768 42.5912 32.8282 42.4656 32.8741 42.3155C32.92 42.1622 32.9426 41.9453 32.9426 41.6647C32.9426 41.2569 32.8332 40.9584 32.6152 40.7692C32.3964 40.5767 32.1158 40.4805 31.7734 40.4805C31.5612 40.4805 31.3608 40.5228 31.1712 40.6077C30.9825 40.6893 30.8405 40.8035 30.7453 40.9503C30.7687 41.0547 30.7962 41.1786 30.8288 41.3222C30.8647 41.4656 30.8822 41.606 30.8822 41.743C30.8822 41.8669 30.8305 41.9778 30.7261 42.0757C30.625 42.1703 30.473 42.2176 30.2709 42.2176C30.1081 42.2176 29.982 42.1622 29.8943 42.0513C29.8057 41.9371 29.7623 41.7854 29.7623 41.5962C29.7623 41.42 29.8107 41.2438 29.9085 41.0677C30.007 40.8882 30.1473 40.7235 30.3294 40.5735C30.5089 40.4266 30.7311 40.3075 30.995 40.2163C31.2597 40.1249 31.5445 40.0792 31.8519 40.0792C32.52 40.0792 33.0503 40.2293 33.442 40.5294C33.837 40.8263 34.0341 41.2243 34.0341 41.7234C34.0341 41.9616 33.9982 42.1785 33.9264 42.3742C33.8579 42.57 33.7452 42.7428 33.589 42.8929C33.4161 43.0594 33.2132 43.2028 32.9818 43.3236C32.7505 43.441 32.3964 43.6057 31.9204 43.8179C31.6364 43.945 31.3716 44.0788 31.1269 44.2191C30.8822 44.3561 30.6818 44.4898 30.5257 44.6203H34.2888V45.4865ZM39.7883 40.9159C39.9971 41.1672 40.1524 41.4624 40.2535 41.8017C40.3579 42.1377 40.4105 42.49 40.4105 42.8587C40.4105 43.3024 40.3462 43.7003 40.2193 44.0527C40.0923 44.4018 39.9178 44.6921 39.6956 44.9238C39.4676 45.1619 39.1962 45.3413 38.883 45.462C38.5698 45.5827 38.2216 45.6431 37.8366 45.6431C37.4157 45.6431 37.0398 45.5729 36.7108 45.4326C36.3809 45.2924 36.1136 45.0999 35.9082 44.8552C35.6927 44.6008 35.5315 44.3039 35.4238 43.9646C35.3194 43.6221 35.2668 43.2535 35.2668 42.8587C35.2668 42.4705 35.3177 42.1132 35.4188 41.787C35.5232 41.4608 35.6844 41.1656 35.9032 40.9013C36.112 40.6469 36.3809 40.4462 36.7108 40.2994C37.0398 40.1526 37.4173 40.0792 37.8407 40.0792C38.2884 40.0792 38.6717 40.1542 38.9907 40.3043C39.3106 40.4544 39.577 40.6583 39.7883 40.9159ZM39.329 42.8587C39.329 42.0822 39.1954 41.4803 38.9273 41.053C38.6634 40.6257 38.3026 40.4119 37.8458 40.4119C37.3831 40.4119 37.0173 40.6257 36.75 41.053C36.4819 41.4803 36.3483 42.0822 36.3483 42.8587C36.3483 43.596 36.4761 44.1897 36.73 44.6399C36.988 45.0869 37.3564 45.3104 37.8366 45.3104C38.3159 45.3104 38.6842 45.0869 38.9423 44.6399C39.1995 44.1897 39.329 43.596 39.329 42.8587Z" fill="white"/>
<path d="M18.021 47.5743H22.1968" stroke="white" stroke-width="0.835152"/>
<path d="M29.7129 47.5743H33.8887" stroke="white" stroke-width="0.835152"/>
</svg>
